STARTFONT 2.1
COMMENT
COMMENT Converted from OpenType font "Roboto-ThinItalic.ttf" by "otf2bdf 3.0".
COMMENT
FONT -FreeType-Roboto Thin-Medium-I-Normal--55-400-100-100-P-268-ISO10646-1
SIZE 40 100 100
FONTBOUNDINGBOX 103 71 -40 -14
STARTPROPERTIES 19
FOUNDRY "FreeType"
FAMILY_NAME "Roboto Thin"
WEIGHT_NAME "Medium"
SLANT "I"
SETWIDTH_NAME "Normal"
ADD_STYLE_NAME ""
PIXEL_SIZE 55
POINT_SIZE 400
RESOLUTION_X 100
RESOLUTION_Y 100
SPACING "P"
AVERAGE_WIDTH 268
CHARSET_REGISTRY "ISO10646"
CHARSET_ENCODING "1"
FONT_ASCENT 51
FONT_DESCENT 13
COPYRIGHT "Copyright 2011 The Roboto Project Authors (https://github.com/googlefonts/roboto-classic)"
_OTF_FONTFILE "Roboto-ThinItalic.ttf"
_OTF_PSNAME "Roboto-ThinItalic"
ENDPROPERTIES
CHARS 922
STARTCHAR 0000
ENCODING 0
SWIDTH 0 0
DWIDTH 0 0
BBX 0 0 0 0
BITMAP
ENDCHAR
STARTCHAR 0002
ENCODING 2
SWIDTH 0 0
DWIDTH 0 0
BBX 0 0 0 0
BITMAP
ENDCHAR
STARTCHAR 000D
ENCODING 13
SWIDTH 234 0
DWIDTH 13 0
BBX 0 0 0 0
BITMAP
ENDCHAR
STARTCHAR 0020
ENCODING 32
SWIDTH 234 0
DWIDTH 13 0
BBX 0 0 0 0
BITMAP
ENDCHAR
STARTCHAR 0021
ENCODING 33
SWIDTH 180 0
DWIDTH 10 0
BBX 9 40 1 0
BITMAP
0180
0180
0180
0100
0100
0100
0300
0300
0200
0200
0200
0600
0600
0600
0400
0400
0400
0C00
0C00
0C00
0800
0800
0800
1800
1800
1800
1000
1000
1000
0000
0000
0000
0000
0000
0000
0000
0000
6000
E000
E000
ENDCHAR
STARTCHAR 0022
ENCODING 34
SWIDTH 234 0
DWIDTH 13 0
BBX 9 12 6 30
BITMAP
2180
2180
2100
2100
6100
6300
6300
4300
4200
4200
C200
C600
ENDCHAR
STARTCHAR 0023
ENCODING 35
SWIDTH 522 0
DWIDTH 29 0
BBX 32 39 1 0
BITMAP
0000C018
00008010
00018030
00018030
00010020
00030060
00030060
00020040
000600C0
000600C0
00040080
0FFFFFFF
00080180
00080100
00180300
00100200
00100200
00300600
00200400
00600400
00600C00
00400800
00C01800
00C01800
00801000
01803000
FFFFFFE0
FFFFFFE0
03006000
03006000
02004000
0600C000
0600C000
04008000
0C018000
08018000
08010000
18030000
10020000
ENDCHAR
STARTCHAR 0024
ENCODING 36
SWIDTH 522 0
DWIDTH 29 0
BBX 26 51 2 -6
BITMAP
00004000
00004000
00004000
0000C000
0000C000
0007F800
003E3E00
00700700
00C00380
01800180
030000C0
020000C0
06000040
04000040
04000040
0C000040
0C000040
0C000000
04000000
06000000
06000000
03000000
01C00000
00700000
003C0000
00070000
0001C000
00007000
00001800
00000C00
00000600
00000600
00000200
00000200
C0000200
C0000200
C0000200
C0000600
40000600
40000C00
60001800
30003800
18007000
0E01C000
03FF0000
00300000
00300000
00200000
00200000
00200000
00600000
ENDCHAR
STARTCHAR 0025
ENCODING 37
SWIDTH 720 0
DWIDTH 40 0
BBX 31 41 5 -1
BITMAP
03F00000
07B80000
1C0C0000
18040000
30060000
60020030
60020060
40020060
400600C0
C0060180
C0060300
C0040200
C00C0600
C00C0C00
40181800
60303000
38E03000
1FC06000
0000C000
00018000
00010000
00030000
000601E0
000C07F8
00180C0C
00181804
00303006
00602002
00C06002
00804002
01804002
03004006
0600C006
0C00C004
0800C004
1800C00C
00004018
00006030
00003060
00001FC0
00000200
ENDCHAR
STARTCHAR 0026
ENCODING 38
SWIDTH 576 0
DWIDTH 32 0
BBX 28 41 2 -1
BITMAP
0007E000
001E7800
00300C00
00600400
00C00600
00C00600
00800600
01800600
01800400
01800C00
01800800
01801800
01803000
0080C000
00C18000
00C30000
006E0000
00380000
00700000
00D80000
01880000
030C0000
06060000
0C020030
18030030
30018030
6000C020
4000C060
C0006040
C00030C0
80001080
80001980
80000F00
80000600
C0000600
40001F00
60003180
3000E180
1C0380C0
07FE0060
00C00000
ENDCHAR
STARTCHAR 0027
ENCODING 39
SWIDTH 144 0
DWIDTH 8 0
BBX 3 12 6 30
BITMAP
20
20
60
60
60
40
40
40
C0
C0
80
80
ENDCHAR
STARTCHAR 0028
ENCODING 40
SWIDTH 270 0
DWIDTH 15 0
BBX 16 56 3 -13
BITMAP
0001
0003
0006
0008
0010
0030
0060
00C0
0080
0180
0100
0300
0200
0600
0400
0C00
0800
1800
1800
1000
1000
3000
3000
2000
6000
6000
6000
4000
4000
4000
C000
C000
C000
C000
C000
C000
C000
C000
C000
C000
C000
C000
C000
4000
4000
4000
6000
6000
2000
3000
3000
1000
1800
0C00
0600
0300
ENDCHAR
STARTCHAR 0029
ENCODING 41
SWIDTH 288 0
DWIDTH 16 0
BBX 17 56 -4 -13
BITMAP
004000
006000
003000
001800
000800
000C00
000400
000600
000200
000200
000300
000100
000100
000100
000100
000180
000180
000180
000180
000180
000180
000180
000180
000180
000180
000100
000100
000100
000100
000300
000300
000200
000200
000200
000600
000600
000400
000C00
000C00
000800
001800
001800
003000
003000
002000
006000
00C000
00C000
018000
010000
030000
060000
0C0000
180000
300000
E00000
ENDCHAR
STARTCHAR 002A
ENCODING 42
SWIDTH 396 0
DWIDTH 22 0
BBX 20 22 4 18
BITMAP
001000
001000
003000
003000
003000
002000
002000
002000
C06070
7861E0
1E4F00
03F800
00E000
01E000
033000
023000
061800
0C0800
180C00
300400
600600
400200
ENDCHAR
STARTCHAR 002B
ENCODING 43
SWIDTH 540 0
DWIDTH 30 0
BBX 27 29 2 4
BITMAP
00010000
00010000
00010000
00030000
00030000
00030000
00020000
00020000
00060000
00060000
00060000
00040000
00040000
00040000
FFFFFFE0
000C0000
000C0000
00080000
00080000
00080000
00180000
00180000
00180000
00100000
00100000
00100000
00300000
00300000
00300000
ENDCHAR
STARTCHAR 002C
ENCODING 44
SWIDTH 180 0
DWIDTH 10 0
BBX 5 11 -1 -7
BITMAP
18
18
18
10
10
30
30
60
40
C0
80
ENDCHAR
STARTCHAR 002D
ENCODING 45
SWIDTH 270 0
DWIDTH 15 0
BBX 12 2 2 17
BITMAP
FFF0
FFF0
ENDCHAR
STARTCHAR 002E
ENCODING 46
SWIDTH 198 0
DWIDTH 11 0
BBX 3 3 1 0
BITMAP
60
E0
E0
ENDCHAR
STARTCHAR 002F
ENCODING 47
SWIDTH 360 0
DWIDTH 20 0
BBX 24 42 -2 -3
BITMAP
000001
000003
000006
000006
00000C
000008
000018
000010
000030
000020
000060
000040
0000C0
000180
000180
000300
000200
000600
000400
000C00
000800
001800
001000
003000
006000
006000
00C000
008000
018000
010000
030000
020000
060000
040000
0C0000
180000
180000
300000
200000
600000
400000
C00000
ENDCHAR
STARTCHAR 0030
ENCODING 48
SWIDTH 522 0
DWIDTH 29 0
BBX 25 40 3 -1
BITMAP
000FE000
003E7800
00E00C00
01C00600
03000200
03000300
06000100
04000100
0C000180
08000180
18000180
10000180
30000180
30000180
20000180
20000180
60000180
60000100
60000100
40000300
40000300
40000300
C0000200
C0000200
C0000200
80000600
80000600
80000400
80000400
80000C00
80000800
80001800
C0001000
C0003000
40006000
60006000
2000C000
30038000
1C0F0000
0FFC0000
ENDCHAR
STARTCHAR 0031
ENCODING 49
SWIDTH 522 0
DWIDTH 29 0
BBX 13 39 8 1
BITMAP
0038
01E8
0F98
3C18
E010
0010
0010
0010
0030
0030
0020
0020
0020
0020
0060
0060
0040
0040
0040
00C0
00C0
00C0
0080
0080
0080
0180
0180
0180
0100
0100
0100
0300
0300
0300
0200
0200
0200
0600
0600
ENDCHAR
STARTCHAR 0032
ENCODING 50
SWIDTH 522 0
DWIDTH 29 0
BBX 25 40 2 0
BITMAP
000FE000
003EF800
00E00E00
01C00300
03000300
06000180
06000180
0C000180
08000080
18000080
18000180
10000180
00000180
00000100
00000300
00000200
00000600
00000C00
00001800
00003000
00002000
00006000
0000C000
00018000
00030000
00060000
000C0000
00180000
00300000
00600000
00C00000
01800000
03000000
06000000
0C000000
18000000
30000000
60000000
C0000000
FFFFFE00
ENDCHAR
STARTCHAR 0033
ENCODING 51
SWIDTH 522 0
DWIDTH 29 0
BBX 26 41 2 -1
BITMAP
0007F000
003F7C00
00700600
01C00300
03800180
03000080
060000C0
040000C0
0C0000C0
080000C0
080000C0
000000C0
00000080
00000180
00000100
00000300
00000600
00001C00
0000F000
003FC000
007FE000
00007000
00001C00
00000400
00000600
00000200
00000300
00000300
00000300
80000300
80000200
80000200
80000600
C0000400
40000C00
60001800
30003000
18006000
0E03C000
07FF0000
00200000
ENDCHAR
STARTCHAR 0034
ENCODING 52
SWIDTH 522 0
DWIDTH 29 0
BBX 27 40 1 0
BITMAP
00000080
00000180
00000380
00000780
00000D80
00001900
00003100
00002300
00006300
0000C300
00018200
00030200
00060200
00060600
000C0600
00180600
00300400
00600400
00400400
00C00C00
01800C00
03000C00
06000800
0C000800
08000800
18001800
30001800
60001800
FFFFFFE0
00001000
00001000
00003000
00003000
00003000
00002000
00002000
00002000
00006000
00006000
00004000
ENDCHAR
STARTCHAR 0035
ENCODING 53
SWIDTH 522 0
DWIDTH 29 0
BBX 26 41 4 -1
BITMAP
01FFFFC0
01FFFFC0
01000000
01000000
03000000
03000000
02000000
02000000
06000000
06000000
04000000
04000000
0C000000
0C000000
08000000
083F0000
19FFC000
1F006000
1C003000
10001800
00000C00
00000C00
00000400
00000400
00000600
00000600
00000400
00000400
00000400
00000C00
80000C00
80000800
80001800
C0001800
C0003000
60002000
60006000
3001C000
1C070000
07FE0000
00400000
ENDCHAR
STARTCHAR 0036
ENCODING 54
SWIDTH 522 0
DWIDTH 29 0
BBX 23 41 3 -1
BITMAP
00007E
0003F8
000F00
001C00
003000
00E000
018000
018000
030000
060000
040000
0C0000
080000
180000
103F80
30FFE0
238030
260018
6C000C
700004
600006
600002
400002
C00002
C00002
C00002
800002
800002
800006
800006
800004
80000C
C00008
C00018
400010
600030
300060
1801C0
0E0380
07FE00
002000
ENDCHAR
STARTCHAR 0037
ENCODING 55
SWIDTH 522 0
DWIDTH 29 0
BBX 25 40 5 0
BITMAP
7FFFFF80
FFFFFF80
00000100
00000300
00000200
00000600
00000400
00000800
00001800
00001000
00003000
00002000
00004000
0000C000
00008000
00018000
00010000
00020000
00060000
00040000
000C0000
00080000
00180000
00300000
00200000
00600000
00400000
00C00000
01800000
01000000
03000000
02000000
06000000
0C000000
08000000
18000000
10000000
30000000
20000000
40000000
ENDCHAR
STARTCHAR 0038
ENCODING 56
SWIDTH 522 0
DWIDTH 29 0
BBX 27 41 1 -1
BITMAP
0003F800
001FBF00
00380380
006000C0
00C000C0
01800060
03000020
02000020
06000020
06000020
04000020
04000020
04000060
04000040
060000C0
02000180
03000300
01800E00
00E03C00
003FE000
00FFF000
03801C00
06000600
0C000300
18000100
30000180
20000080
60000080
40000080
40000080
C0000180
C0000180
C0000100
40000300
40000600
60000E00
30001C00
18003800
0E01E000
03FF8000
00100000
ENDCHAR
STARTCHAR 0039
ENCODING 57
SWIDTH 522 0
DWIDTH 29 0
BBX 24 41 4 -1
BITMAP
003F80
00F9E0
018038
070018
0E000C
0C0006
180006
300002
300002
600003
600003
400003
C00003
C00003
C00003
C00002
800002
C00002
C00006
C0000E
40000E
600014
600034
300064
1801CC
0E0F08
07FC08
000018
000010
000030
000020
000060
0000C0
000180
000300
000600
000C00
003800
01E000
7F8000
600000
ENDCHAR
STARTCHAR 003A
ENCODING 58
SWIDTH 162 0
DWIDTH 9 0
BBX 7 29 1 0
BITMAP
06
0E
0E
00
00
00
00
00
00
00
00
00
00
00
00
00
00
00
00
00
00
00
00
00
00
00
C0
E0
C0
ENDCHAR
STARTCHAR 003B
ENCODING 59
SWIDTH 162 0
DWIDTH 9 0
BBX 9 36 -1 -7
BITMAP
0180
0380
0380
0000
0000
0000
0000
0000
0000
0000
0000
0000
0000
0000
0000
0000
0000
0000
0000
0000
0000
0000
0000
0000
0000
1800
1800
1000
1000
3000
3000
2000
6000
C000
8000
8000
ENDCHAR
STARTCHAR 003C
ENCODING 60
SWIDTH 486 0
DWIDTH 27 0
BBX 24 22 2 7
BITMAP
000001
000007
00001C
0000F0
000380
000E00
007800
01C000
070000
3C0000
E00000
E00000
380000
0E0000
038000
00E000
003800
000E00
000380
0000E0
000038
000008
ENDCHAR
STARTCHAR 003D
ENCODING 61
SWIDTH 540 0
DWIDTH 30 0
BBX 24 12 3 12
BITMAP
3FFFFF
000000
000000
000000
000000
000000
000000
000000
000000
000000
000000
FFFFFC
ENDCHAR
STARTCHAR 003E
ENCODING 62
SWIDTH 486 0
DWIDTH 27 0
BBX 24 22 1 7
BITMAP
080000
0E0000
038000
00E000
003800
000E00
000380
0000E0
000038
00000E
000003
000007
00003C
0000F0
000380
000E00
007800
01C000
070000
3C0000
600000
800000
ENDCHAR
STARTCHAR 003F
ENCODING 63
SWIDTH 414 0
DWIDTH 23 0
BBX 19 40 5 0
BITMAP
00FC00
07CF00
0E0180
1800C0
3000C0
200040
600060
400060
C00060
800060
000040
000040
0000C0
000080
000180
000100
000300
000600
000C00
001800
007000
00C000
008000
010000
030000
020000
060000
040000
040000
000000
000000
000000
000000
000000
000000
000000
000000
180000
380000
380000
ENDCHAR
STARTCHAR 0040
ENCODING 64
SWIDTH 900 0
DWIDTH 50 0
BBX 45 50 2 -12
BITMAP
000003FFC000
00001F81F800
000078001C00
0001C0000700
000700000180
000E000000C0
001C000000C0
003000000060
006000000020
00C000000030
018000000010
018000F80010
030007FE0018
06000E070018
060018018018
0C0030010018
080060030018
1800C0030018
100080030018
300180020018
300300060018
200300060018
600200060010
600600040010
4004000C0030
4004000C0030
C00C00080020
C00C00080020
C00800180060
C00800180040
C008003000C0
C00800300080
C00800700180
C00800D00100
C00801900300
C00C03180600
C0060E0C1C00
4003F807F000
600040000000
600000000000
200000000000
300000000000
100000000000
180000000000
0C0000000000
060000000000
038000000000
01C000E00000
007C0FC00000
001FFE000000
ENDCHAR
STARTCHAR 0041
ENCODING 65
SWIDTH 576 0
DWIDTH 32 0
BBX 30 40 -2 0
BITMAP
00000200
00000600
00000E00
00000B00
00001B00
00001300
00003100
00006100
00006100
0000C180
00008180
00018080
00010080
00030080
000200C0
000600C0
00040040
000C0040
00080040
00180060
00300060
00300060
00600020
00400020
00C00030
00800030
01800030
01FFFFF0
03000010
02000018
06000018
04000018
0C000008
08000008
18000008
3000000C
3000000C
6000000C
40000004
C0000004
ENDCHAR
STARTCHAR 0042
ENCODING 66
SWIDTH 576 0
DWIDTH 32 0
BBX 27 40 3 0
BITMAP
03FF8000
03FFFC00
02000F00
02000180
020000C0
06000060
06000020
06000020
04000020
04000020
04000020
0C000060
0C000060
0C000040
080000C0
08000180
08000300
18000600
18003800
1FFFE000
1FFFF800
10000E00
30000300
30000180
30000080
200000C0
200000C0
200000C0
600000C0
600000C0
60000080
40000080
40000180
40000300
C0000300
C0000600
C0001C00
80007800
800FE000
FFFF0000
ENDCHAR
STARTCHAR 0043
ENCODING 67
SWIDTH 612 0
DWIDTH 34 0
BBX 29 41 4 -1
BITMAP
0003FC00
001FBF00
007001C0
00E000E0
01800020
03000030
06000010
04000018
0C000018
08000008
18000008
10000008
30000008
20000000
20000000
60000000
60000000
40000000
40000000
40000000
C0000000
C0000000
80000000
80000000
80000000
80000000
80000000
80000000
80000040
80000040
800000C0
C0000080
C0000180
40000300
60000200
20000600
30001C00
18003000
0E01E000
03FF8000
00600000
ENDCHAR
STARTCHAR 0044
ENCODING 68
SWIDTH 630 0
DWIDTH 35 0
BBX 30 40 3 0
BITMAP
03FF8000
03FFFC00
02000F00
02000180
020000C0
06000060
06000030
06000010
04000018
04000008
04000008
0C00000C
0C00000C
0800000C
08000004
08000004
1800000C
1800000C
1800000C
10000008
10000008
10000008
30000018
30000018
30000018
20000010
20000030
20000020
60000060
60000060
600000C0
40000080
40000180
40000300
C0000600
C0001C00
C0003800
8000E000
801F8000
FFFC0000
ENDCHAR
STARTCHAR 0045
ENCODING 69
SWIDTH 540 0
DWIDTH 30 0
BBX 30 40 3 0
BITMAP
03FFFFFC
03FFFFF8
02000000
02000000
02000000
06000000
06000000
06000000
04000000
04000000
04000000
0C000000
0C000000
08000000
08000000
08000000
18000000
18000000
18000000
1FFFFF00
10000000
10000000
30000000
30000000
30000000
20000000
20000000
20000000
60000000
60000000
60000000
40000000
40000000
40000000
C0000000
C0000000
C0000000
80000000
80000000
FFFFFE00
ENDCHAR
STARTCHAR 0046
ENCODING 70
SWIDTH 540 0
DWIDTH 30 0
BBX 30 40 3 0
BITMAP
03FFFFFC
03FFFFFC
02000000
02000000
02000000
06000000
06000000
06000000
04000000
04000000
04000000
0C000000
0C000000
08000000
08000000
08000000
18000000
18000000
18000000
1FFFFF00
1FFFFF00
10000000
30000000
30000000
30000000
20000000
20000000
20000000
60000000
60000000
60000000
40000000
40000000
40000000
C0000000
C0000000
C0000000
80000000
80000000
80000000
ENDCHAR
STARTCHAR 0047
ENCODING 71
SWIDTH 666 0
DWIDTH 37 0
BBX 30 41 4 -1
BITMAP
0001FE00
000FDF80
003800E0
00600030
00C00018
01800018
0300000C
0600000C
04000004
0C000004
08000004
18000000
10000000
30000000
30000000
20000000
20000000
60000000
60000000
60000000
40000000
40000000
4001FFF8
C001FFF0
C0000010
C0000030
C0000030
C0000030
C0000030
C0000020
40000020
40000060
60000060
20000060
30000040
100000C0
180001C0
0E000700
07803E00
01FFF000
00080000
ENDCHAR
STARTCHAR 0048
ENCODING 72
SWIDTH 666 0
DWIDTH 37 0
BBX 34 40 3 0
BITMAP
03000000C0
0300000080
0200000080
0200000080
0200000180
0600000180
0600000180
0600000100
0400000100
0400000100
0400000300
0C00000300
0C00000300
0800000200
0800000200
0800000200
1800000600
1800000600
1800000600
1FFFFFFC00
1000000400
1000000400
3000000C00
3000000C00
3000000800
2000000800
2000000800
2000001800
6000001800
6000001800
6000001000
4000001000
4000001000
4000003000
C000003000
C000003000
C000002000
8000002000
8000002000
8000006000
ENDCHAR
STARTCHAR 0049
ENCODING 73
SWIDTH 252 0
DWIDTH 14 0
BBX 8 40 4 0
BITMAP
03
03
02
02
02
06
06
06
04
04
04
0C
0C
0C
08
08
08
18
18
18
10
10
10
30
30
20
20
20
60
60
60
40
40
40
C0
C0
C0
80
80
80
ENDCHAR
STARTCHAR 004A
ENCODING 74
SWIDTH 522 0
DWIDTH 29 0
BBX 28 41 1 -1
BITMAP
00000030
00000020
00000020
00000020
00000060
00000060
00000040
00000040
00000040
000000C0
000000C0
000000C0
00000080
00000080
00000080
00000180
00000180
00000180
00000100
00000100
00000100
00000300
00000300
00000300
00000200
00000200
00000200
00000600
00000600
C0000400
C0000400
C0000C00
C0000800
C0001800
40003000
60003000
60006000
3001C000
1C070000
07FE0000
00400000
ENDCHAR
STARTCHAR 004B
ENCODING 75
SWIDTH 612 0
DWIDTH 34 0
BBX 32 40 3 0
BITMAP
03000000
03000007
0200000C
02000038
02000070
060000C0
06000180
06000300
04000600
04000C00
04003800
0C007000
0C00C000
08018000
08030000
08060000
180C0000
18380000
18700000
10D80000
11980000
130C0000
36060000
38060000
30030000
20018000
20008000
2000C000
60006000
60002000
60003000
40001800
40000800
40000C00
C0000600
C0000200
C0000300
80000180
80000080
800000C0
ENDCHAR
STARTCHAR 004C
ENCODING 76
SWIDTH 486 0
DWIDTH 27 0
BBX 21 40 3 0
BITMAP
030000
030000
020000
020000
020000
060000
060000
060000
040000
040000
040000
0C0000
0C0000
0C0000
080000
080000
180000
180000
180000
100000
100000
100000
300000
300000
300000
200000
200000
200000
600000
600000
600000
400000
400000
400000
C00000
C00000
C00000
800000
800000
FFFFF8
ENDCHAR
STARTCHAR 004D
ENCODING 77
SWIDTH 828 0
DWIDTH 46 0
BBX 42 40 3 0
BITMAP
030000000040
0380000001C0
0380000001C0
038000000380
028000000680
06C000000680
06C000000D80
06C000000980
044000001980
046000003100
046000003100
0C6000006100
0C2000004300
08300000C300
083000018300
081000018200
181000030200
181800020200
181800060600
1008000C0600
1008000C0600
100C00180400
300C00100400
300400300400
300400600C00
200400600C00
200600C00C00
200200800800
600201800800
600201000800
600303001800
400106001800
400104001000
40010C001000
C00188001000
C00098003000
C000B0003000
8000A0003000
8000E0002000
800040002000
ENDCHAR
STARTCHAR 004E
ENCODING 78
SWIDTH 684 0
DWIDTH 38 0
BBX 34 40 3 0
BITMAP
03000000C0
03000000C0
03800000C0
0280000080
02C0000080
0640000080
0660000180
0620000180
0430000180
0410000100
0C18000100
0C08000100
0C0C000300
0C04000300
0806000300
0802000200
1803000200
1801000600
1801800600
1800800600
1000C00400
1000400400
3000600400
3000200C00
3000300C00
2000100C00
2000180800
2000080800
60000C0800
60000C1800
6000061800
4000061800
4000031000
4000031000
C000019000
C00001B000
C00000F000
800000F000
8000006000
8000006000
ENDCHAR
STARTCHAR 004F
ENCODING 79
SWIDTH 630 0
DWIDTH 35 0
BBX 31 41 3 -1
BITMAP
0001FE00
000FCF80
003C00C0
00700060
00C00030
01800018
03000008
0600000C
06000004
0C000004
08000006
18000006
10000006
10000006
30000006
20000006
20000006
20000006
60000004
60000004
6000000C
4000000C
4000000C
40000008
C0000008
C0000018
C0000018
C0000010
C0000030
C0000030
40000060
40000060
600000C0
60000180
30000100
30000300
18000E00
0C001800
0700F000
01FFC000
00080000
ENDCHAR
STARTCHAR 0050
ENCODING 80
SWIDTH 576 0
DWIDTH 32 0
BBX 29 40 3 0
BITMAP
03FFC000
03FFFE00
02000380
020000C0
02000060
06000030
06000010
06000018
04000018
04000018
04000018
0C000018
0C000018
0C000010
08000030
08000030
08000060
18000060
180000C0
10000380
10000700
10003C00
3FFFF000
30000000
30000000
20000000
20000000
20000000
60000000
60000000
60000000
40000000
40000000
40000000
C0000000
C0000000
C0000000
80000000
80000000
80000000
ENDCHAR
STARTCHAR 0051
ENCODING 81
SWIDTH 630 0
DWIDTH 35 0
BBX 31 47 3 -7
BITMAP
0001FE00
000FCF80
003C00C0
00700060
00C00030
01800018
03000008
0600000C
06000004
0C000004
08000006
18000006
10000006
10000006
30000006
20000006
20000006
20000006
60000004
60000004
6000000C
4000000C
4000000C
40000008
C0000008
C0000018
C0000018
C0000010
C0000030
C0000030
40000060
40000060
600000C0
60000180
30000100
10000300
18000E00
0C001800
0700F000
01FFE000
00083000
00001800
00001800
00000C00
00000600
00000300
00000100
ENDCHAR
STARTCHAR 0052
ENCODING 82
SWIDTH 630 0
DWIDTH 35 0
BBX 30 40 2 0
BITMAP
01FFE000
01FFFF00
010001C0
01000070
03000030
03000018
0300000C
0200000C
02000004
02000004
06000004
06000004
0600000C
0400000C
04000008
04000018
0C000010
0C000030
0C000060
080000C0
08000300
08003E00
1FFFF000
18003000
10001000
10001800
10001800
30000C00
30000C00
30000400
20000600
20000200
20000300
60000300
60000180
60000180
40000080
400000C0
40000040
C0000060
ENDCHAR
STARTCHAR 0053
ENCODING 83
SWIDTH 558 0
DWIDTH 31 0
BBX 30 41 1 -1
BITMAP
0001FE00
000FCFC0
003800E0
00600030
00C00018
0180000C
0300000C
02000004
06000004
06000004
06000004
06000004
06000000
06000000
03000000
01800000
01C00000
00700000
001E0000
0007C000
0000F000
00001E00
00000700
00000180
000000C0
00000060
00000020
00000030
00000030
40000030
C0000030
40000020
40000060
40000060
600000C0
30000180
38000300
1C000E00
07807800
01FFE000
000C0000
ENDCHAR
STARTCHAR 0054
ENCODING 84
SWIDTH 576 0
DWIDTH 32 0
BBX 30 40 5 0
BITMAP
FFFFFFFC
FFFFFFFC
00030000
00020000
00020000
00020000
00060000
00060000
00040000
00040000
00040000
000C0000
000C0000
000C0000
00080000
00080000
00080000
00180000
00180000
00180000
00100000
00100000
00100000
00300000
00300000
00300000
00200000
00200000
00200000
00600000
00600000
00600000
00400000
00400000
00400000
00C00000
00C00000
00800000
00800000
00800000
ENDCHAR
STARTCHAR 0055
ENCODING 85
SWIDTH 630 0
DWIDTH 35 0
BBX 31 41 4 -1
BITMAP
04000002
04000006
04000006
0C000006
0C000004
08000004
08000004
0800000C
1800000C
1800000C
18000008
10000008
10000008
10000018
30000018
30000018
30000010
20000010
20000010
20000030
60000030
60000020
60000020
40000020
40000060
40000060
C0000060
C0000040
C0000040
800000C0
C00000C0
C0000080
C0000180
40000300
60000600
60000E00
30001C00
18003800
0E01E000
03FF8000
00180000
ENDCHAR
STARTCHAR 0056
ENCODING 86
SWIDTH 576 0
DWIDTH 32 0
BBX 29 40 5 0
BITMAP
80000000
80000008
80000018
C0000010
C0000030
40000020
40000060
60000040
600000C0
60000080
20000180
20000100
30000300
30000200
30000600
10000400
10000C00
18000800
18001800
18003000
08003000
08006000
0C006000
0C00C000
0400C000
04018000
04010000
06030000
06020000
02060000
02040000
020C0000
03080000
03180000
01100000
01300000
01200000
01E00000
01C00000
00C00000
ENDCHAR
STARTCHAR 0057
ENCODING 87
SWIDTH 864 0
DWIDTH 48 0
BBX 45 40 5 0
BITMAP
C00003000000
C00003000008
C00007000018
400005000018
40000D000010
40000D800030
400009800020
600019800060
600010800060
6000308000C0
6000208000C0
600060800080
600040C00180
2000C0C00100
200080C00300
200180C00300
200180400200
300100400600
300300400400
300200400C00
300600600C00
300400600800
100C00601800
100800201000
101800203000
101800202000
183000206000
183000306000
182000304000
18600030C000
184000308000
08C000118000
088000118000
098000130000
098000130000
0900001A0000
0F00001E0000
0E00001C0000
0E00000C0000
0C00000C0000
ENDCHAR
STARTCHAR 0058
ENCODING 88
SWIDTH 576 0
DWIDTH 32 0
BBX 34 40 -1 0
BITMAP
0100000000
01800000C0
0080000180
00C0000100
0040000300
0060000600
0020000C00
0030001800
0010003000
0018006000
000C006000
000C00C000
0006018000
0006030000
0003060000
00010C0000
0001880000
0000980000
0000F00000
0000600000
0000E00000
0001A00000
0003300000
0003100000
0006180000
000C0C0000
00180C0000
0030060000
0060060000
0040030000
00C0010000
0180018000
0300008000
060000C000
0C00004000
0800006000
1800002000
3000003000
6000001000
C000001800
ENDCHAR
STARTCHAR 0059
ENCODING 89
SWIDTH 576 0
DWIDTH 32 0
BBX 30 40 5 0
BITMAP
C0000000
C000000C
60000018
60000030
20000060
30000040
300000C0
18000180
18000300
08000200
0C000600
0C000C00
06001800
06001000
02003000
03006000
0100C000
01808000
01818000
00830000
00C60000
00440000
006C0000
00380000
00300000
00200000
00200000
00200000
00600000
00600000
00600000
00400000
00400000
00400000
00C00000
00C00000
00C00000
00800000
00800000
00800000
ENDCHAR
STARTCHAR 005A
ENCODING 90
SWIDTH 576 0
DWIDTH 32 0
BBX 33 40 0 0
BITMAP
00FFFFFF00
01FFFFFF80
0000000300
0000000600
0000000400
0000000800
0000001800
0000003000
0000006000
000000C000
0000018000
0000010000
0000030000
0000060000
00000C0000
0000180000
0000300000
0000200000
0000600000
0000C00000
0001800000
0003000000
0006000000
0004000000
000C000000
0018000000
0030000000
0060000000
00C0000000
0080000000
0180000000
0300000000
0600000000
0C00000000
1800000000
1000000000
3000000000
6000000000
C000000000
FFFFFFE000
ENDCHAR
STARTCHAR 005B
ENCODING 91
SWIDTH 198 0
DWIDTH 11 0
BBX 16 53 1 -8
BITMAP
00FF
0080
0080
0080
0080
0180
0180
0180
0100
0100
0100
0300
0300
0300
0200
0200
0200
0600
0600
0600
0600
0400
0400
0400
0C00
0C00
0C00
0800
0800
0800
1800
1800
1800
1000
1000
1000
1000
3000
3000
3000
2000
2000
2000
6000
6000
6000
4000
4000
4000
C000
C000
C000
FF00
ENDCHAR
STARTCHAR 005C
ENCODING 92
SWIDTH 360 0
DWIDTH 20 0
BBX 9 43 6 -3
BITMAP
8000
8000
8000
C000
C000
4000
4000
4000
6000
6000
2000
2000
2000
3000
3000
1000
1000
1000
1800
1800
0800
0800
0800
0C00
0C00
0400
0400
0400
0600
0600
0200
0200
0200
0300
0300
0100
0100
0100
0180
0180
0080
0080
0080
ENDCHAR
STARTCHAR 005D
ENCODING 93
SWIDTH 198 0
DWIDTH 11 0
BBX 16 53 -4 -8
BITMAP
00FF
0003
0002
0002
0002
0006
0006
0006
0004
0004
0004
000C
000C
000C
000C
0008
0008
0018
0018
0018
0018
0010
0010
0010
0030
0030
0030
0020
0020
0020
0060
0060
0060
0060
0040
0040
0040
00C0
00C0
00C0
0080
0080
0080
0180
0180
0180
0180
0100
0100
0100
0300
0300
FF00
ENDCHAR
STARTCHAR 005E
ENCODING 94
SWIDTH 396 0
DWIDTH 22 0
BBX 17 20 3 20
BITMAP
001800
001800
003800
002800
006C00
00CC00
008C00
018400
010400
030600
020600
060200
0C0200
080300
180300
100100
300100
200180
600180
C00180
ENDCHAR
STARTCHAR 005F
ENCODING 95
SWIDTH 396 0
DWIDTH 22 0
BBX 22 1 -3 -1
BITMAP
FFFFFC
ENDCHAR
STARTCHAR 0060
ENCODING 96
SWIDTH 252 0
DWIDTH 14 0
BBX 5 8 8 34
BITMAP
C0
40
60
20
30
10
18
08
ENDCHAR
STARTCHAR 0061
ENCODING 97
SWIDTH 504 0
DWIDTH 28 0
BBX 24 31 1 -1
BITMAP
000FC0
007FF0
01C01C
030004
060006
0C0002
080003
180003
180003
000003
000002
000002
000002
000006
00FFFE
03E006
0E0004
180004
300004
60000C
C0000C
C0000C
800008
800018
800038
800078
C000D8
600398
300E18
1FF818
010000
ENDCHAR
STARTCHAR 0062
ENCODING 98
SWIDTH 522 0
DWIDTH 29 0
BBX 24 43 2 -1
BITMAP
010000
010000
030000
030000
030000
020000
020000
020000
060000
060000
060000
040000
0407E0
043FF8
0CE00C
0D8006
0F0006
0E0003
0C0003
0C0001
180001
180001
100001
100001
100001
300001
300001
300003
200003
200003
200002
600006
600006
600004
40000C
400008
600018
E00030
F00060
D800C0
8E0380
83FE00
006000
ENDCHAR
STARTCHAR 0063
ENCODING 99
SWIDTH 486 0
DWIDTH 27 0
BBX 23 31 2 -1
BITMAP
001F80
00FFE0
01C038
03000C
06000C
0C0006
180006
100002
300002
200002
600000
600000
400000
400000
C00000
C00000
C00000
800000
800000
800000
800000
C0000C
C00008
400018
400010
600030
300060
1801C0
0C0780
07FE00
004000
ENDCHAR
STARTCHAR 0064
ENCODING 100
SWIDTH 522 0
DWIDTH 29 0
BBX 26 43 3 -1
BITMAP
00000040
00000040
00000040
000000C0
000000C0
000000C0
00000080
00000080
00000080
00000180
00000180
00000180
003F0100
00FFC100
03807100
06001B00
0C000B00
08000E00
18000600
30000600
30000600
20000600
60000600
40000400
40000400
C0000400
C0000C00
80000C00
80000C00
80000800
80000800
80000800
80001800
80001800
80001800
80001000
C0003000
40007000
6000F000
3003B000
180E3000
0FF82000
00800000
ENDCHAR
STARTCHAR 0065
ENCODING 101
SWIDTH 486 0
DWIDTH 27 0
BBX 23 31 2 -1
BITMAP
001F80
007FE0
01C030
030018
06000C
0C0004
180006
100002
300002
200002
600002
400002
400002
FFFFFE
C00000
800000
800000
800000
800000
800000
800000
C00000
C00000
400000
600000
200010
300030
1800E0
0E0380
03FE00
003000
ENDCHAR
STARTCHAR 0066
ENCODING 102
SWIDTH 288 0
DWIDTH 16 0
BBX 18 42 4 0
BITMAP
001FC0
007840
00E000
00C000
018000
030000
030000
020000
020000
060000
060000
060000
040000
FFFC00
040000
0C0000
0C0000
0C0000
080000
080000
080000
180000
180000
180000
100000
100000
100000
300000
300000
300000
200000
200000
600000
600000
600000
400000
400000
400000
C00000
C00000
C00000
800000
ENDCHAR
STARTCHAR 0067
ENCODING 103
SWIDTH 522 0
DWIDTH 29 0
BBX 26 42 1 -12
BITMAP
000FC000
003FF040
00E01CC0
018004C0
030002C0
02000380
06000180
0C000180
0C000180
18000180
18000180
10000100
30000100
30000100
30000300
20000300
20000300
20000200
20000200
20000200
20000600
20000600
20000600
20000400
30000C00
10001C00
18003C00
0C00EC00
0E038C00
03FE0800
00200800
00001800
00001800
00001000
00003000
00006000
80006000
C000C000
60018000
38070000
1FFC0000
03E00000
ENDCHAR
STARTCHAR 0068
ENCODING 104
SWIDTH 522 0
DWIDTH 29 0
BBX 24 42 2 0
BITMAP
010000
010000
010000
030000
030000
020000
020000
020000
060000
060000
060000
040000
0407E0
041FF8
0C700C
0CC006
0D8002
0B0003
0A0003
0C0003
1C0003
180003
180003
100003
100002
100002
300002
300006
300006
200006
200004
200004
60000C
60000C
40000C
400008
400008
C00008
C00018
C00018
800018
800010
ENDCHAR
STARTCHAR 0069
ENCODING 105
SWIDTH 198 0
DWIDTH 11 0
BBX 9 40 2 0
BITMAP
0380
0380
0300
0000
0000
0000
0000
0000
0000
0000
0000
0400
0400
0400
0C00
0C00
0C00
0800
0800
0800
1800
1800
1800
1000
1000
1000
3000
3000
3000
2000
2000
2000
6000
6000
4000
4000
4000
C000
C000
C000
ENDCHAR
STARTCHAR 006A
ENCODING 106
SWIDTH 198 0
DWIDTH 11 0
BBX 19 52 -8 -12
BITMAP
000060
0000E0
0000E0
000000
000000
000000
000000
000000
000000
000000
000000
000100
000100
000100
000300
000300
000300
000200
000200
000200
000600
000600
000600
000400
000400
000400
000C00
000C00
000C00
000800
000800
000800
001800
001800
001800
001000
001000
003000
003000
003000
002000
002000
002000
006000
006000
004000
00C000
00C000
018000
030000
FE0000
F80000
ENDCHAR
STARTCHAR 006B
ENCODING 107
SWIDTH 450 0
DWIDTH 25 0
BBX 24 42 2 0
BITMAP
010000
010000
010000
030000
030000
020000
020000
020000
060000
060000
060000
040000
040000
040007
0C000C
0C0018
0C0030
0800E0
0801C0
080300
180600
180C00
183800
106000
10C000
118000
33C000
3C6000
382000
303000
201800
200800
600C00
600600
400200
400300
400180
C00080
C000C0
C00060
800020
800030
ENDCHAR
STARTCHAR 006C
ENCODING 108
SWIDTH 198 0
DWIDTH 11 0
BBX 9 42 2 0
BITMAP
0180
0180
0100
0100
0300
0300
0300
0200
0200
0200
0600
0600
0600
0400
0400
0400
0C00
0C00
0C00
0800
0800
0800
1800
1800
1800
1000
1000
1000
3000
3000
3000
2000
2000
6000
6000
6000
4000
4000
4000
C000
C000
C000
ENDCHAR
STARTCHAR 006D
ENCODING 109
SWIDTH 864 0
DWIDTH 48 0
BBX 43 30 2 0
BITMAP
0007E000FC00
0C1FF803FF00
0C700C0E0180
08C0061800C0
098002300040
0B0002600060
1E0003C00060
1C0003800060
1C0003000060
180003000060
180002000060
100002000060
300002000040
300002000040
300006000040
2000060000C0
2000040000C0
2000040000C0
600004000080
60000C000080
60000C000080
40000C000180
400008000180
400008000180
C00008000100
C00018000100
C00018000100
800018000300
800010000300
800010000300
ENDCHAR
STARTCHAR 006E
ENCODING 110
SWIDTH 522 0
DWIDTH 29 0
BBX 24 30 2 0
BITMAP
0007E0
041FF8
0C700C
0CC006
0D8002
0B0003
0A0003
0C0003
1C0003
180003
180003
100003
100002
100002
300002
300006
300006
200006
200004
200004
60000C
60000C
40000C
400008
400008
C00008
C00018
C00018
800018
800010
ENDCHAR
STARTCHAR 006F
ENCODING 111
SWIDTH 522 0
DWIDTH 29 0
BBX 25 31 2 -1
BITMAP
000FC000
007FF000
01C01C00
03800E00
06000600
0C000300
18000100
18000180
30000180
20000080
60000080
60000080
40000080
C0000080
C0000080
C0000080
80000180
80000180
80000100
80000300
80000300
C0000200
C0000600
40000C00
60000800
20001800
30003000
1800E000
0E038000
03FF0000
00200000
ENDCHAR
STARTCHAR 0070
ENCODING 112
SWIDTH 522 0
DWIDTH 29 0
BBX 26 41 0 -11
BITMAP
0001F800
010FFE00
03380300
03600180
03C00180
038000C0
030000C0
02000040
06000040
06000040
06000040
04000040
04000040
0C000040
0C000040
0C000040
080000C0
080000C0
08000080
18000180
18000180
18000100
10000300
10000200
18000600
38000C00
3C001800
36003000
2380E000
20FF8000
20180000
60000000
60000000
60000000
40000000
40000000
40000000
C0000000
C0000000
C0000000
80000000
ENDCHAR
STARTCHAR 0071
ENCODING 113
SWIDTH 522 0
DWIDTH 29 0
BBX 24 41 3 -11
BITMAP
003F00
00FFC1
038073
06001B
0C000B
08000E
180006
300006
300006
200006
600006
400004
400004
C00004
C0000C
80000C
80000C
800008
800008
800008
800018
800018
800018
800010
C00030
400070
6000F0
3003B0
180E30
0FF820
008020
000020
000060
000060
000040
000040
000040
0000C0
0000C0
0000C0
000080
ENDCHAR
STARTCHAR 0072
ENCODING 114
SWIDTH 324 0
DWIDTH 18 0
BBX 18 30 2 0
BITMAP
000FC0
043F80
0C6000
0CC000
0D0000
0B0000
0E0000
0C0000
1C0000
180000
180000
100000
100000
100000
300000
300000
300000
200000
200000
200000
600000
600000
400000
400000
400000
C00000
C00000
C00000
800000
800000
ENDCHAR
STARTCHAR 0073
ENCODING 115
SWIDTH 468 0
DWIDTH 26 0
BBX 23 31 1 -1
BITMAP
001F80
00FFF0
01C018
03000C
060006
0C0002
080002
080002
080000
080000
0C0000
0C0000
070000
01C000
007800
000F00
0001C0
000060
000030
000018
000008
000008
000008
C00018
C00018
400030
600070
3000E0
1C0380
07FE00
004000
ENDCHAR
STARTCHAR 0074
ENCODING 116
SWIDTH 306 0
DWIDTH 17 0
BBX 13 38 3 -1
BITMAP
0100
0100
0300
0300
0300
0200
0200
0200
FFF8
0600
0600
0400
0400
0C00
0C00
0C00
0800
0800
0800
1800
1800
1800
1000
1000
1000
3000
3000
3000
2000
2000
2000
6000
6000
2000
2000
3000
1F80
0300
ENDCHAR
STARTCHAR 0075
ENCODING 117
SWIDTH 522 0
DWIDTH 29 0
BBX 24 30 3 -1
BITMAP
180001
180003
180003
100003
100003
100002
300002
300006
300006
200006
200004
200004
600004
60000C
60000C
40000C
400008
400008
C00008
C00018
C00018
C00018
C00030
C00070
400050
6001F0
3003B0
380E30
0FF820
008000
ENDCHAR
STARTCHAR 0076
ENCODING 118
SWIDTH 450 0
DWIDTH 25 0
BBX 23 29 3 0
BITMAP
C00002
400006
400004
60000C
600008
600018
200030
200030
300060
300060
1000C0
100080
180180
180100
180300
080200
080600
0C0400
0C0C00
041800
041800
063000
063000
066000
026000
02C000
038000
038000
010000
ENDCHAR
STARTCHAR 0077
ENCODING 119
SWIDTH 720 0
DWIDTH 40 0
BBX 35 29 5 0
BITMAP
8000C00060
8000C00060
8001E00040
80016000C0
C003600080
C003600180
C006200180
C006200300
C00C200300
400C300600
4008300600
4018300400
4010300C00
6030100800
6020101800
6060101000
6040103000
60C0183000
6080186000
2180186000
210008C000
230008C000
2200088000
3600098000
34000D0000
3C000F0000
38000E0000
3800060000
1000060000
ENDCHAR
STARTCHAR 0078
ENCODING 120
SWIDTH 450 0
DWIDTH 25 0
BBX 26 29 -1 0
BITMAP
060000C0
03000180
01000300
01800300
00800600
00C00C00
00401800
00603000
00306000
0030C000
0018C000
00098000
000F0000
00060000
000E0000
001A0000
00130000
00310000
00618000
00C0C000
0180C000
03006000
06006000
04003000
0C001000
18001800
30000800
60000C00
C0000400
ENDCHAR
STARTCHAR 0079
ENCODING 121
SWIDTH 450 0
DWIDTH 25 0
BBX 29 41 -2 -12
BITMAP
02000018
02000030
03000030
03000060
03000060
010000C0
01000080
01800180
01800100
00800300
00800200
00C00600
00C00C00
00C00C00
00401800
00401800
00603000
00602000
00606000
00204000
0020C000
00308000
00318000
00130000
00130000
001E0000
001E0000
001C0000
000C0000
00180000
00100000
00300000
00200000
00600000
00400000
00C00000
01800000
03000000
06000000
FC000000
F0000000
ENDCHAR
STARTCHAR 007A
ENCODING 122
SWIDTH 450 0
DWIDTH 25 0
BBX 25 29 0 0
BITMAP
07FFFF80
00000180
00000300
00000600
00000C00
00001800
00003000
00006000
00004000
0000C000
00018000
00030000
00060000
000C0000
00180000
00300000
00200000
00600000
00C00000
01800000
03000000
06000000
0C000000
18000000
10000000
30000000
60000000
C0000000
FFFFFC00
ENDCHAR
STARTCHAR 007B
ENCODING 123
SWIDTH 306 0
DWIDTH 17 0
BBX 19 55 2 -12
BITMAP
000060
0001C0
000300
000600
000C00
001800
001000
003000
002000
006000
006000
004000
004000
004000
00C000
00C000
00C000
008000
008000
008000
018000
018000
030000
030000
060000
0C0000
F00000
C00000
700000
180000
0C0000
040000
060000
060000
060000
060000
040000
040000
040000
0C0000
0C0000
0C0000
080000
080000
080000
080000
080000
0C0000
0C0000
040000
060000
030000
018000
00E000
006000
ENDCHAR
STARTCHAR 007C
ENCODING 124
SWIDTH 180 0
DWIDTH 10 0
BBX 9 47 1 -7
BITMAP
0180
0180
0180
0100
0100
0100
0300
0300
0300
0200
0200
0200
0600
0600
0600
0600
0400
0400
0400
0C00
0C00
0C00
0800
0800
0800
1800
1800
1800
1000
1000
1000
1000
3000
3000
3000
2000
2000
2000
6000
6000
6000
4000
4000
4000
C000
C000
C000
ENDCHAR
STARTCHAR 007D
ENCODING 125
SWIDTH 306 0
DWIDTH 17 0
BBX 20 55 -4 -12
BITMAP
00C000
007000
001800
000C00
000400
000600
000600
000200
000200
000200
000200
000200
000200
000200
000600
000600
000600
000400
000400
000400
000400
000400
000400
000400
000600
000300
0001F0
000060
0003C0
000600
000C00
001800
001800
001000
003000
003000
002000
002000
002000
006000
006000
006000
004000
004000
00C000
00C000
008000
018000
010000
030000
060000
0C0000
380000
E00000
800000
ENDCHAR
STARTCHAR 007E
ENCODING 126
SWIDTH 666 0
DWIDTH 37 0
BBX 29 9 4 12
BITMAP
07E00000
1FF00008
301C0018
200E0018
60030030
C0038030
C000C060
80007FC0
00003F00
ENDCHAR
STARTCHAR 00A0
ENCODING 160
SWIDTH 234 0
DWIDTH 13 0
BBX 0 0 0 0
BITMAP
ENDCHAR
STARTCHAR 00A1
ENCODING 161
SWIDTH 180 0
DWIDTH 10 0
BBX 9 40 0 -10
BITMAP
0300
0380
0300
0000
0000
0000
0000
0000
0000
0000
0000
0600
0400
0400
0400
0C00
0C00
0C00
0800
0800
0800
1800
1800
1000
1000
1000
3000
3000
3000
2000
2000
2000
6000
6000
6000
4000
4000
4000
C000
C000
ENDCHAR
STARTCHAR 00A2
ENCODING 162
SWIDTH 522 0
DWIDTH 29 0
BBX 23 43 3 -7
BITMAP
000100
000100
000300
000300
000300
000200
001F80
007FF0
01C038
03000C
060004
0C0006
180002
180002
300002
200002
600000
600000
400000
400000
C00000
C00000
C00000
800000
800000
800000
800000
800008
C00018
C00018
400030
600020
200060
3001C0
1C0700
07FC00
004000
00C000
00C000
00C000
008000
008000
018000
ENDCHAR
STARTCHAR 00A3
ENCODING 163
SWIDTH 540 0
DWIDTH 30 0
BBX 30 40 0 0
BITMAP
00003F80
0000FBE0
00018030
00030010
00060018
000C0008
0008000C
0018000C
0010000C
0030000C
00300000
00200000
00200000
00200000
00600000
00600000
00600000
00400000
00400000
00400000
1FFFF000
1FFFF000
00C00000
00C00000
00800000
00800000
00800000
00800000
01800000
01800000
01800000
01000000
01000000
03000000
03000000
02000000
06000000
04000000
1C000000
FFFFFF80
ENDCHAR
STARTCHAR 00A4
ENCODING 164
SWIDTH 702 0
DWIDTH 39 0
BBX 39 35 0 -1
BITMAP
0300000006
01807FF00E
0181E03818
00C7000E30
006C000360
00380001C0
0070000180
00600000C0
00C0000040
0180000060
0300000060
0300000020
0600000020
0600000020
0400000030
0C00000030
0C00000020
0800000020
0800000020
0800000060
0800000060
0800000040
08000000C0
0C00000080
0C00000180
0400000300
0600000300
0600000600
0300000C00
0780001C00
0DC0007600
18E001C300
7038078180
E01FFE0180
0000800080
ENDCHAR
STARTCHAR 00A5
ENCODING 165
SWIDTH 486 0
DWIDTH 27 0
BBX 29 40 1 0
BITMAP
0C000000
0C000018
04000030
06000020
06000060
020000C0
03000180
03000100
01000300
01800600
00800400
00800C00
00C01800
00401000
00402000
00606000
0020C000
00308000
00318000
00130000
001A0000
000C0000
3FFFFF00
00080000
00080000
00080000
00180000
00180000
00100000
00100000
FFFFFC00
00300000
00300000
00300000
00200000
00200000
00200000
00600000
00600000
00600000
ENDCHAR
STARTCHAR 00A6
ENCODING 166
SWIDTH 180 0
DWIDTH 10 0
BBX 9 47 1 -7
BITMAP
0180
0180
0180
0100
0100
0100
0300
0300
0300
0200
0200
0200
0600
0600
0600
0400
0400
0400
0C00
0C00
0C00
0000
0000
0000
0000
0000
0000
1000
1000
3000
3000
3000
2000
2000
2000
6000
6000
6000
4000
4000
4000
C000
C000
C000
8000
8000
8000
ENDCHAR
STARTCHAR 00A7
ENCODING 167
SWIDTH 576 0
DWIDTH 32 0
BBX 30 53 0 -13
BITMAP
0000FF00
0007E7C0
001C0070
00300038
00600018
00C0000C
0080000C
01800004
01800004
01000004
01000004
01000004
01000000
01800000
00C00000
00600000
00300000
000E0000
007BC000
01807800
06000F00
0C000180
080000C0
18000060
18000030
10000030
10000010
10000010
18000030
08000030
0C000020
06000060
03C000C0
00F00380
001F3C00
0003C000
00007000
00001C00
00000600
00000300
00000300
00000100
80000100
80000100
80000100
80000300
C0000200
C0000600
60000C00
70001800
38007000
0E01E000
03FF8000
ENDCHAR
STARTCHAR 00A8
ENCODING 168
SWIDTH 414 0
DWIDTH 23 0
BBX 15 3 8 37
BITMAP
600C
E00E
C00C
ENDCHAR
STARTCHAR 00A9
ENCODING 169
SWIDTH 774 0
DWIDTH 43 0
BBX 37 41 4 -1
BITMAP
00007FC000
0003FBF000
000E001C00
0038000600
0070000380
00C0000180
01800000C0
0300000060
0600000020
0C00FF0030
1801C38010
180300C018
3006004018
300C004008
6018006008
6018006008
4010006008
C030000008
C030000008
8020000008
8020000008
8020000018
8020000018
802000C010
8020008030
8020008030
8020018020
C030030060
C018020040
401C0E00C0
600FF80180
6001E00300
3000000700
3000000600
1800001C00
0C00003800
0600006000
038001C000
00E00F0000
003FFC0000
0001000000
ENDCHAR
STARTCHAR 00AA
ENCODING 170
SWIDTH 414 0
DWIDTH 23 0
BBX 16 21 6 19
BITMAP
01F8
07BC
1C06
1002
3003
2003
0003
0003
0002
01FE
0FFE
3806
6006
C006
C004
8004
800C
801C
C03C
71CC
3F8C
ENDCHAR
STARTCHAR 00AB
ENCODING 171
SWIDTH 432 0
DWIDTH 24 0
BBX 19 20 3 4
BITMAP
006060
00C0C0
018180
030300
060600
0C0C00
181800
383000
706000
E0C000
60C000
606000
306000
383000
181800
0C1800
0C0C00
060C00
020600
030300
ENDCHAR
STARTCHAR 00AC
ENCODING 172
SWIDTH 504 0
DWIDTH 28 0
BBX 21 9 4 11
BITMAP
FFFFF8
000010
000010
000010
000030
000030
000030
000020
000020
ENDCHAR
STARTCHAR 00AD
ENCODING 173
SWIDTH 270 0
DWIDTH 15 0
BBX 12 2 2 17
BITMAP
FFF0
FFF0
ENDCHAR
STARTCHAR 00AE
ENCODING 174
SWIDTH 792 0
DWIDTH 44 0
BBX 38 41 3 -1
BITMAP
00003FE000
0001FDF800
0007000E00
001C000300
0030000180
00600000C0
01C0000060
0180000030
0300000030
0601FF8018
0C0101E018
0803002008
180300300C
100300100C
300300300C
2002003004
6002003004
6002006004
400600C004
4006018004
C007FF000C
C007FF000C
C00401800C
C004008008
C00C00C018
C00C00C018
400C00C030
400C008030
6008008060
6008008060
20080080C0
3000000180
1000000300
1800000700
0C00000E00
0600001800
0300007000
01C001E000
00F0078000
003FFE0000
0000800000
ENDCHAR
STARTCHAR 00AF
ENCODING 175
SWIDTH 378 0
DWIDTH 21 0
BBX 15 1 7 38
BITMAP
FFFE
ENDCHAR
STARTCHAR 00B0
ENCODING 176
SWIDTH 360 0
DWIDTH 20 0
BBX 13 13 7 27
BITMAP
07C0
1EE0
3030
6010
4010
C018
C010
8010
C030
C060
60C0
3F80
1E00
ENDCHAR
STARTCHAR 00B1
ENCODING 177
SWIDTH 504 0
DWIDTH 28 0
BBX 26 34 1 0
BITMAP
00018000
00018000
00010000
00010000
00010000
00030000
00030000
00030000
00020000
00020000
00020000
00020000
3FFFFFC0
3FFFFFC0
00060000
00040000
00040000
00040000
000C0000
000C0000
000C0000
00080000
00080000
00080000
00180000
00180000
00000000
00000000
00000000
00000000
00000000
00000000
00000000
FFFFFC00
ENDCHAR
STARTCHAR 00B2
ENCODING 178
SWIDTH 342 0
DWIDTH 19 0
BBX 16 22 3 18
BITMAP
00F0
03FC
0606
0803
1801
1001
3003
0003
0002
0004
000C
0018
0030
00E0
0180
0300
0600
0C00
1800
3000
4000
FFFE
ENDCHAR
STARTCHAR 00B3
ENCODING 179
SWIDTH 342 0
DWIDTH 19 0
BBX 16 22 3 18
BITMAP
0070
03FE
0603
0C01
1801
1001
0001
0003
0002
000C
03F8
03F0
000C
0006
0002
0002
C002
C006
4004
600C
3838
1FE0
ENDCHAR
STARTCHAR 00B4
ENCODING 180
SWIDTH 234 0
DWIDTH 13 0
BBX 8 8 6 34
BITMAP
03
06
0C
08
10
30
60
C0
ENDCHAR
STARTCHAR 00B5
ENCODING 181
SWIDTH 522 0
DWIDTH 29 0
BBX 27 40 0 -11
BITMAP
01000020
03000020
03000060
02000060
02000060
02000040
02000040
06000040
060000C0
040000C0
04000080
04000080
04000080
0C000180
0C000180
08000180
08000100
08000100
18000300
18000300
18000300
18000700
18000600
18000E00
3C001A00
3C003600
36006600
2301C600
21FF0400
20100000
60000000
60000000
60000000
40000000
40000000
40000000
C0000000
C0000000
80000000
80000000
ENDCHAR
STARTCHAR 00B6
ENCODING 182
SWIDTH 432 0
DWIDTH 24 0
BBX 20 40 4 0
BITMAP
0001F0
003FF0
00FFF0
03FFF0
07FFF0
0FFFE0
1FFFE0
3FFFE0
3FFFE0
7FFFE0
7FFFE0
7FFFC0
7FFFC0
FFFFC0
FFFFC0
FFFFC0
FFFFC0
FFFF80
7FFF80
7FFF80
7FFF80
3FFF80
1FFF80
0FFF00
07FF00
00FF00
000300
000300
000300
000200
000200
000600
000600
000600
000400
000400
000400
000C00
000C00
000C00
ENDCHAR
STARTCHAR 00B7
ENCODING 183
SWIDTH 216 0
DWIDTH 12 0
BBX 3 3 5 18
BITMAP
40
E0
E0
ENDCHAR
STARTCHAR 00B8
ENCODING 184
SWIDTH 216 0
DWIDTH 12 0
BBX 9 12 -3 -12
BITMAP
0800
0800
1E00
0F00
0180
0180
0180
0180
0300
0600
FC00
E000
ENDCHAR
STARTCHAR 00B9
ENCODING 185
SWIDTH 342 0
DWIDTH 19 0
BBX 8 21 7 18
BITMAP
07
3F
E3
03
03
02
02
02
06
06
06
04
04
04
0C
0C
0C
08
08
08
18
ENDCHAR
STARTCHAR 00BA
ENCODING 186
SWIDTH 432 0
DWIDTH 24 0
BBX 17 21 6 19
BITMAP
01F800
07BC00
0C0600
180300
300100
200100
600180
400180
C00180
C00100
C00100
800100
800300
800300
800200
800600
C00400
C00C00
601800
307000
1FC000
ENDCHAR
STARTCHAR 00BB
ENCODING 187
SWIDTH 414 0
DWIDTH 23 0
BBX 18 21 2 5
BITMAP
181000
081800
0C0C00
040C00
060600
030600
030300
018100
018180
00C0C0
0060C0
00E0C0
01C180
018300
030600
060C00
0C1C00
183800
303000
606000
C1C000
ENDCHAR
STARTCHAR 00BC
ENCODING 188
SWIDTH 684 0
DWIDTH 38 0
BBX 27 39 7 0
BITMAP
07800000
3F000000
F1000000
01000000
03000180
03000300
03000200
02000600
02000C00
02001800
06003000
06003000
06006000
0400C000
04018000
04010000
0C030000
0C060000
0C0C00C0
081801C0
081803C0
003006C0
00600C80
00C01880
00803080
01806180
0300C180
06008100
0C010100
0C020100
18060300
300C0300
601FFFE0
40000200
C0000200
00000200
00000600
00000600
00000600
ENDCHAR
STARTCHAR 00BD
ENCODING 189
SWIDTH 702 0
DWIDTH 39 0
BBX 29 39 6 0
BITMAP
03800000
1F800000
71800000
01000000
01000180
01000300
03000600
03000600
03000C00
02001800
02003000
02002000
06006000
0600C000
06018000
04030000
04030000
040603C0
0C0C1FF0
0C183018
0C106008
0030C008
00608008
00C08008
01800018
01800018
03000030
06000060
0C0000C0
08000180
18000300
30000600
60000C00
C0003000
80006000
0000C000
00018000
00030000
0003FFF0
ENDCHAR
STARTCHAR 00BE
ENCODING 190
SWIDTH 756 0
DWIDTH 42 0
BBX 34 40 4 0
BITMAP
0078000000
03FE000000
0603000000
0C01000000
1801800000
1001800300
0001000300
0003000600
0003000C00
000E001800
01F8001000
03F8003000
000C006000
000600C000
0002018000
0002010000
C002030000
4006060000
40040C0000
600C080380
3838180780
0FE0300500
0000600900
0000C01900
0000803300
0001806300
000300C200
0006018200
000C030200
000C060600
00180C0600
0030080600
0060100400
00403FFFC0
00C0000400
0180000C00
0000000C00
0000000C00
0000000800
0000000800
ENDCHAR
STARTCHAR 00BF
ENCODING 191
SWIDTH 432 0
DWIDTH 24 0
BBX 18 40 0 -10
BITMAP
000300
000700
000700
000000
000000
000000
000000
000000
000000
000000
000000
000C00
000C00
000800
000800
001800
003000
006000
00C000
018000
030000
060000
0C0000
180000
300000
200000
600000
400000
C00000
C00000
800000
800040
8000C0
8000C0
800180
C00180
400300
600600
383C00
0FF000
ENDCHAR
STARTCHAR 00C0
ENCODING 192
SWIDTH 576 0
DWIDTH 32 0
BBX 30 50 -2 0
BITMAP
00001000
00001800
00000C00
00000C00
00000600
00000200
00000300
00000000
00000000
00000000
00000200
00000600
00000E00
00000B00
00001B00
00001300
00003100
00006100
00006100
0000C180
00008180
00018080
00010080
00030080
000200C0
000600C0
00040040
000C0040
00080040
00180060
00300060
00300060
00600020
00400020
00C00030
00800030
01800030
01FFFFF0
03000010
02000018
06000018
04000018
0C000008
08000008
18000008
3000000C
3000000C
6000000C
40000004
C0000004
ENDCHAR
STARTCHAR 00C1
ENCODING 193
SWIDTH 576 0
DWIDTH 32 0
BBX 30 50 -2 0
BITMAP
00000018
00000030
00000060
00000040
00000080
00000180
00000300
00000000
00000000
00000000
00000200
00000600
00000E00
00000B00
00001B00
00001300
00003100
00006100
00006100
0000C180
00008180
00018080
00010080
00030080
000200C0
000600C0
00040040
000C0040
00080040
00180060
00300060
00300060
00600020
00400020
00C00030
00800030
01800030
01FFFFF0
03000010
02000018
06000018
04000018
0C000008
08000008
18000008
3000000C
3000000C
6000000C
40000004
C0000004
ENDCHAR
STARTCHAR 00C2
ENCODING 194
SWIDTH 576 0
DWIDTH 32 0
BBX 30 50 -2 0
BITMAP
00000180
00000380
000006C0
00000C60
00001830
00007018
0000E018
00000000
00000000
00000000
00000200
00000600
00000E00
00000B00
00001B00
00001300
00003100
00006100
00006100
0000C180
00008180
00018080
00010080
00030080
000200C0
000600C0
00040040
000C0040
00080040
00180060
00300060
00300060
00600020
00400020
00C00030
00800030
01800030
01FFFFF0
03000010
02000018
06000018
04000018
0C000008
08000008
18000008
3000000C
3000000C
6000000C
40000004
C0000004
ENDCHAR
STARTCHAR 00C3
ENCODING 195
SWIDTH 576 0
DWIDTH 32 0
BBX 32 49 -2 0
BITMAP
00003801
00007E03
0000C306
000180DE
00010078
00000000
00000000
00000000
00000000
00000200
00000600
00000E00
00000B00
00001B00
00001300
00003100
00006100
00006100
0000C180
00008180
00018080
00010080
00030080
000200C0
000600C0
00040040
000C0040
00080040
00180060
00300060
00300060
00600020
00400020
00C00030
00800030
01800030
01FFFFF0
03000010
02000018
06000018
04000018
0C000008
08000008
18000008
3000000C
3000000C
6000000C
40000004
C0000004
ENDCHAR
STARTCHAR 00C4
ENCODING 196
SWIDTH 576 0
DWIDTH 32 0
BBX 31 49 -2 0
BITMAP
00004004
0000E00E
0000E00C
00000000
00000000
00000000
00000000
00000000
00000000
00000200
00000600
00000E00
00000B00
00001B00
00001300
00003100
00006100
00006100
0000C180
00008180
00018080
00010080
00030080
000200C0
000600C0
00040040
000C0040
00080040
00180060
00300060
00300060
00600020
00400020
00C00030
00800030
01800030
01FFFFF0
03000010
02000018
06000018
04000018
0C000008
08000008
18000008
3000000C
3000000C
6000000C
40000004
C0000004
ENDCHAR
STARTCHAR 00C5
ENCODING 197
SWIDTH 576 0
DWIDTH 32 0
BBX 30 51 -2 0
BITMAP
000003C0
000007E0
00000C30
00001830
00001030
00001030
00001020
000018E0
00000FC0
00000000
00000000
00000200
00000600
00000E00
00000B00
00001B00
00001300
00003100
00006100
00006100
0000C180
00008180
00018080
00010080
00030080
000200C0
000600C0
00040040
000C0040
00080040
00180060
00300060
00300060
00600020
00400020
00C00030
00800030
01800030
01FFFFF0
03000010
02000018
06000018
04000018
0C000008
08000008
18000008
3000000C
3000000C
6000000C
40000004
C0000004
ENDCHAR
STARTCHAR 00C6
ENCODING 198
SWIDTH 846 0
DWIDTH 47 0
BBX 50 40 -1 0
BITMAP
00000003FFFFC0
00000007FFFFC0
0000000E000000
0000001A000000
00000032000000
00000026000000
00000066000000
000000C6000000
00000186000000
00000104000000
00000304000000
00000604000000
00000C04000000
0000080C000000
0000180C000000
0000300C000000
00006008000000
00004008000000
0000C008000000
0001800FFFF800
00030018000000
00020018000000
00060018000000
000C0018000000
00180010000000
00300010000000
00300010000000
007FFFF0000000
00C00030000000
01800030000000
01800030000000
03000030000000
06000020000000
0C000020000000
08000020000000
18000060000000
30000060000000
60000060000000
40000060000000
C000007FFFF800
ENDCHAR
STARTCHAR 00C7
ENCODING 199
SWIDTH 612 0
DWIDTH 34 0
BBX 29 52 4 -12
BITMAP
0003FC00
001FBF00
007001C0
00E000E0
01800020
03000030
06000010
04000018
0C000018
08000008
18000008
10000008
30000008
20000000
20000000
60000000
60000000
40000000
40000000
40000000
C0000000
C0000000
80000000
80000000
80000000
80000000
80000000
80000000
80000040
80000040
800000C0
C0000080
C0000180
40000300
60000200
20000600
30001C00
18003000
0E01E000
03FF8000
00700000
00200000
00700000
007C0000
00060000
00060000
00020000
00060000
00040000
001C0000
00F80000
01C00000
ENDCHAR
STARTCHAR 00C8
ENCODING 200
SWIDTH 540 0
DWIDTH 30 0
BBX 30 50 3 0
BITMAP
00030000
00010000
00018000
00008000
0000C000
00004000
00006000
00000000
00000000
00000000
03FFFFFC
03FFFFF8
02000000
02000000
02000000
06000000
06000000
06000000
04000000
04000000
04000000
0C000000
0C000000
08000000
08000000
08000000
18000000
18000000
18000000
1FFFFF00
10000000
10000000
30000000
30000000
30000000
20000000
20000000
20000000
60000000
60000000
60000000
40000000
40000000
40000000
C0000000
C0000000
C0000000
80000000
80000000
FFFFFE00
ENDCHAR
STARTCHAR 00C9
ENCODING 201
SWIDTH 540 0
DWIDTH 30 0
BBX 30 50 3 0
BITMAP
00000300
00000600
00000400
00000800
00001800
00003000
00006000
00000000
00000000
00000000
03FFFFFC
03FFFFF8
02000000
02000000
02000000
06000000
06000000
06000000
04000000
04000000
04000000
0C000000
0C000000
08000000
08000000
08000000
18000000
18000000
18000000
1FFFFF00
10000000
10000000
30000000
30000000
30000000
20000000
20000000
20000000
60000000
60000000
60000000
40000000
40000000
40000000
C0000000
C0000000
C0000000
80000000
80000000
FFFFFE00
ENDCHAR
STARTCHAR 00CA
ENCODING 202
SWIDTH 540 0
DWIDTH 30 0
BBX 30 50 3 0
BITMAP
00003000
00007800
0000D800
00018C00
00030600
00060300
000C0300
00000000
00000000
00000000
03FFFFFC
03FFFFF8
02000000
02000000
02000000
06000000
06000000
06000000
04000000
04000000
04000000
0C000000
0C000000
08000000
08000000
08000000
18000000
18000000
18000000
1FFFFF00
10000000
10000000
30000000
30000000
30000000
20000000
20000000
20000000
60000000
60000000
60000000
40000000
40000000
40000000
C0000000
C0000000
C0000000
80000000
80000000
FFFFFE00
ENDCHAR
STARTCHAR 00CB
ENCODING 203
SWIDTH 540 0
DWIDTH 30 0
BBX 30 49 3 0
BITMAP
000C0080
001C01C0
001C01C0
00000000
00000000
00000000
00000000
00000000
00000000
03FFFFFC
03FFFFF8
02000000
02000000
02000000
06000000
06000000
06000000
04000000
04000000
04000000
0C000000
0C000000
08000000
08000000
08000000
18000000
18000000
18000000
1FFFFF00
10000000
10000000
30000000
30000000
30000000
20000000
20000000
20000000
60000000
60000000
60000000
40000000
40000000
40000000
C0000000
C0000000
C0000000
80000000
80000000
FFFFFE00
ENDCHAR
STARTCHAR 00CC
ENCODING 204
SWIDTH 252 0
DWIDTH 14 0
BBX 9 50 4 0
BITMAP
0800
0C00
0600
0600
0300
0100
0180
0000
0000
0000
0300
0300
0200
0200
0200
0600
0600
0600
0400
0400
0400
0C00
0C00
0C00
0800
0800
0800
1800
1800
1800
1000
1000
1000
3000
3000
2000
2000
2000
6000
6000
6000
4000
4000
4000
C000
C000
C000
8000
8000
8000
ENDCHAR
STARTCHAR 00CD
ENCODING 205
SWIDTH 252 0
DWIDTH 14 0
BBX 14 50 4 0
BITMAP
000C
0018
0030
0060
0040
00C0
0180
0000
0000
0000
0300
0300
0200
0200
0200
0600
0600
0600
0400
0400
0400
0C00
0C00
0C00
0800
0800
0800
1800
1800
1800
1000
1000
1000
3000
3000
2000
2000
2000
6000
6000
6000
4000
4000
4000
C000
C000
C000
8000
8000
8000
ENDCHAR
STARTCHAR 00CE
ENCODING 206
SWIDTH 252 0
DWIDTH 14 0
BBX 14 50 4 0
BITMAP
00C0
01C0
0360
0630
1C18
3818
600C
0000
0000
0000
0300
0300
0200
0200
0200
0600
0600
0600
0400
0400
0400
0C00
0C00
0C00
0800
0800
0800
1800
1800
1800
1000
1000
1000
3000
3000
2000
2000
2000
6000
6000
6000
4000
4000
4000
C000
C000
C000
8000
8000
8000
ENDCHAR
STARTCHAR 00CF
ENCODING 207
SWIDTH 252 0
DWIDTH 14 0
BBX 16 49 4 0
BITMAP
2002
7007
7006
0000
0000
0000
0000
0000
0000
0300
0300
0200
0200
0200
0600
0600
0600
0400
0400
0400
0C00
0C00
0C00
0800
0800
0800
1800
1800
1800
1000
1000
1000
3000
3000
2000
2000
2000
6000
6000
6000
4000
4000
4000
C000
C000
C000
8000
8000
8000
ENDCHAR
STARTCHAR 00D0
ENCODING 208
SWIDTH 648 0
DWIDTH 36 0
BBX 31 40 3 0
BITMAP
01FFC000
01FFFE00
01000780
010000C0
03000060
03000030
03000018
02000008
0200000C
0200000C
06000004
06000006
04000006
04000006
04000006
0C000006
0C000006
0C000006
08000004
FFFF0004
FFFE0004
1800000C
1800000C
1800000C
10000008
10000018
10000018
30000010
30000030
30000020
20000060
200000C0
20000080
60000180
60000300
60000E00
40001800
40007000
401FC000
FFFE0000
ENDCHAR
STARTCHAR 00D1
ENCODING 209
SWIDTH 684 0
DWIDTH 38 0
BBX 34 49 3 0
BITMAP
0000E00400
0001F80C00
00030C1800
0006037800
000401E000
0000000000
0000000000
0000000000
0000000000
03000000C0
03000000C0
03800000C0
0280000080
02C0000080
0640000080
0660000180
0620000180
0430000180
0410000100
0C18000100
0C08000100
0C0C000300
0C04000300
0806000300
0802000200
1803000200
1801000600
1801800600
1800800600
1000C00400
1000400400
3000600400
3000200C00
3000300C00
2000100C00
2000180800
2000080800
60000C0800
60000C1800
6000061800
4000061800
4000031000
4000031000
C000019000
C00001B000
C00000F000
800000F000
8000006000
8000006000
ENDCHAR
STARTCHAR 00D2
ENCODING 210
SWIDTH 630 0
DWIDTH 35 0
BBX 31 52 3 -1
BITMAP
00018000
0000C000
0000C000
00006000
00002000
00003000
00001000
00000000
00000000
00000000
00000000
0001FE00
000FCF80
003C00C0
00700060
00C00030
01800018
03000008
0600000C
06000004
0C000004
08000006
18000006
10000006
10000006
30000006
20000006
20000006
20000006
60000004
60000004
6000000C
4000000C
4000000C
40000008
C0000008
C0000018
C0000018
C0000010
C0000030
C0000030
40000060
40000060
600000C0
60000180
30000100
30000300
18000E00
0C001800
0700F000
01FFC000
00080000
ENDCHAR
STARTCHAR 00D3
ENCODING 211
SWIDTH 630 0
DWIDTH 35 0
BBX 31 52 3 -1
BITMAP
000000C0
00000180
00000300
00000200
00000600
00000C00
00001800
00000000
00000000
00000000
00000000
0001FE00
000FCF80
003C00C0
00700060
00C00030
01800018
03000008
0600000C
06000004
0C000004
08000006
18000006
10000006
10000006
30000006
20000006
20000006
20000006
60000004
60000004
6000000C
4000000C
4000000C
40000008
C0000008
C0000018
C0000018
C0000010
C0000030
C0000030
40000060
40000060
600000C0
60000180
30000100
30000300
18000E00
0C001800
0700F000
01FFC000
00080000
ENDCHAR
STARTCHAR 00D4
ENCODING 212
SWIDTH 630 0
DWIDTH 35 0
BBX 31 51 3 -1
BITMAP
00001C00
00003600
00006600
0000C300
00018180
000300C0
000400C0
00000000
00000000
00000000
0001FE00
000FCF80
003C00C0
00700060
00C00030
01800018
03000008
0600000C
06000004
0C000004
08000006
18000006
10000006
10000006
30000006
20000006
20000006
20000006
60000004
60000004
6000000C
4000000C
4000000C
40000008
C0000008
C0000018
C0000018
C0000010
C0000030
C0000030
40000060
40000060
600000C0
60000180
30000100
30000300
18000E00
0C001800
0700F000
01FFC000
00080000
ENDCHAR
STARTCHAR 00D5
ENCODING 213
SWIDTH 630 0
DWIDTH 35 0
BBX 31 51 3 -1
BITMAP
00000008
0003E018
00063810
000C0C30
000807E0
00000000
00000000
00000000
00000000
00000000
0001FE00
000FCF80
003C00C0
00700060
00C00030
01800018
03000008
0600000C
06000004
0C000004
08000006
18000006
10000006
10000006
30000006
20000006
20000006
20000006
60000004
60000004
6000000C
4000000C
4000000C
40000008
C0000008
C0000018
C0000018
C0000010
C0000030
C0000030
40000060
40000060
600000C0
60000180
30000100
30000300
18000E00
0C001800
0700F000
01FFC000
00080000
ENDCHAR
STARTCHAR 00D6
ENCODING 214
SWIDTH 630 0
DWIDTH 35 0
BBX 31 50 3 -1
BITMAP
00070060
00070070
00020040
00000000
00000000
00000000
00000000
00000000
00000000
0001FE00
000FCF80
003C00C0
00700060
00C00030
01800018
03000008
0600000C
06000004
0C000004
08000006
18000006
10000006
10000006
30000006
20000006
20000006
20000006
60000004
60000004
6000000C
4000000C
4000000C
40000008
C0000008
C0000018
C0000018
C0000010
C0000030
C0000030
40000060
40000060
600000C0
60000180
30000100
30000300
18000E00
0C001800
0700F000
01FFC000
00080000
ENDCHAR
STARTCHAR 00D7
ENCODING 215
SWIDTH 486 0
DWIDTH 27 0
BBX 25 22 0 1
BITMAP
0C000180
06000300
03000600
01000C00
01803800
00C06000
0060C000
00318000
00330000
001E0000
000C0000
001E0000
00730000
00C30000
01818000
0300C000
06006000
0C002000
18003000
30001800
E0000C00
80000400
ENDCHAR
STARTCHAR 00D8
ENCODING 216
SWIDTH 630 0
DWIDTH 35 0
BBX 35 43 2 -2
BITMAP
0000000060
0000FF00C0
0007E7C180
001E006180
0038003300
0060001E00
00C0000C00
0180001C00
0300001E00
0300003200
0600006200
040000C300
0C00008300
0800018300
0800030300
1800060300
10000C0300
1000080300
1000180300
3000300200
3000600200
3000C00600
2000C00600
2001800600
2003000400
6006000400
600C000C00
600C000C00
6018000800
6030001800
6060001800
2040003000
20C0003000
3180006000
330000C000
1E00008000
0C00018000
0C00070000
1E000C0000
3380780000
60FFE00000
6004000000
C000000000
ENDCHAR
STARTCHAR 00D9
ENCODING 217
SWIDTH 630 0
DWIDTH 35 0
BBX 31 51 4 -1
BITMAP
00018000
00008000
0000C000
00004000
00006000
00002000
00003000
00000000
00000000
00000000
04000002
04000006
04000006
0C000006
0C000004
08000004
08000004
0800000C
1800000C
1800000C
18000008
10000008
10000008
10000018
30000018
30000018
30000010
20000010
20000010
20000030
60000030
60000020
60000020
40000020
40000060
40000060
C0000060
C0000040
C0000040
800000C0
C00000C0
C0000080
C0000180
40000300
60000600
60000E00
30001C00
18003800
0E01E000
03FF8000
00180000
ENDCHAR
STARTCHAR 00DA
ENCODING 218
SWIDTH 630 0
DWIDTH 35 0
BBX 31 51 4 -1
BITMAP
00000180
00000300
00000200
00000600
00000C00
00001800
00003000
00000000
00000000
00000000
04000002
04000006
04000006
0C000006
0C000004
08000004
08000004
0800000C
1800000C
1800000C
18000008
10000008
10000008
10000018
30000018
30000018
30000010
20000010
20000010
20000030
60000030
60000020
60000020
40000020
40000060
40000060
C0000060
C0000040
C0000040
800000C0
C00000C0
C0000080
C0000180
40000300
60000600
60000E00
30001C00
18003800
0E01E000
03FF8000
00180000
ENDCHAR
STARTCHAR 00DB
ENCODING 219
SWIDTH 630 0
DWIDTH 35 0
BBX 31 51 4 -1
BITMAP
00001800
00003C00
00006C00
0000C600
00018300
00030180
000601C0
00000000
00000000
00000000
04000002
04000006
04000006
0C000006
0C000004
08000004
08000004
0800000C
1800000C
1800000C
18000008
10000008
10000008
10000018
30000018
30000018
30000010
20000010
20000010
20000030
60000030
60000020
60000020
40000020
40000060
40000060
C0000060
C0000040
C0000040
800000C0
C00000C0
C0000080
C0000180
40000300
60000600
60000E00
30001C00
18003800
0E01E000
03FF8000
00180000
ENDCHAR
STARTCHAR 00DC
ENCODING 220
SWIDTH 630 0
DWIDTH 35 0
BBX 31 50 4 -1
BITMAP
00060040
000E00E0
000E00E0
00000000
00000000
00000000
00000000
00000000
00000000
04000002
04000006
04000006
0C000006
0C000004
08000004
08000004
0800000C
1800000C
1800000C
18000008
10000008
10000008
10000018
30000018
30000018
30000010
20000010
20000010
20000030
60000030
60000020
60000020
40000020
40000060
40000060
C0000060
C0000040
C0000040
800000C0
C00000C0
C0000080
C0000180
40000300
60000600
60000E00
30001C00
18003800
0E01E000
03FF8000
00180000
ENDCHAR
STARTCHAR 00DD
ENCODING 221
SWIDTH 576 0
DWIDTH 32 0
BBX 30 50 5 0
BITMAP
00000C00
00001800
00003000
00002000
00006000
0000C000
00018000
00000000
00000000
00000000
C0000000
C000000C
60000018
60000030
20000060
30000040
300000C0
18000180
18000300
08000200
0C000600
0C000C00
06001800
06001000
02003000
03006000
0100C000
01808000
01818000
00830000
00C60000
00440000
006C0000
00380000
00300000
00200000
00200000
00200000
00600000
00600000
00600000
00400000
00400000
00400000
00C00000
00C00000
00C00000
00800000
00800000
00800000
ENDCHAR
STARTCHAR 00DE
ENCODING 222
SWIDTH 576 0
DWIDTH 32 0
BBX 26 40 3 0
BITMAP
03000000
03000000
02000000
02000000
02000000
06000000
06000000
06000000
04000000
07FFE000
0400FC00
0C000E00
0C000300
08000180
08000080
080000C0
18000040
18000040
18000040
10000040
100000C0
100000C0
30000080
30000180
30000100
20000300
20000600
20001C00
60007800
7FFFE000
7FFF0000
40000000
40000000
40000000
C0000000
C0000000
C0000000
80000000
80000000
80000000
ENDCHAR
STARTCHAR 00DF
ENCODING 223
SWIDTH 558 0
DWIDTH 31 0
BBX 25 43 2 -1
BITMAP
00070000
001FE000
00703800
00C01800
01800C00
01000400
03000400
02000400
06000400
06000C00
04000C00
04001800
04001000
0C003000
0C002000
0C006000
08004000
0800C000
08008000
18008000
18008000
18008000
10008000
10004000
10006000
30003000
30001800
20000C00
20000600
20000300
60000100
60000100
60000180
40000180
40000100
40000100
C0000300
C0000600
C0000C00
82001800
83807000
80FFC000
00040000
ENDCHAR
STARTCHAR 00E0
ENCODING 224
SWIDTH 504 0
DWIDTH 28 0
BBX 24 43 1 -1
BITMAP
000600
000200
000300
000100
000180
000080
0000C0
000040
000000
000000
000000
000000
000FC0
007FF0
01C01C
030004
060006
0C0002
080003
180003
180003
000003
000002
000002
000002
000006
00FFFE
03E006
0E0004
180004
300004
60000C
C0000C
C0000C
800008
800018
800038
800078
C000D8
600398
300E18
1FF818
010000
ENDCHAR
STARTCHAR 00E1
ENCODING 225
SWIDTH 504 0
DWIDTH 28 0
BBX 24 43 1 -1
BITMAP
000003
000006
000004
000008
000018
000030
000060
0000C0
000000
000000
000000
000000
000FC0
007FF0
01C01C
030004
060006
0C0002
080003
180003
180003
000003
000002
000002
000002
000006
00FFFE
03E006
0E0004
180004
300004
60000C
C0000C
C0000C
800008
800018
800038
800078
C000D8
600398
300E18
1FF818
010000
ENDCHAR
STARTCHAR 00E2
ENCODING 226
SWIDTH 504 0
DWIDTH 28 0
BBX 24 42 1 -1
BITMAP
000060
0000F0
000198
00030C
000606
000C06
001803
000000
000000
000000
000000
000FC0
007FF0
01C01C
030004
060006
0C0002
080003
180003
180003
000003
000002
000002
000002
000006
00FFFE
03E006
0E0004
180004
300004
60000C
C0000C
C0000C
800008
800018
800038
800078
C000D8
600398
300E18
1FF818
010000
ENDCHAR
STARTCHAR 00E3
ENCODING 227
SWIDTH 504 0
DWIDTH 28 0
BBX 27 41 1 -1
BITMAP
000F8060
001CC040
003060C0
00201F80
00600E00
00000000
00000000
00000000
00000000
00000000
000FC000
007FF000
01C01C00
03000400
06000600
0C000200
08000300
18000300
18000300
00000300
00000200
00000200
00000200
00000600
00FFFE00
03E00600
0E000400
18000400
30000400
60000C00
C0000C00
C0000C00
80000800
80001800
80003800
80007800
C000D800
60039800
300E1800
1FF81800
01000000
ENDCHAR
STARTCHAR 00E4
ENCODING 228
SWIDTH 504 0
DWIDTH 28 0
BBX 25 41 1 -1
BITMAP
00180180
001C0380
00180180
00000000
00000000
00000000
00000000
00000000
00000000
00000000
000FC000
007FF000
01C01C00
03000400
06000600
0C000200
08000300
18000300
18000300
00000300
00000200
00000200
00000200
00000600
00FFFE00
03E00600
0E000400
18000400
30000400
60000C00
C0000C00
C0000C00
80000800
80001800
80003800
80007800
C000D800
60039800
300E1800
1FF81800
01000000
ENDCHAR
STARTCHAR 00E5
ENCODING 229
SWIDTH 504 0
DWIDTH 28 0
BBX 24 43 1 -1
BITMAP
0000F8
00019C
000304
000204
000604
000604
00020C
000338
0001F0
000000
000000
000000
000FC0
007FF0
01C01C
030004
060006
0C0002
080003
180003
180003
000003
000002
000002
000002
000006
00FFFE
03E006
0E0004
180004
300004
60000C
C0000C
C0000C
800008
800018
800038
800078
C000D8
600398
300E18
1FF818
010000
ENDCHAR
STARTCHAR 00E6
ENCODING 230
SWIDTH 810 0
DWIDTH 45 0
BBX 43 31 1 -1
BITMAP
000FC001F800
007FF007FE00
01C0181C0380
030008300180
06000C6000C0
0C0004C00040
080005800060
180007800060
180007000020
000006000020
000006000020
000006000060
000004000060
00FFFFFFFFE0
03F00C000000
0E000C000000
180008000000
300008000000
600008000000
400018000000
C00018000000
C00018000000
800018000000
80001C000000
800034000000
C00066000000
C000C2000300
600383000E00
380E01C07800
1FFC007FE000
008000040000
ENDCHAR
STARTCHAR 00E7
ENCODING 231
SWIDTH 486 0
DWIDTH 27 0
BBX 23 42 2 -12
BITMAP
001F80
00FFE0
01C038
03000C
06000C
0C0006
180006
100002
300002
200002
600000
600000
400000
400000
C00000
C00000
C00000
800000
800000
800000
800000
C0000C
C00008
400018
400010
600030
300060
1801C0
0C0780
07FE00
004000
004000
00C000
00F800
001C00
000C00
000C00
000C00
000800
003800
01E000
078000
ENDCHAR
STARTCHAR 00E8
ENCODING 232
SWIDTH 486 0
DWIDTH 27 0
BBX 23 43 2 -1
BITMAP
001800
000C00
000C00
000600
000200
000300
000100
000180
000000
000000
000000
000000
001F80
007FE0
01C030
030018
06000C
0C0004
180006
100002
300002
200002
600002
400002
400002
FFFFFE
C00000
800000
800000
800000
800000
800000
800000
C00000
C00000
400000
600000
200010
300030
1800E0
0E0380
03FE00
003000
ENDCHAR
STARTCHAR 00E9
ENCODING 233
SWIDTH 486 0
DWIDTH 27 0
BBX 23 43 2 -1
BITMAP
000006
00000C
000018
000030
000060
0000C0
000080
000100
000000
000000
000000
000000
001F80
007FE0
01C030
030018
06000C
0C0004
180006
100002
300002
200002
600002
400002
400002
FFFFFE
C00000
800000
800000
800000
800000
800000
800000
C00000
C00000
400000
600000
200010
300030
1800E0
0E0380
03FE00
003000
ENDCHAR
STARTCHAR 00EA
ENCODING 234
SWIDTH 486 0
DWIDTH 27 0
BBX 23 42 2 -1
BITMAP
0000C0
0003E0
000760
000E30
001818
00300C
00600E
000000
000000
000000
000000
001F80
007FE0
01C030
030018
06000C
0C0004
180006
100002
300002
200002
600002
400002
400002
FFFFFE
C00000
800000
800000
800000
800000
800000
800000
C00000
C00000
400000
600000
200010
300030
1800E0
0E0380
03FE00
003000
ENDCHAR
STARTCHAR 00EB
ENCODING 235
SWIDTH 486 0
DWIDTH 27 0
BBX 24 41 2 -1
BITMAP
003006
007007
007006
000000
000000
000000
000000
000000
000000
000000
001F80
007FE0
01C030
030018
06000C
0C0004
180006
100002
300002
200002
600002
400002
400002
FFFFFE
C00000
800000
800000
800000
800000
800000
800000
C00000
C00000
400000
600000
200010
300030
1800E0
0E0380
03FE00
003000
ENDCHAR
STARTCHAR 00EC
ENCODING 236
SWIDTH 180 0
DWIDTH 10 0
BBX 7 41 2 0
BITMAP
30
18
08
0C
04
06
02
00
00
00
00
00
04
04
04
0C
0C
08
08
08
18
18
18
10
10
10
30
30
30
20
20
20
60
60
60
40
40
40
C0
C0
C0
ENDCHAR
STARTCHAR 00ED
ENCODING 237
SWIDTH 180 0
DWIDTH 10 0
BBX 13 41 2 0
BITMAP
0018
0030
0060
0040
0080
0180
0300
0000
0000
0000
0000
0000
0400
0400
0400
0C00
0C00
0800
0800
0800
1800
1800
1800
1000
1000
1000
3000
3000
3000
2000
2000
2000
6000
6000
6000
4000
4000
4000
C000
C000
C000
ENDCHAR
STARTCHAR 00EE
ENCODING 238
SWIDTH 180 0
DWIDTH 10 0
BBX 13 41 2 0
BITMAP
0100
0380
06C0
0C60
1860
3030
E018
0000
0000
0000
0000
0000
0400
0400
0400
0C00
0C00
0800
0800
0800
1800
1800
1800
1000
1000
1000
3000
3000
3000
2000
2000
2000
6000
6000
6000
4000
4000
4000
C000
C000
C000
ENDCHAR
STARTCHAR 00EF
ENCODING 239
SWIDTH 180 0
DWIDTH 10 0
BBX 15 39 2 0
BITMAP
E00E
E00C
0000
0000
0000
0000
0000
0000
0000
0000
0400
0400
0400
0C00
0C00
0800
0800
0800
1800
1800
1800
1000
1000
1000
3000
3000
3000
2000
2000
2000
6000
6000
6000
4000
4000
4000
C000
C000
C000
ENDCHAR
STARTCHAR 00F0
ENCODING 240
SWIDTH 558 0
DWIDTH 31 0
BBX 26 44 4 -1
BITMAP
00200000
00780000
001C0000
00070000
000181C0
0000C700
00007E00
00007800
0001F800
00039800
000E0C00
00080400
00000600
00000600
00000200
00000200
00000300
003F0300
00FFE300
03807300
06001900
0C000F00
18000700
30000300
30000300
60000300
60000200
40000200
C0000200
C0000600
80000600
80000400
80000C00
80000C00
80000800
C0001800
C0001000
40003000
60006000
3000C000
18018000
0E070000
07FC0000
00C00000
ENDCHAR
STARTCHAR 00F1
ENCODING 241
SWIDTH 522 0
DWIDTH 29 0
BBX 26 40 2 0
BITMAP
001F00C0
003B8080
0060C180
00403F00
00C01C00
00000000
00000000
00000000
00000000
00000000
0007E000
041FF800
0C700C00
0CC00600
0D800200
0B000300
0A000300
0C000300
1C000300
18000300
18000300
10000300
10000200
10000200
30000200
30000600
30000600
20000600
20000400
20000400
60000C00
60000C00
40000C00
40000800
40000800
C0000800
C0001800
C0001800
80001800
80001000
ENDCHAR
STARTCHAR 00F2
ENCODING 242
SWIDTH 522 0
DWIDTH 29 0
BBX 25 43 2 -1
BITMAP
00180000
000C0000
000C0000
00060000
00020000
00030000
00010000
00018000
00000000
00000000
00000000
00000000
000FC000
007FF000
01C01C00
03800E00
06000600
0C000300
18000100
18000180
30000180
20000080
60000080
60000080
40000080
C0000080
C0000080
C0000080
80000180
80000180
80000100
80000300
80000300
C0000200
C0000600
40000C00
60000800
20001800
30003000
1800E000
0E038000
03FF0000
00200000
ENDCHAR
STARTCHAR 00F3
ENCODING 243
SWIDTH 522 0
DWIDTH 29 0
BBX 25 43 2 -1
BITMAP
00000600
00000C00
00001800
00003000
00006000
0000C000
00008000
00010000
00000000
00000000
00000000
00000000
000FC000
007FF000
01C01C00
03800E00
06000600
0C000300
18000100
18000180
30000180
20000080
60000080
60000080
40000080
C0000080
C0000080
C0000080
80000180
80000180
80000100
80000300
80000300
C0000200
C0000600
40000C00
60000800
20001800
30003000
1800E000
0E038000
03FF0000
00200000
ENDCHAR
STARTCHAR 00F4
ENCODING 244
SWIDTH 522 0
DWIDTH 29 0
BBX 25 42 2 -1
BITMAP
0000C000
0001E000
00076000
000E3000
00181800
00300C00
00600C00
00000000
00000000
00000000
00000000
000FC000
007FF000
01C01C00
03800E00
06000600
0C000300
18000100
18000180
30000180
20000080
60000080
60000080
40000080
C0000080
C0000080
C0000080
80000180
80000180
80000100
80000300
80000300
C0000200
C0000600
40000C00
60000800
20001800
30003000
1800E000
0E038000
03FF0000
00200000
ENDCHAR
STARTCHAR 00F5
ENCODING 245
SWIDTH 522 0
DWIDTH 29 0
BBX 25 41 2 -1
BITMAP
001E0080
007B0180
0040C300
00C07E00
00801C00
00000000
00000000
00000000
00000000
00000000
000FC000
007FF000
01C01C00
03800E00
06000600
0C000300
18000100
18000180
30000180
20000080
60000080
60000080
40000080
C0000080
C0000080
C0000080
80000180
80000180
80000100
80000300
80000300
C0000200
C0000600
40000C00
60000800
20001800
30003000
1800E000
0E038000
03FF0000
00200000
ENDCHAR
STARTCHAR 00F6
ENCODING 246
SWIDTH 522 0
DWIDTH 29 0
BBX 25 41 2 -1
BITMAP
00300600
00700700
00700600
00000000
00000000
00000000
00000000
00000000
00000000
00000000
000FC000
007FF000
01C01C00
03800E00
06000600
0C000300
18000100
18000180
30000180
20000080
60000080
60000080
40000080
C0000080
C0000080
C0000080
80000180
80000180
80000100
80000300
80000300
C0000200
C0000600
40000C00
60000800
20001800
30003000
1800E000
0E038000
03FF0000
00200000
ENDCHAR
STARTCHAR 00F7
ENCODING 247
SWIDTH 540 0
DWIDTH 30 0
BBX 27 24 2 7
BITMAP
00018000
00038000
00038000
00000000
00000000
00000000
00000000
00000000
00000000
00000000
00000000
FFFFFFE0
00000000
00000000
00000000
00000000
00000000
00000000
00000000
00000000
00000000
00180000
00180000
00380000
ENDCHAR
STARTCHAR 00F8
ENCODING 248
SWIDTH 522 0
DWIDTH 29 0
BBX 25 37 2 -4
BITMAP
00000180
00000100
00000300
000FC600
007FF600
01C01C00
03801E00
06001E00
0C003300
18002100
18006180
3000C180
20008080
60018080
60030080
40020080
C0060080
C00C0080
80080180
80180180
80300180
80300100
80600300
80400200
80C00600
C1800600
C1000C00
43001800
66003800
34007000
1C00C000
1E038000
17FE0000
30000000
60000000
60000000
C0000000
ENDCHAR
STARTCHAR 00F9
ENCODING 249
SWIDTH 522 0
DWIDTH 29 0
BBX 24 43 3 -1
BITMAP
001800
000800
000C00
000400
000600
000200
000300
000180
000000
000000
000000
000000
000000
180001
180003
180003
100003
100003
100002
300002
300006
300006
200006
200004
200004
600004
60000C
60000C
40000C
400008
400008
C00008
C00018
C00018
C00018
C00030
C00070
400050
6001F0
3003B0
380E30
0FF820
008000
ENDCHAR
STARTCHAR 00FA
ENCODING 250
SWIDTH 522 0
DWIDTH 29 0
BBX 24 43 3 -1
BITMAP
00000C
000018
000010
000030
000060
0000C0
000180
000100
000000
000000
000000
000000
000000
180001
180003
180003
100003
100003
100002
300002
300006
300006
200006
200004
200004
600004
60000C
60000C
40000C
400008
400008
C00008
C00018
C00018
C00018
C00030
C00070
400050
6001F0
3003B0
380E30
0FF820
008000
ENDCHAR
STARTCHAR 00FB
ENCODING 251
SWIDTH 522 0
DWIDTH 29 0
BBX 24 42 3 -1
BITMAP
0001C0
0003C0
000660
000C30
001818
003018
00600C
000000
000000
000000
000000
000000
180001
180003
180003
100003
100003
100002
300002
300006
300006
200006
200004
200004
600004
60000C
60000C
40000C
400008
400008
C00008
C00018
C00018
C00018
C00030
C00070
400050
6001F0
3003B0
380E30
0FF820
008000
ENDCHAR
STARTCHAR 00FC
ENCODING 252
SWIDTH 522 0
DWIDTH 29 0
BBX 24 41 3 -1
BITMAP
006006
00700E
006006
000000
000000
000000
000000
000000
000000
000000
000000
180001
180003
180003
100003
100003
100002
300002
300006
300006
200006
200004
200004
600004
60000C
60000C
40000C
400008
400008
C00008
C00018
C00018
C00018
C00030
C00070
400050
6001F0
3003B0
380E30
0FF820
008000
ENDCHAR
STARTCHAR 00FD
ENCODING 253
SWIDTH 450 0
DWIDTH 25 0
BBX 29 54 -2 -12
BITMAP
000000C0
00000180
00000300
00000600
00000C00
00001800
00001000
00002000
00000000
00000000
00000000
00000000
00000000
02000018
02000030
03000030
03000060
03000060
010000C0
01000080
01800180
01800100
00800300
00800200
00C00600
00C00C00
00C00C00
00401800
00401800
00603000
00602000
00606000
00204000
0020C000
00308000
00318000
00130000
00130000
001E0000
001E0000
001C0000
000C0000
00180000
00100000
00300000
00200000
00600000
00400000
00C00000
01800000
03000000
06000000
FC000000
F0000000
ENDCHAR
STARTCHAR 00FE
ENCODING 254
SWIDTH 522 0
DWIDTH 29 0
BBX 26 53 0 -11
BITMAP
00400000
00400000
00C00000
00C00000
00C00000
00800000
00800000
00800000
01800000
01800000
01800000
01000000
0101F800
010FFE00
03380300
03600180
03C00180
038000C0
030000C0
02000040
06000040
06000040
04000040
04000040
04000040
0C000040
0C000040
0C000040
080000C0
080000C0
08000080
18000180
18000180
18000100
10000300
10000200
18000600
38000C00
3C001800
36003000
2380E000
20FF8000
20180000
60000000
60000000
60000000
40000000
40000000
40000000
C0000000
C0000000
80000000
80000000
ENDCHAR
STARTCHAR 00FF
ENCODING 255
SWIDTH 450 0
DWIDTH 25 0
BBX 29 52 -2 -12
BITMAP
000600E0
000E00E0
000600C0
00000000
00000000
00000000
00000000
00000000
00000000
00000000
00000000
02000018
02000030
03000030
03000060
03000060
010000C0
01000080
01800180
01800100
00800300
00800200
00C00600
00C00C00
00C00C00
00401800
00401800
00603000
00602000
00606000
00204000
0020C000
00308000
00318000
00130000
00130000
001E0000
001E0000
001C0000
000C0000
00180000
00100000
00300000
00200000
00600000
00400000
00C00000
01800000
03000000
06000000
FC000000
F0000000
ENDCHAR
STARTCHAR 0100
ENCODING 256
SWIDTH 576 0
DWIDTH 32 0
BBX 31 48 -2 0
BITMAP
0000FFFE
0000FFFE
00000000
00000000
00000000
00000000
00000000
00000000
00000200
00000600
00000E00
00000B00
00001B00
00001300
00003100
00006100
00006100
0000C180
00008180
00018080
00010080
00030080
000200C0
000600C0
00040040
000C0040
00080040
00180060
00300060
00300060
00600020
00400020
00C00030
00800030
01800030
01FFFFF0
03000010
02000018
06000018
04000018
0C000008
08000008
18000008
3000000C
3000000C
6000000C
40000004
C0000004
ENDCHAR
STARTCHAR 0101
ENCODING 257
SWIDTH 504 0
DWIDTH 28 0
BBX 26 40 1 -1
BITMAP
001FFFC0
00000000
00000000
00000000
00000000
00000000
00000000
00000000
00000000
000FC000
007FF000
01C01C00
03000400
06000600
0C000200
08000300
18000300
18000300
00000300
00000200
00000200
00000200
00000600
00FFFE00
03E00600
0E000400
18000400
30000400
60000C00
C0000C00
C0000C00
80000800
80001800
80003800
80007800
C000D800
60039800
300E1800
1FF81800
01000000
ENDCHAR
STARTCHAR 0102
ENCODING 258
SWIDTH 576 0
DWIDTH 32 0
BBX 31 49 -2 0
BITMAP
0000C006
0000C006
0000C00C
00006018
00003030
00001FE0
00000300
00000000
00000000
00000200
00000600
00000E00
00000B00
00001B00
00001300
00003100
00006100
00006100
0000C180
00008180
00018080
00010080
00030080
000200C0
000600C0
00040040
000C0040
00080040
00180060
00300060
00300060
00600020
00400020
00C00030
00800030
01800030
01FFFFF0
03000010
02000018
06000018
04000018
0C000008
08000008
18000008
3000000C
3000000C
6000000C
40000004
C0000004
ENDCHAR
STARTCHAR 0103
ENCODING 259
SWIDTH 504 0
DWIDTH 28 0
BBX 25 41 1 -1
BITMAP
00100080
00100180
00180100
00080300
000E1E00
0003F800
00000000
00000000
00000000
00000000
000FC000
007FF000
01C01C00
03000400
06000600
0C000200
08000300
18000300
18000300
00000300
00000200
00000200
00000200
00000600
00FFFE00
03E00600
0E000400
18000400
30000400
60000C00
C0000C00
C0000C00
80000800
80001800
80003800
80007800
C000D800
60039800
300E1800
1FF81800
01000000
ENDCHAR
STARTCHAR 0104
ENCODING 260
SWIDTH 576 0
DWIDTH 32 0
BBX 30 51 -2 -11
BITMAP
00000200
00000600
00000E00
00000B00
00001B00
00001300
00003100
00006100
00006100
0000C180
00008180
00018080
00010080
00030080
000200C0
000600C0
00040040
000C0040
00080040
00180060
00300060
00300060
00600020
00400020
00C00030
00800030
01800030
01FFFFF0
03000010
02000018
06000018
04000018
0C000008
08000008
18000008
3000000C
3000000C
6000000C
40000004
C0000004
0000000C
00000018
00000060
00000040
00000080
00000180
00000180
00000100
00000184
000000FC
00000070
ENDCHAR
STARTCHAR 0105
ENCODING 261
SWIDTH 504 0
DWIDTH 28 0
BBX 24 41 1 -11
BITMAP
000FC0
007FF0
01C01C
030004
060006
0C0002
080003
180003
180003
000003
000002
000002
000002
000006
00FFFE
03E006
0E0004
180004
300004
60000C
C0000C
C0000C
800008
800018
800038
800078
C000D8
600398
300E18
1FF818
010030
000060
0000C0
000100
000300
000200
000600
000600
000610
0003F0
0001C0
ENDCHAR
STARTCHAR 0106
ENCODING 262
SWIDTH 612 0
DWIDTH 34 0
BBX 29 52 4 -1
BITMAP
00000180
00000300
00000200
00000600
00000C00
00001800
00003000
00000000
00000000
00000000
00000000
0003FC00
001FBF00
007001C0
00E000E0
01800020
03000030
06000010
04000018
0C000018
08000008
18000008
10000008
30000008
20000000
20000000
60000000
60000000
40000000
40000000
40000000
C0000000
C0000000
80000000
80000000
80000000
80000000
80000000
80000000
80000040
80000040
800000C0
C0000080
C0000180
40000300
60000200
20000600
30001C00
18003000
0E01E000
03FF8000
00600000
ENDCHAR
STARTCHAR 0107
ENCODING 263
SWIDTH 486 0
DWIDTH 27 0
BBX 23 43 2 -1
BITMAP
00000C
000018
000030
000020
000060
0000C0
000180
000300
000000
000000
000000
000000
001F80
00FFE0
01C038
03000C
06000C
0C0006
180006
100002
300002
200002
600000
600000
400000
400000
C00000
C00000
C00000
800000
800000
800000
800000
C0000C
C00008
400018
400010
600030
300060
1801C0
0C0780
07FE00
004000
ENDCHAR
STARTCHAR 0108
ENCODING 264
SWIDTH 612 0
DWIDTH 34 0
BBX 29 51 4 -1
BITMAP
00003800
00006C00
0000C400
00018600
00030300
00060180
00080180
00000000
00000000
00000000
0003FC00
001FBF00
007001C0
00E000E0
01800020
03000030
06000010
04000018
0C000018
08000008
18000008
10000008
30000008
20000000
20000000
60000000
60000000
40000000
40000000
40000000
C0000000
C0000000
80000000
80000000
80000000
80000000
80000000
80000000
80000040
80000040
800000C0
C0000080
C0000180
40000300
60000200
20000600
30001C00
18003000
0E01E000
03FF8000
00600000
ENDCHAR
STARTCHAR 0109
ENCODING 265
SWIDTH 486 0
DWIDTH 27 0
BBX 23 42 2 -1
BITMAP
000180
0003C0
000660
000C30
001830
003018
00600C
000000
000000
000000
000000
001F80
00FFE0
01C038
03000C
06000C
0C0006
180006
100002
300002
200002
600000
600000
400000
400000
C00000
C00000
C00000
800000
800000
800000
800000
C0000C
C00008
400018
400010
600030
300060
1801C0
0C0780
07FE00
004000
ENDCHAR
STARTCHAR 010A
ENCODING 266
SWIDTH 612 0
DWIDTH 34 0
BBX 29 50 4 -1
BITMAP
00001000
00003800
00003000
00000000
00000000
00000000
00000000
00000000
00000000
0003FC00
001FBF00
007001C0
00E000E0
01800020
03000030
06000010
04000018
0C000018
08000008
18000008
10000008
30000008
20000000
20000000
60000000
60000000
40000000
40000000
40000000
C0000000
C0000000
80000000
80000000
80000000
80000000
80000000
80000000
80000040
80000040
800000C0
C0000080
C0000180
40000300
60000200
20000600
30001C00
18003000
0E01E000
03FF8000
00600000
ENDCHAR
STARTCHAR 010B
ENCODING 267
SWIDTH 486 0
DWIDTH 27 0
BBX 23 40 2 -1
BITMAP
000180
000380
000100
000000
000000
000000
000000
000000
000000
001F80
00FFE0
01C038
03000C
06000C
0C0006
180006
100002
300002
200002
600000
600000
400000
400000
C00000
C00000
C00000
800000
800000
800000
800000
C0000C
C00008
400018
400010
600030
300060
1801C0
0C0780
07FE00
004000
ENDCHAR
STARTCHAR 010C
ENCODING 268
SWIDTH 612 0
DWIDTH 34 0
BBX 29 51 4 -1
BITMAP
000600C0
00030180
00010300
00018600
0000CC00
00005800
00007000
00000000
00000000
00000000
0003FC00
001FBF00
007001C0
00E000E0
01800020
03000030
06000010
04000018
0C000018
08000008
18000008
10000008
30000008
20000000
20000000
60000000
60000000
40000000
40000000
40000000
C0000000
C0000000
80000000
80000000
80000000
80000000
80000000
80000000
80000040
80000040
800000C0
C0000080
C0000180
40000300
60000200
20000600
30001C00
18003000
0E01E000
03FF8000
00600000
ENDCHAR
STARTCHAR 010D
ENCODING 269
SWIDTH 486 0
DWIDTH 27 0
BBX 23 42 2 -1
BITMAP
002006
00300C
001818
000C30
000460
0006C0
000380
000000
000000
000000
000000
001F80
00FFE0
01C038
03000C
06000C
0C0006
180006
100002
300002
200002
600000
600000
400000
400000
C00000
C00000
C00000
800000
800000
800000
800000
C0000C
C00008
400018
400010
600030
300060
1801C0
0C0780
07FE00
004000
ENDCHAR
STARTCHAR 010E
ENCODING 270
SWIDTH 630 0
DWIDTH 35 0
BBX 30 50 3 0
BITMAP
00080180
000C0300
00060600
00020C00
00031800
0001B000
0000E000
00000000
00000000
00000000
03FF8000
03FFFC00
02000F00
02000180
020000C0
06000060
06000030
06000010
04000018
04000008
04000008
0C00000C
0C00000C
0800000C
08000004
08000004
1800000C
1800000C
1800000C
10000008
10000008
10000008
30000018
30000018
30000018
20000010
20000030
20000020
60000060
60000060
600000C0
40000080
40000180
40000300
C0000600
C0001C00
C0003800
8000E000
801F8000
FFFC0000
ENDCHAR
STARTCHAR 010F
ENCODING 271
SWIDTH 594 0
DWIDTH 33 0
BBX 33 43 3 -1
BITMAP
0000004180
0000004180
0000004180
000000C100
000000C300
000000C300
0000008600
0000008400
0000008400
0000018000
0000018000
0000018000
003F010000
00FFC10000
0380710000
06001B0000
0C000B0000
08000E0000
1800060000
3000060000
3000060000
2000060000
6000060000
4000040000
4000040000
C000040000
C0000C0000
80000C0000
80000C0000
8000080000
8000080000
8000080000
8000180000
8000180000
8000180000
8000100000
C000300000
4000700000
6000F00000
3003B00000
180E300000
0FF8200000
0080000000
ENDCHAR
STARTCHAR 0110
ENCODING 272
SWIDTH 648 0
DWIDTH 36 0
BBX 31 40 3 0
BITMAP
01FFC000
01FFFE00
01000780
010000C0
03000060
03000030
03000018
02000008
0200000C
0200000C
06000004
06000006
04000006
04000006
04000006
0C000006
0C000006
0C000006
08000004
FFFF0004
FFFE0004
1800000C
1800000C
1800000C
10000008
10000018
10000018
30000010
30000030
30000020
20000060
200000C0
20000080
60000180
60000300
60000E00
40001800
40007000
401FC000
FFFE0000
ENDCHAR
STARTCHAR 0111
ENCODING 273
SWIDTH 522 0
DWIDTH 29 0
BBX 30 43 3 -1
BITMAP
00000040
00000040
00000040
000000C0
000000C0
000000C0
0003FFFC
00000080
00000080
00000180
00000180
00000180
003F0100
00FFC100
03807100
06001B00
0C000B00
08000E00
18000600
30000600
30000600
20000600
60000600
40000400
40000400
C0000400
C0000C00
80000C00
80000C00
80000800
80000800
80000800
80001800
80001800
80001800
80001000
C0003000
40007000
6000F000
3003B000
180E3000
0FF82000
00800000
ENDCHAR
STARTCHAR 0112
ENCODING 274
SWIDTH 540 0
DWIDTH 30 0
BBX 30 48 3 0
BITMAP
001FFFC0
001FFFC0
00000000
00000000
00000000
00000000
00000000
00000000
03FFFFFC
03FFFFF8
02000000
02000000
02000000
06000000
06000000
06000000
04000000
04000000
04000000
0C000000
0C000000
08000000
08000000
08000000
18000000
18000000
18000000
1FFFFF00
10000000
10000000
30000000
30000000
30000000
20000000
20000000
20000000
60000000
60000000
60000000
40000000
40000000
40000000
C0000000
C0000000
C0000000
80000000
80000000
FFFFFE00
ENDCHAR
STARTCHAR 0113
ENCODING 275
SWIDTH 486 0
DWIDTH 27 0
BBX 24 40 2 -1
BITMAP
007FFF
000000
000000
000000
000000
000000
000000
000000
000000
001F80
007FE0
01C030
030018
06000C
0C0004
180006
100002
300002
200002
600002
400002
400002
FFFFFE
C00000
800000
800000
800000
800000
800000
800000
C00000
C00000
400000
600000
200010
300030
1800E0
0E0380
03FE00
003000
ENDCHAR
STARTCHAR 0114
ENCODING 276
SWIDTH 540 0
DWIDTH 30 0
BBX 30 49 3 0
BITMAP
00180040
001800C0
00080080
000C0180
00060700
0003FC00
00006000
00000000
00000000
03FFFFFC
03FFFFF8
02000000
02000000
02000000
06000000
06000000
06000000
04000000
04000000
04000000
0C000000
0C000000
08000000
08000000
08000000
18000000
18000000
18000000
1FFFFF00
10000000
10000000
30000000
30000000
30000000
20000000
20000000
20000000
60000000
60000000
60000000
40000000
40000000
40000000
C0000000
C0000000
C0000000
80000000
80000000
FFFFFE00
ENDCHAR
STARTCHAR 0115
ENCODING 277
SWIDTH 486 0
DWIDTH 27 0
BBX 24 41 2 -1
BITMAP
006003
006002
002006
00300C
001C38
000FF0
000000
000000
000000
000000
001F80
007FE0
01C030
030018
06000C
0C0004
180006
100002
300002
200002
600002
400002
400002
FFFFFE
C00000
800000
800000
800000
800000
800000
800000
C00000
C00000
400000
600000
200010
300030
1800E0
0E0380
03FE00
003000
ENDCHAR
STARTCHAR 0116
ENCODING 278
SWIDTH 540 0
DWIDTH 30 0
BBX 30 48 3 0
BITMAP
00003000
00007000
00006000
00000000
00000000
00000000
00000000
00000000
03FFFFFC
03FFFFF8
02000000
02000000
02000000
06000000
06000000
06000000
04000000
04000000
04000000
0C000000
0C000000
08000000
08000000
08000000
18000000
18000000
18000000
1FFFFF00
10000000
10000000
30000000
30000000
30000000
20000000
20000000
20000000
60000000
60000000
60000000
40000000
40000000
40000000
C0000000
C0000000
C0000000
80000000
80000000
FFFFFE00
ENDCHAR
STARTCHAR 0117
ENCODING 279
SWIDTH 486 0
DWIDTH 27 0
BBX 23 40 2 -1
BITMAP
0001C0
0001C0
000080
000000
000000
000000
000000
000000
000000
001F80
007FE0
01C030
030018
06000C
0C0004
180006
100002
300002
200002
600002
400002
400002
FFFFFE
C00000
800000
800000
800000
800000
800000
800000
C00000
C00000
400000
600000
200010
300030
1800E0
0E0380
03FE00
003000
ENDCHAR
STARTCHAR 0118
ENCODING 280
SWIDTH 540 0
DWIDTH 30 0
BBX 30 51 3 -11
BITMAP
03FFFFFC
03FFFFF8
02000000
02000000
02000000
06000000
06000000
06000000
04000000
04000000
04000000
0C000000
0C000000
08000000
08000000
08000000
18000000
18000000
18000000
1FFFFF00
10000000
10000000
30000000
30000000
30000000
20000000
20000000
20000000
60000000
60000000
60000000
40000000
40000000
40000000
C0000000
C0000000
C0000000
80000000
80000000
FFFFFE00
00001800
00006000
0000C000
00018000
00010000
00030000
00020000
00020000
00030000
0003F800
0000C000
ENDCHAR
STARTCHAR 0119
ENCODING 281
SWIDTH 486 0
DWIDTH 27 0
BBX 23 39 2 -9
BITMAP
001F80
007FE0
01C030
030018
06000C
0C0004
180006
100002
300002
200002
600002
400002
400002
FFFFFE
C00000
800000
800000
800000
800000
800000
800000
C00000
C00000
400000
600000
200010
300030
1800E0
0E03C0
03FF00
003600
000C00
001800
001000
003000
003000
003000
003980
001F00
ENDCHAR
STARTCHAR 011A
ENCODING 282
SWIDTH 540 0
DWIDTH 30 0
BBX 30 50 3 0
BITMAP
000C00C0
00060180
00020300
00030600
00018C00
00009800
0000F000
00000000
00000000
00000000
03FFFFFC
03FFFFF8
02000000
02000000
02000000
06000000
06000000
06000000
04000000
04000000
04000000
0C000000
0C000000
08000000
08000000
08000000
18000000
18000000
18000000
1FFFFF00
10000000
10000000
30000000
30000000
30000000
20000000
20000000
20000000
60000000
60000000
60000000
40000000
40000000
40000000
C0000000
C0000000
C0000000
80000000
80000000
FFFFFE00
ENDCHAR
STARTCHAR 011B
ENCODING 283
SWIDTH 486 0
DWIDTH 27 0
BBX 23 42 2 -1
BITMAP
003006
00180C
000818
000C30
000660
0002C0
000380
000000
000000
000000
000000
001F80
007FE0
01C030
030018
06000C
0C0004
180006
100002
300002
200002
600002
400002
400002
FFFFFE
C00000
800000
800000
800000
800000
800000
800000
C00000
C00000
400000
600000
200010
300030
1800E0
0E0380
03FE00
003000
ENDCHAR
STARTCHAR 011C
ENCODING 284
SWIDTH 666 0
DWIDTH 37 0
BBX 30 51 4 -1
BITMAP
00001C00
00003C00
00006600
0001C300
00038180
00070180
000000C0
00000000
00000000
00000000
0001FE00
000FDF80
003800E0
00600030
00C00018
01800018
0300000C
0600000C
04000004
0C000004
08000004
18000000
10000000
30000000
30000000
20000000
20000000
60000000
60000000
60000000
40000000
40000000
4001FFF8
C001FFF0
C0000010
C0000030
C0000030
C0000030
C0000030
C0000020
40000020
40000060
60000060
20000060
30000040
100000C0
180001C0
0E000700
07803E00
01FFF000
00080000
ENDCHAR
STARTCHAR 011D
ENCODING 285
SWIDTH 522 0
DWIDTH 29 0
BBX 26 53 1 -12
BITMAP
00006000
0000F000
00019800
00030800
00060C00
001C0600
00380300
00000000
00000000
00000000
00000000
000FC000
003FF040
00E01CC0
018004C0
030002C0
02000380
06000180
0C000180
0C000180
18000180
18000180
10000100
30000100
30000100
30000300
20000300
20000300
20000200
20000200
20000200
20000600
20000600
20000600
20000400
30000C00
10001C00
18003C00
0C00EC00
0E038C00
03FE0800
00200800
00001800
00001800
00001000
00003000
00006000
80006000
C000C000
60018000
38070000
1FFC0000
03E00000
ENDCHAR
STARTCHAR 011E
ENCODING 286
SWIDTH 666 0
DWIDTH 37 0
BBX 30 51 4 -1
BITMAP
00040020
00040020
00040060
000600C0
00030180
0001FF00
0000FC00
00000000
00000000
00000000
0001FE00
000FDF80
003800E0
00600030
00C00018
01800018
0300000C
0600000C
04000004
0C000004
08000004
18000000
10000000
30000000
30000000
20000000
20000000
60000000
60000000
60000000
40000000
40000000
4001FFF8
C001FFF0
C0000010
C0000030
C0000030
C0000030
C0000030
C0000020
40000020
40000060
60000060
20000060
30000040
100000C0
180001C0
0E000700
07803E00
01FFF000
00080000
ENDCHAR
STARTCHAR 011F
ENCODING 287
SWIDTH 522 0
DWIDTH 29 0
BBX 26 52 1 -12
BITMAP
00100080
00100180
00100300
00180700
000E1E00
0007F800
00000000
00000000
00000000
00000000
000FC000
003FF040
00E01CC0
018004C0
030002C0
02000380
06000180
0C000180
0C000180
18000180
18000180
10000100
30000100
30000100
30000300
20000300
20000300
20000200
20000200
20000200
20000600
20000600
20000600
20000400
30000C00
10001C00
18003C00
0C00EC00
0E038C00
03FE0800
00200800
00001800
00001800
00001000
00003000
00006000
80006000
C000C000
60018000
38070000
1FFC0000
03E00000
ENDCHAR
STARTCHAR 0120
ENCODING 288
SWIDTH 666 0
DWIDTH 37 0
BBX 30 50 4 -1
BITMAP
00000800
00003800
00003800
00000000
00000000
00000000
00000000
00000000
00000000
0001FE00
000FDF80
003800E0
00600030
00C00018
01800018
0300000C
0600000C
04000004
0C000004
08000004
18000000
10000000
30000000
30000000
20000000
20000000
60000000
60000000
60000000
40000000
40000000
4001FFF8
C001FFF0
C0000010
C0000030
C0000030
C0000030
C0000030
C0000020
40000020
40000060
60000060
20000060
30000040
100000C0
180001C0
0E000700
07803E00
01FFF000
00080000
ENDCHAR
STARTCHAR 0121
ENCODING 289
SWIDTH 522 0
DWIDTH 29 0
BBX 26 51 1 -12
BITMAP
0000E000
0000E000
00004000
00000000
00000000
00000000
00000000
00000000
00000000
000FC000
003FF040
00E01CC0
018004C0
030002C0
02000380
06000180
0C000180
0C000180
18000180
18000180
10000100
30000100
30000100
30000300
20000300
20000300
20000200
20000200
20000200
20000600
20000600
20000600
20000400
30000C00
10001C00
18003C00
0C00EC00
0E038C00
03FE0800
00200800
00001800
00001800
00001000
00003000
00006000
80006000
C000C000
60018000
38070000
1FFC0000
03E00000
ENDCHAR
STARTCHAR 0122
ENCODING 290
SWIDTH 666 0
DWIDTH 37 0
BBX 30 51 4 -11
BITMAP
0001FE00
000FDF80
003800E0
00600030
00C00018
01800018
0300000C
0600000C
04000004
0C000004
08000004
18000000
10000000
30000000
30000000
20000000
20000000
60000000
60000000
60000000
40000000
40000000
4001FFF8
C001FFF0
C0000010
C0000030
C0000030
C0000030
C0000030
C0000020
40000020
40000060
60000060
20000060
30000040
100000C0
180001C0
0E000700
07803E00
01FFF000
00080000
00000000
00000000
00180000
00100000
00100000
00300000
00300000
00600000
00400000
00C00000
ENDCHAR
STARTCHAR 0123
ENCODING 291
SWIDTH 522 0
DWIDTH 29 0
BBX 26 55 1 -12
BITMAP
00001000
00003000
00002000
00006000
00004000
00004000
00004000
0000C000
00000000
00000000
00000000
00000000
00000000
000FC000
003FF040
00E01CC0
018004C0
030002C0
02000380
06000180
0C000180
0C000180
18000180
18000180
10000100
30000100
30000100
30000300
20000300
20000300
20000200
20000200
20000200
20000600
20000600
20000600
20000400
30000C00
10001C00
18003C00
0C00EC00
0E038C00
03FE0800
00200800
00001800
00001800
00001000
00003000
00006000
80006000
C000C000
60018000
38070000
1FFC0000
03E00000
ENDCHAR
STARTCHAR 0124
ENCODING 292
SWIDTH 666 0
DWIDTH 37 0
BBX 34 50 3 0
BITMAP
0000040000
00000E0000
00003B0000
0000718000
0000C18000
000180C000
0003006000
0000000000
0000000000
0000000000
03000000C0
0300000080
0200000080
0200000080
0200000180
0600000180
0600000180
0600000100
0400000100
0400000100
0400000300
0C00000300
0C00000300
0800000200
0800000200
0800000200
1800000600
1800000600
1800000600
1FFFFFFC00
1000000400
1000000400
3000000C00
3000000C00
3000000800
2000000800
2000000800
2000001800
6000001800
6000001800
6000001000
4000001000
4000001000
4000003000
C000003000
C000003000
C000002000
8000002000
8000002000
8000006000
ENDCHAR
STARTCHAR 0125
ENCODING 293
SWIDTH 522 0
DWIDTH 29 0
BBX 24 50 2 0
BITMAP
000180
0003C0
000640
000C60
001830
003018
00600C
000000
010000
010000
010000
030000
030000
020000
020000
020000
060000
060000
060000
040000
0407E0
041FF8
0C700C
0CC006
0D8002
0B0003
0A0003
0C0003
1C0003
180003
180003
100003
100002
100002
300002
300006
300006
200006
200004
200004
60000C
60000C
40000C
400008
400008
C00008
C00018
C00018
800018
800010
ENDCHAR
STARTCHAR 0126
ENCODING 294
SWIDTH 648 0
DWIDTH 36 0
BBX 37 40 1 0
BITMAP
0180000060
0100000040
0100000040
0100000040
03000000C0
03000000C0
03000000C0
0200000080
0200000080
0200000080
0600000180
3FFFFFFFF8
0600000100
0400000100
0400000100
0400000300
0C00000300
0C00000300
0C00000200
0FFFFFFE00
0800000200
0800000600
1800000600
1800000600
1800000400
1000000400
1000000400
1000000C00
3000000C00
3000000C00
2000000800
2000000800
2000000800
6000001800
6000001800
6000001800
4000001000
4000001000
4000001000
C000003000
ENDCHAR
STARTCHAR 0127
ENCODING 295
SWIDTH 540 0
DWIDTH 30 0
BBX 24 42 3 0
BITMAP
010000
010000
030000
030000
020000
020000
3FFF80
060000
060000
060000
040000
040000
0407E0
0C1FF8
0C700C
0CC006
098002
0B0002
0E0003
1C0003
1C0003
180003
180002
100002
100002
300002
300006
200006
200004
200004
600004
60000C
60000C
40000C
400008
400008
C00008
C00018
C00018
800018
800010
800010
ENDCHAR
STARTCHAR 0128
ENCODING 296
SWIDTH 252 0
DWIDTH 14 0
BBX 17 49 4 0
BITMAP
1E0080
3F0180
618300
C06F00
803C00
000000
000000
000000
000000
030000
030000
020000
020000
020000
060000
060000
060000
040000
040000
040000
0C0000
0C0000
0C0000
080000
080000
080000
180000
180000
180000
100000
100000
100000
300000
300000
200000
200000
200000
600000
600000
600000
400000
400000
400000
C00000
C00000
C00000
800000
800000
800000
ENDCHAR
STARTCHAR 0129
ENCODING 297
SWIDTH 180 0
DWIDTH 10 0
BBX 17 40 1 0
BITMAP
000080
3E0180
618100
C0C700
807E00
000000
000000
000000
000000
000000
000000
020000
020000
020000
060000
060000
040000
040000
040000
0C0000
0C0000
0C0000
080000
080000
080000
180000
180000
180000
100000
100000
100000
300000
300000
300000
200000
200000
200000
600000
600000
600000
ENDCHAR
STARTCHAR 012A
ENCODING 298
SWIDTH 252 0
DWIDTH 14 0
BBX 16 48 4 0
BITMAP
7FFF
7FFF
0000
0000
0000
0000
0000
0000
0300
0300
0200
0200
0200
0600
0600
0600
0400
0400
0400
0C00
0C00
0C00
0800
0800
0800
1800
1800
1800
1000
1000
1000
3000
3000
2000
2000
2000
6000
6000
6000
4000
4000
4000
C000
C000
C000
8000
8000
8000
ENDCHAR
STARTCHAR 012B
ENCODING 299
SWIDTH 180 0
DWIDTH 10 0
BBX 15 39 2 0
BITMAP
FFFE
FFFE
0000
0000
0000
0000
0000
0000
0000
0000
0400
0400
0400
0C00
0C00
0800
0800
0800
1800
1800
1800
1000
1000
1000
3000
3000
3000
2000
2000
2000
6000
6000
6000
4000
4000
4000
C000
C000
C000
ENDCHAR
STARTCHAR 012C
ENCODING 300
SWIDTH 252 0
DWIDTH 14 0
BBX 16 49 4 0
BITMAP
6003
6002
6006
200C
3818
0FF0
0180
0000
0000
0300
0300
0200
0200
0200
0600
0600
0600
0400
0400
0400
0C00
0C00
0C00
0800
0800
0800
1800
1800
1800
1000
1000
1000
3000
3000
2000
2000
2000
6000
6000
6000
4000
4000
4000
C000
C000
C000
8000
8000
8000
ENDCHAR
STARTCHAR 012D
ENCODING 301
SWIDTH 180 0
DWIDTH 10 0
BBX 15 40 2 0
BITMAP
8006
8004
C00C
C008
6038
3FE0
0F80
0000
0000
0000
0000
0400
0400
0400
0C00
0C00
0800
0800
0800
1800
1800
1800
1000
1000
1000
3000
3000
3000
2000
2000
2000
6000
6000
6000
4000
4000
4000
C000
C000
C000
ENDCHAR
STARTCHAR 012E
ENCODING 302
SWIDTH 252 0
DWIDTH 14 0
BBX 15 51 -3 -11
BITMAP
0006
0006
0004
0004
0004
000C
000C
000C
0008
0008
0008
0018
0018
0018
0010
0010
0010
0030
0030
0030
0020
0020
0020
0060
0060
0040
0040
0040
00C0
00C0
00C0
0080
0080
0080
0180
0180
0180
0100
0100
0100
0600
0C00
1800
3000
6000
4000
4000
C000
4200
7E00
1800
ENDCHAR
STARTCHAR 012F
ENCODING 303
SWIDTH 198 0
DWIDTH 11 0
BBX 15 51 -4 -11
BITMAP
000E
000E
000C
0000
0000
0000
0000
0000
0000
0000
0000
0010
0010
0010
0030
0030
0030
0020
0020
0020
0060
0060
0060
0040
0040
0040
00C0
00C0
00C0
0080
0080
0080
0180
0180
0100
0100
0100
0300
0300
0300
0600
0C00
3000
6000
4000
C000
8000
8000
C200
7E00
3800
ENDCHAR
STARTCHAR 0130
ENCODING 304
SWIDTH 252 0
DWIDTH 14 0
BBX 10 48 4 0
BITMAP
01C0
01C0
0180
0000
0000
0000
0000
0000
0300
0300
0200
0200
0200
0600
0600
0600
0400
0400
0400
0C00
0C00
0C00
0800
0800
0800
1800
1800
1800
1000
1000
1000
3000
3000
2000
2000
2000
6000
6000
6000
4000
4000
4000
C000
C000
C000
8000
8000
8000
ENDCHAR
STARTCHAR 0131
ENCODING 305
SWIDTH 180 0
DWIDTH 10 0
BBX 6 29 2 0
BITMAP
04
04
04
0C
0C
08
08
08
18
18
18
10
10
10
30
30
30
20
20
20
60
60
60
40
40
40
C0
C0
C0
ENDCHAR
STARTCHAR 0132
ENCODING 306
SWIDTH 774 0
DWIDTH 43 0
BBX 39 41 4 -1
BITMAP
0300000006
0300000004
0200000004
0200000004
020000000C
060000000C
060000000C
0600000008
0400000008
0400000008
0400000018
0C00000018
0C00000018
0C00000010
0800000010
0800000030
0800000030
1800000030
1800000020
1800000020
1000000020
1000000060
1000000060
3000000060
3000000040
2000000040
2000000040
20000000C0
60000000C0
6018000080
6018000080
4018000180
4018000100
4018000300
C008000600
C00C000600
C00C000C00
8006003800
800380E000
8000FFC000
0000080000
ENDCHAR
STARTCHAR 0133
ENCODING 307
SWIDTH 396 0
DWIDTH 22 0
BBX 20 52 2 -12
BITMAP
038030
038070
030070
000000
000000
000000
000000
000000
000000
000000
000000
0400C0
040080
040080
0C0080
0C0180
0C0180
080180
080100
080100
180100
180300
180300
100200
100200
100200
300600
300600
300600
200400
200400
200400
600C00
600C00
400C00
400800
400800
C00800
C01800
C01800
001800
001000
001000
001000
003000
002000
006000
006000
00C000
018000
7F0000
7C0000
ENDCHAR
STARTCHAR 0134
ENCODING 308
SWIDTH 522 0
DWIDTH 29 0
BBX 34 50 1 -1
BITMAP
0000001800
0000003C00
0000006600
000000C300
0000018300
0000030180
00000600C0
0000000000
0000000000
0000003000
0000002000
0000002000
0000002000
0000006000
0000006000
0000004000
0000004000
0000004000
000000C000
000000C000
000000C000
0000008000
0000008000
0000008000
0000018000
0000018000
0000018000
0000010000
0000010000
0000010000
0000030000
0000030000
0000030000
0000020000
0000020000
0000020000
0000060000
0000060000
C000040000
C000040000
C0000C0000
C000080000
C000180000
4000300000
6000300000
6000600000
3001C00000
1C07000000
07FE000000
0040000000
ENDCHAR
STARTCHAR 0135
ENCODING 309
SWIDTH 198 0
DWIDTH 11 0
BBX 24 52 -9 -12
BITMAP
000060
0000F0
000198
00030C
000606
000C06
001803
000000
000000
000000
000000
000080
000080
000080
000180
000180
000180
000100
000100
000100
000300
000300
000300
000200
000200
000200
000600
000600
000600
000400
000400
000400
000C00
000C00
000C00
000800
000800
001800
001800
001800
001000
001000
001000
003000
003000
002000
006000
004000
00C000
038000
FF0000
7C0000
ENDCHAR
STARTCHAR 0136
ENCODING 310
SWIDTH 612 0
DWIDTH 34 0
BBX 32 48 3 -8
BITMAP
03000000
03000007
0200000C
02000038
02000070
060000C0
06000180
06000300
04000600
04000C00
04003800
0C007000
0C00C000
08018000
08030000
08060000
180C0000
18380000
18700000
10D80000
11980000
130C0000
36060000
38060000
30030000
20018000
20008000
2000C000
60006000
60002000
60003000
40001800
40000800
40000C00
C0000600
C0000200
C0000300
80000180
80000080
800000C0
00200000
00200000
00600000
00600000
00400000
00C00000
01800000
01000000
ENDCHAR
STARTCHAR 0137
ENCODING 311
SWIDTH 450 0
DWIDTH 25 0
BBX 24 50 2 -8
BITMAP
010000
010000
010000
030000
030000
020000
020000
020000
060000
060000
060000
040000
040000
040007
0C000C
0C0018
0C0030
0800E0
0801C0
080300
180600
180C00
183800
106000
10C000
118000
33C000
3C6000
382000
303000
201800
200800
600C00
600600
400200
400300
400180
C00080
C000C0
C00060
800020
800030
008000
008000
008000
018000
010000
030000
020000
060000
ENDCHAR
STARTCHAR 0138
ENCODING 312
SWIDTH 504 0
DWIDTH 28 0
BBX 25 29 2 0
BITMAP
04000180
0C000300
0C000E00
0C001800
08003000
08006000
0800C000
18018000
18030000
18060000
101C0000
10380000
10700000
3FC00000
3FC00000
30600000
20300000
20380000
60180000
600C0000
60060000
40030000
40018000
4000C000
C000C000
C0006000
C0003000
80001800
80000C00
ENDCHAR
STARTCHAR 0139
ENCODING 313
SWIDTH 486 0
DWIDTH 27 0
BBX 21 49 3 0
BITMAP
000C00
001800
001000
003000
006000
00C000
018000
030000
000000
030000
030000
020000
020000
020000
060000
060000
060000
040000
040000
040000
0C0000
0C0000
0C0000
080000
080000
180000
180000
180000
100000
100000
100000
300000
300000
300000
200000
200000
200000
600000
600000
600000
400000
400000
400000
C00000
C00000
C00000
800000
800000
FFFFF8
ENDCHAR
STARTCHAR 013A
ENCODING 314
SWIDTH 198 0
DWIDTH 11 0
BBX 15 52 2 0
BITMAP
0006
000C
0018
0010
0030
0060
00C0
0000
0000
0000
0180
0180
0100
0100
0300
0300
0300
0200
0200
0200
0600
0600
0600
0400
0400
0400
0C00
0C00
0C00
0800
0800
0800
1800
1800
1800
1000
1000
1000
3000
3000
3000
2000
2000
6000
6000
6000
4000
4000
4000
C000
C000
C000
ENDCHAR
STARTCHAR 013B
ENCODING 315
SWIDTH 486 0
DWIDTH 27 0
BBX 21 51 3 -11
BITMAP
030000
030000
020000
020000
020000
060000
060000
060000
040000
040000
040000
0C0000
0C0000
0C0000
080000
080000
180000
180000
180000
100000
100000
100000
300000
300000
300000
200000
200000
200000
600000
600000
600000
400000
400000
400000
C00000
C00000
C00000
800000
800000
FFFFF8
000000
000000
006000
006000
006000
004000
004000
00C000
008000
018000
010000
ENDCHAR
STARTCHAR 013C
ENCODING 316
SWIDTH 198 0
DWIDTH 11 0
BBX 12 53 -1 -11
BITMAP
0030
0030
0020
0020
0060
0060
0060
0040
0040
0040
00C0
00C0
00C0
0080
0080
0080
0180
0180
0180
0100
0100
0100
0300
0300
0300
0200
0200
0200
0600
0600
0600
0400
0400
0C00
0C00
0C00
0800
0800
0800
1800
1800
1800
0000
0000
1000
1000
3000
3000
2000
6000
4000
C000
8000
ENDCHAR
STARTCHAR 013D
ENCODING 317
SWIDTH 486 0
DWIDTH 27 0
BBX 21 40 3 0
BITMAP
030000
030040
020040
0200C0
0200C0
060080
060180
060300
040200
040000
040000
0C0000
0C0000
0C0000
080000
080000
180000
180000
180000
100000
100000
100000
300000
300000
300000
200000
200000
200000
600000
600000
600000
400000
400000
400000
C00000
C00000
C00000
800000
800000
FFFFF8
ENDCHAR
STARTCHAR 013E
ENCODING 318
SWIDTH 270 0
DWIDTH 15 0
BBX 16 42 2 0
BITMAP
0183
0183
0103
0102
0306
0306
030C
0208
0208
0200
0600
0600
0600
0400
0400
0400
0C00
0C00
0C00
0800
0800
0800
1800
1800
1800
1000
1000
1000
3000
3000
3000
2000
2000
6000
6000
6000
4000
4000
4000
C000
C000
C000
ENDCHAR
STARTCHAR 013F
ENCODING 319
SWIDTH 486 0
DWIDTH 27 0
BBX 21 40 3 0
BITMAP
030000
030000
020000
020000
020000
060000
060000
060000
040000
040000
040000
0C0000
0C0000
0C0000
080000
080000
180000
180000
180300
100380
100300
100000
300000
300000
300000
200000
200000
200000
600000
600000
600000
400000
400000
400000
C00000
C00000
C00000
800000
800000
FFFFF8
ENDCHAR
STARTCHAR 0140
ENCODING 320
SWIDTH 306 0
DWIDTH 17 0
BBX 12 42 2 0
BITMAP
0180
0180
0100
0100
0300
0300
0300
0200
0200
0200
0600
0600
0600
0400
0400
0400
0C00
0C00
0C00
0830
0830
0830
1800
1800
1800
1000
1000
1000
3000
3000
3000
2000
2000
6000
6000
6000
4000
4000
4000
C000
C000
C000
ENDCHAR
STARTCHAR 0141
ENCODING 321
SWIDTH 486 0
DWIDTH 27 0
BBX 22 40 1 0
BITMAP
00C000
008000
008000
018000
018000
018000
018000
010000
010000
030000
030000
030000
020000
020000
020000
060000
060700
063E00
05E000
1F0000
FC0000
CC0000
0C0000
0C0000
080000
080000
080000
180000
180000
180000
100000
100000
100000
300000
300000
300000
200000
200000
600000
7FFFFC
ENDCHAR
STARTCHAR 0142
ENCODING 322
SWIDTH 234 0
DWIDTH 13 0
BBX 13 42 1 0
BITMAP
0060
0060
0060
0040
0040
0040
00C0
00C0
00C0
0080
0080
0080
0180
0180
0180
0100
0100
0318
0378
03C0
0F00
7A00
C200
0600
0600
0600
0400
0400
0400
0C00
0C00
0C00
0800
0800
0800
1800
1800
1800
1000
1000
1000
3000
ENDCHAR
STARTCHAR 0143
ENCODING 323
SWIDTH 684 0
DWIDTH 38 0
BBX 34 50 3 0
BITMAP
0000006000
000000C000
0000018000
0000030000
0000020000
0000060000
00000C0000
0000000000
0000000000
0000000000
03000000C0
03000000C0
03800000C0
0280000080
02C0000080
0640000080
0660000180
0620000180
0430000180
0410000100
0C18000100
0C08000100
0C0C000300
0C04000300
0806000300
0802000200
1803000200
1801000600
1801800600
1800800600
1000C00400
1000400400
3000600400
3000200C00
3000300C00
2000100C00
2000180800
2000080800
60000C0800
60000C1800
6000061800
4000061800
4000031000
4000031000
C000019000
C00001B000
C00000F000
800000F000
8000006000
8000006000
ENDCHAR
STARTCHAR 0144
ENCODING 324
SWIDTH 522 0
DWIDTH 29 0
BBX 24 42 2 0
BITMAP
000006
00000C
000008
000018
000030
000060
0000C0
000180
000000
000000
000000
000000
0007E0
041FF8
0C700C
0CC006
0D8002
0B0003
0A0003
0C0003
1C0003
180003
180003
100003
100002
100002
300002
300006
300006
200006
200004
200004
60000C
60000C
40000C
400008
400008
C00008
C00018
C00018
800018
800010
ENDCHAR
STARTCHAR 0145
ENCODING 325
SWIDTH 684 0
DWIDTH 38 0
BBX 34 51 3 -11
BITMAP
03000000C0
03000000C0
03800000C0
0280000080
02C0000080
0640000080
0660000180
0620000180
0430000180
0410000100
0C18000100
0C08000100
0C0C000300
0C04000300
0806000300
0802000200
1803000200
1801000600
1801800600
1800800600
1000C00400
1000400400
3000600400
3000200C00
3000300C00
2000100C00
2000180800
2000080800
60000C0800
60000C1800
6000061800
4000061800
4000031000
4000031000
C000019000
C00001B000
C00000F000
800000F000
8000006000
8000006000
0000000000
0000000000
000C000000
0008000000
0008000000
0008000000
0018000000
0010000000
0030000000
0060000000
0040000000
ENDCHAR
STARTCHAR 0146
ENCODING 326
SWIDTH 522 0
DWIDTH 29 0
BBX 24 41 2 -11
BITMAP
0007E0
041FF8
0C700C
0CC006
0D8002
0B0003
0A0003
0C0003
1C0003
180003
180003
100003
100002
100002
300002
300006
300006
200006
200004
200004
60000C
60000C
40000C
400008
400008
C00008
C00018
C00018
800018
800010
000000
000000
006000
006000
004000
004000
00C000
008000
018000
010000
030000
ENDCHAR
STARTCHAR 0147
ENCODING 327
SWIDTH 684 0
DWIDTH 38 0
BBX 34 50 3 0
BITMAP
0001801000
0000C03000
0000C06000
000060C000
0000318000
0000170000
00001E0000
0000000000
0000000000
0000000000
03000000C0
03000000C0
03800000C0
0280000080
02C0000080
0640000080
0660000180
0620000180
0430000180
0410000100
0C18000100
0C08000100
0C0C000300
0C04000300
0806000300
0802000200
1803000200
1801000600
1801800600
1800800600
1000C00400
1000400400
3000600400
3000200C00
3000300C00
2000100C00
2000180800
2000080800
60000C0800
60000C1800
6000061800
4000061800
4000031000
4000031000
C000019000
C00001B000
C00000F000
800000F000
8000006000
8000006000
ENDCHAR
STARTCHAR 0148
ENCODING 328
SWIDTH 522 0
DWIDTH 29 0
BBX 24 41 2 0
BITMAP
001803
000806
000C0C
000618
000230
000360
0001C0
000000
000000
000000
000000
0007E0
041FF8
0C700C
0CC006
0D8002
0B0003
0A0003
0C0003
1C0003
180003
180003
100003
100002
100002
300002
300006
300006
200006
200004
200004
60000C
60000C
40000C
400008
400008
C00008
C00018
C00018
800018
800010
ENDCHAR
STARTCHAR 0149
ENCODING 329
SWIDTH 522 0
DWIDTH 29 0
BBX 24 42 2 0
BITMAP
180000
180000
180000
100000
300000
300000
600000
400000
400000
000000
000000
000000
0007E0
041FF8
0C700C
0CC006
0D8002
0B0003
0A0003
0C0003
1C0003
180003
180003
100003
100002
100002
300002
300006
300006
200006
200004
200004
60000C
60000C
40000C
400008
400008
C00008
C00018
C00018
800018
800010
ENDCHAR
STARTCHAR 014A
ENCODING 330
SWIDTH 684 0
DWIDTH 38 0
BBX 34 52 3 -12
BITMAP
03000000C0
03000000C0
03800000C0
0280000080
02C0000080
0640000080
0660000180
0620000180
0430000180
0410000100
0418000100
0C08000100
0C0C000300
0804000300
0806000300
0802000200
1803000200
1801000200
1801800600
1000800600
1000C00400
1000400400
3000600400
3000200C00
3000300C00
2000100C00
2000180800
2000080800
60000C0800
60000C1800
6000061800
4000061800
4000031000
4000031000
C000019000
C00001B000
C00000F000
800000F000
8000006000
8000006000
0000002000
0000006000
0000006000
0000004000
0000004000
000000C000
0000008000
0000018000
0000030000
0000060000
0001FC0000
0001F00000
ENDCHAR
STARTCHAR 014B
ENCODING 331
SWIDTH 522 0
DWIDTH 29 0
BBX 24 42 2 -12
BITMAP
0007E0
043FF8
0C700C
0CC006
098006
0B0002
0E0002
0C0003
1C0003
180003
180003
100002
100002
100002
300002
300006
200006
200004
200004
600004
60000C
60000C
40000C
400008
400008
C00008
C00018
C00018
800018
800010
000010
000010
000030
000030
000020
000060
000060
0000C0
000180
000380
00FE00
00F800
ENDCHAR
STARTCHAR 014C
ENCODING 332
SWIDTH 630 0
DWIDTH 35 0
BBX 31 49 3 -1
BITMAP
0007FFF0
00000000
00000000
00000000
00000000
00000000
00000000
00000000
0001FE00
000FCF80
003C00C0
00700060
00C00030
01800018
03000008
0600000C
06000004
0C000004
08000006
18000006
10000006
10000006
30000006
20000006
20000006
20000006
60000004
60000004
6000000C
4000000C
4000000C
40000008
C0000008
C0000018
C0000018
C0000010
C0000030
C0000030
40000060
40000060
600000C0
60000180
30000100
30000300
18000E00
0C001800
0700F000
01FFC000
00080000
ENDCHAR
STARTCHAR 014D
ENCODING 333
SWIDTH 522 0
DWIDTH 29 0
BBX 25 40 2 -1
BITMAP
007FFF00
00000000
00000000
00000000
00000000
00000000
00000000
00000000
00000000
000FC000
007FF000
01C01C00
03800E00
06000600
0C000300
18000100
18000180
30000180
20000080
60000080
60000080
40000080
C0000080
C0000080
C0000080
80000180
80000180
80000100
80000300
80000300
C0000200
C0000600
40000C00
60000800
20001800
30003000
1800E000
0E038000
03FF0000
00200000
ENDCHAR
STARTCHAR 014E
ENCODING 334
SWIDTH 630 0
DWIDTH 35 0
BBX 31 51 3 -1
BITMAP
00060030
00040020
00060060
00060060
000301C0
0001EF80
0000FE00
00000000
00000000
00000000
0001FE00
000FCF80
003C00C0
00700060
00C00030
01800018
03000008
0600000C
06000004
0C000004
08000006
18000006
10000006
10000006
30000006
20000006
20000006
20000006
60000004
60000004
6000000C
4000000C
4000000C
40000008
C0000008
C0000018
C0000018
C0000010
C0000030
C0000030
40000060
40000060
600000C0
60000180
30000100
30000300
18000E00
0C001800
0700F000
01FFC000
00080000
ENDCHAR
STARTCHAR 014F
ENCODING 335
SWIDTH 522 0
DWIDTH 29 0
BBX 25 41 2 -1
BITMAP
00600300
00600200
00200600
00300C00
00183800
000FF000
00000000
00000000
00000000
00000000
000FC000
007FF000
01C01C00
03800E00
06000600
0C000300
18000100
18000180
30000180
20000080
60000080
60000080
40000080
C0000080
C0000080
C0000080
80000180
80000180
80000100
80000300
80000300
C0000200
C0000600
40000C00
60000800
20001800
30003000
1800E000
0E038000
03FF0000
00200000
ENDCHAR
STARTCHAR 0150
ENCODING 336
SWIDTH 630 0
DWIDTH 35 0
BBX 31 52 3 -1
BITMAP
00000306
0000060C
00000C18
00001830
00003060
000060C0
0000C180
00018300
00000400
00000000
00000000
0001FE00
000FCF80
003C00C0
00700060
00C00030
01800018
03000008
0600000C
06000004
0C000004
08000006
18000006
10000006
10000006
30000006
20000006
20000006
20000006
60000004
60000004
6000000C
4000000C
4000000C
40000008
C0000008
C0000018
C0000018
C0000010
C0000030
C0000030
40000060
40000060
600000C0
60000180
30000100
30000300
18000E00
0C001800
0700F000
01FFC000
00080000
ENDCHAR
STARTCHAR 0151
ENCODING 337
SWIDTH 522 0
DWIDTH 29 0
BBX 28 43 2 -1
BITMAP
00003030
000060E0
0000E1C0
0001C380
00018700
00030C00
00061800
000C3000
00186000
00000000
00000000
00000000
000FC000
007FF000
01C01C00
03800E00
06000600
0C000300
18000100
18000180
30000180
20000080
60000080
60000080
40000080
C0000080
C0000080
C0000080
80000180
80000180
80000100
80000300
80000300
C0000200
C0000600
40000C00
60000800
20001800
30003000
1800E000
0E038000
03FF0000
00200000
ENDCHAR
STARTCHAR 0152
ENCODING 338
SWIDTH 882 0
DWIDTH 49 0
BBX 48 41 3 -1
BITMAP
0003FFFFFFFF
001F83FFFFFF
007000400000
00E000400000
018000C00000
030000C00000
060000C00000
040000800000
0C0000800000
180000800000
180001800000
100001800000
300001000000
200001000000
200001000000
600003000000
600003000000
400003000000
400002000000
400003FFFFC0
C00002000000
C00006000000
C00006000000
800006000000
800004000000
800004000000
800004000000
80000C000000
80000C000000
80000C000000
800008000000
800008000000
C00008000000
400018000000
600018000000
200018000000
300010000000
180010000000
0E0010000000
03FFFFFFFFC0
003C00000000
ENDCHAR
STARTCHAR 0153
ENCODING 339
SWIDTH 900 0
DWIDTH 50 0
BBX 47 31 2 -1
BITMAP
000FC0001F80
007FF0007FE0
01E01C01C038
038006030018
06000206000C
0C00030C0006
080001180006
180001900002
300001B00002
300000E00002
600000E00002
600000C00002
400000C00002
C00000FFFFFE
C00000800000
C00000800000
800001800000
800001800000
800001800000
800003800000
800003800000
C00006800000
C00006800000
40000CC00000
600018C00000
600038600000
300070200020
1800E03000E0
0E03801C0380
07FE0007FE00
002000006000
ENDCHAR
STARTCHAR 0154
ENCODING 340
SWIDTH 630 0
DWIDTH 35 0
BBX 30 50 2 0
BITMAP
00000180
00000300
00000600
00000C00
00001800
00001000
00003000
00000000
00000000
00000000
01FFE000
01FFFF00
010001C0
01000070
03000030
03000018
0300000C
0200000C
02000004
02000004
06000004
06000004
0600000C
0400000C
04000008
04000018
0C000010
0C000030
0C000060
080000C0
08000300
08003E00
1FFFF000
18003000
10001000
10001800
10001800
30000C00
30000C00
30000400
20000600
20000200
20000300
60000300
60000180
60000180
40000080
400000C0
40000040
C0000060
ENDCHAR
STARTCHAR 0155
ENCODING 341
SWIDTH 324 0
DWIDTH 18 0
BBX 19 42 2 0
BITMAP
000060
0000C0
000180
000300
000200
000400
000C00
001800
000000
000000
000000
000000
000FC0
043F80
0C6000
0CC000
0D0000
0B0000
0E0000
0C0000
1C0000
180000
180000
100000
100000
100000
300000
300000
300000
200000
200000
200000
600000
600000
400000
400000
400000
C00000
C00000
C00000
800000
800000
ENDCHAR
STARTCHAR 0156
ENCODING 342
SWIDTH 630 0
DWIDTH 35 0
BBX 30 51 2 -11
BITMAP
01FFE000
01FFFF00
010001C0
01000070
03000030
03000018
0300000C
0200000C
02000004
02000004
06000004
06000004
0600000C
0400000C
04000008
04000018
0C000010
0C000030
0C000060
080000C0
08000300
08003E00
1FFFF000
18003000
10001000
10001800
10001800
30000C00
30000C00
30000400
20000600
20000200
20000300
60000300
60000180
60000180
40000080
400000C0
40000040
C0000060
00000000
00000000
00200000
00200000
00200000
00600000
00600000
00400000
00C00000
01800000
01000000
ENDCHAR
STARTCHAR 0157
ENCODING 343
SWIDTH 324 0
DWIDTH 18 0
BBX 22 40 -2 -11
BITMAP
0000FC
0043F8
00C600
00CC00
00D000
00B000
00E000
00C000
01C000
018000
018000
010000
010000
010000
030000
030000
030000
020000
020000
020000
060000
060000
040000
040000
040000
0C0000
0C0000
0C0000
080000
080000
000000
000000
180000
180000
100000
100000
300000
200000
600000
C00000
ENDCHAR
STARTCHAR 0158
ENCODING 344
SWIDTH 630 0
DWIDTH 35 0
BBX 30 50 2 0
BITMAP
00060040
00020080
00030300
00018600
00008C00
0000D800
00007000
00000000
00000000
00000000
01FFE000
01FFFF00
010001C0
01000070
03000030
03000018
0300000C
0200000C
02000004
02000004
06000004
06000004
0600000C
0400000C
04000008
04000018
0C000010
0C000030
0C000060
080000C0
08000300
08003E00
1FFFF000
18003000
10001000
10001800
10001800
30000C00
30000C00
30000400
20000600
20000200
20000300
60000300
60000180
60000180
40000080
400000C0
40000040
C0000060
ENDCHAR
STARTCHAR 0159
ENCODING 345
SWIDTH 324 0
DWIDTH 18 0
BBX 20 41 2 0
BITMAP
010030
018060
00C0C0
004180
006300
003E00
001C00
000000
000000
000000
000000
000FC0
043F80
0C6000
0CC000
0D0000
0B0000
0E0000
0C0000
1C0000
180000
180000
100000
100000
100000
300000
300000
300000
200000
200000
200000
600000
600000
400000
400000
400000
C00000
C00000
C00000
800000
800000
ENDCHAR
STARTCHAR 015A
ENCODING 346
SWIDTH 558 0
DWIDTH 31 0
BBX 30 52 1 -1
BITMAP
00000060
000000C0
00000180
00000100
00000200
00000600
00000C00
00000000
00000000
00000000
00000000
0001FE00
000FCFC0
003800E0
00600030
00C00018
0180000C
0300000C
02000004
06000004
06000004
06000004
06000004
06000000
06000000
03000000
01800000
01C00000
00700000
001E0000
0007C000
0000F000
00001E00
00000700
00000180
000000C0
00000060
00000020
00000030
00000030
40000030
C0000030
40000020
40000060
40000060
600000C0
30000180
38000300
1C000E00
07807800
01FFE000
000C0000
ENDCHAR
STARTCHAR 015B
ENCODING 347
SWIDTH 468 0
DWIDTH 26 0
BBX 23 43 1 -1
BITMAP
00000C
000018
000010
000020
000060
0000C0
000180
000300
000000
000000
000000
000000
001F80
00FFF0
01C018
03000C
060006
0C0002
080002
080002
080000
080000
0C0000
0C0000
070000
01C000
007800
000F00
0001C0
000060
000030
000018
000008
000008
000008
C00018
C00018
400030
600070
3000E0
1C0380
07FE00
004000
ENDCHAR
STARTCHAR 015C
ENCODING 348
SWIDTH 558 0
DWIDTH 31 0
BBX 30 51 1 -1
BITMAP
00000E00
00001A00
00003300
00006180
0000C0C0
00038060
00000060
00000000
00000000
00000000
0001FE00
000FCFC0
003800E0
00600030
00C00018
0180000C
0300000C
02000004
06000004
06000004
06000004
06000004
06000000
06000000
03000000
01800000
01C00000
00700000
001E0000
0007C000
0000F000
00001E00
00000700
00000180
000000C0
00000060
00000020
00000030
00000030
40000030
C0000030
40000020
40000060
40000060
600000C0
30000180
38000300
1C000E00
07807800
01FFE000
000C0000
ENDCHAR
STARTCHAR 015D
ENCODING 349
SWIDTH 468 0
DWIDTH 26 0
BBX 23 42 1 -1
BITMAP
000180
0003C0
000660
000C30
001830
003018
00600C
000000
000000
000000
000000
001F80
00FFF0
01C018
03000C
060006
0C0002
080002
080002
080000
080000
0C0000
0C0000
070000
01C000
007800
000F00
0001C0
000060
000030
000018
000008
000008
000008
C00018
C00018
400030
600070
3000E0
1C0380
07FE00
004000
ENDCHAR
STARTCHAR 015E
ENCODING 350
SWIDTH 558 0
DWIDTH 31 0
BBX 30 52 1 -12
BITMAP
0001FE00
000FCFC0
003800E0
00600030
00C00018
0180000C
0300000C
02000004
06000004
06000004
06000004
06000004
06000000
06000000
03000000
01800000
01C00000
00700000
001E0000
0007C000
0000F000
00001E00
00000700
00000180
000000C0
00000060
00000020
00000030
00000030
40000030
C0000030
40000020
40000060
40000060
600000C0
30000180
38000300
1C000E00
07807800
01FFE000
000C0000
00080000
001C0000
001F0000
00030000
00018000
00018000
00018000
00010000
00070000
003C0000
00F00000
ENDCHAR
STARTCHAR 015F
ENCODING 351
SWIDTH 468 0
DWIDTH 26 0
BBX 23 42 1 -12
BITMAP
001F80
00FFF0
01C018
03000C
060006
0C0002
080002
080002
080000
080000
0C0000
0C0000
070000
01C000
007800
000F00
0001C0
000060
000030
000018
000008
000008
000008
C00018
C00018
400030
600070
3000E0
1C0380
07FE00
006000
004000
00E000
007800
000C00
000C00
000C00
000C00
000800
003800
03E000
078000
ENDCHAR
STARTCHAR 0160
ENCODING 352
SWIDTH 558 0
DWIDTH 31 0
BBX 30 51 1 -1
BITMAP
00018030
0000C060
000040C0
00006180
00003300
00001600
00001C00
00000000
00000000
00000000
0001FE00
000FCFC0
003800E0
00600030
00C00018
0180000C
0300000C
02000004
06000004
06000004
06000004
06000004
06000000
06000000
03000000
01800000
01C00000
00700000
001E0000
0007C000
0000F000
00001E00
00000700
00000180
000000C0
00000060
00000020
00000030
00000030
40000030
C0000030
40000020
40000060
40000060
600000C0
30000180
38000300
1C000E00
07807800
01FFE000
000C0000
ENDCHAR
STARTCHAR 0161
ENCODING 353
SWIDTH 468 0
DWIDTH 26 0
BBX 23 42 1 -1
BITMAP
003006
00100C
001818
000C30
000460
0006C0
000380
000000
000000
000000
000000
001F80
00FFF0
01C018
03000C
060006
0C0002
080002
080002
080000
080000
0C0000
0C0000
070000
01C000
007800
000F00
0001C0
000060
000030
000018
000008
000008
000008
C00018
C00018
400030
600070
3000E0
1C0380
07FE00
004000
ENDCHAR
STARTCHAR 0162
ENCODING 354
SWIDTH 576 0
DWIDTH 32 0
BBX 30 52 5 -12
BITMAP
FFFFFFFC
FFFFFFFC
00030000
00020000
00020000
00020000
00060000
00060000
00040000
00040000
00040000
000C0000
000C0000
000C0000
00080000
00080000
00080000
00180000
00180000
00180000
00100000
00100000
00100000
00300000
00300000
00300000
00200000
00200000
00200000
00600000
00600000
00600000
00400000
00400000
00400000
00C00000
00C00000
00800000
00800000
00800000
01800000
01800000
01C00000
00E00000
00300000
00100000
00100000
00300000
00300000
00E00000
0F800000
0C000000
ENDCHAR
STARTCHAR 0163
ENCODING 355
SWIDTH 306 0
DWIDTH 17 0
BBX 13 49 3 -12
BITMAP
0100
0100
0300
0300
0300
0200
0200
0200
FFF8
0600
0600
0400
0400
0C00
0C00
0C00
0800
0800
0800
1800
1800
1800
1000
1000
1000
3000
3000
3000
2000
2000
2000
6000
6000
2000
2000
3000
1F80
0F00
0800
1E00
0F00
0180
0080
0080
0180
0100
0700
7C00
6000
ENDCHAR
STARTCHAR 0164
ENCODING 356
SWIDTH 576 0
DWIDTH 32 0
BBX 30 49 5 0
BITMAP
00100600
00180C00
000C1800
00043000
00066000
0003C000
00018000
00000000
00000000
FFFFFFFC
FFFFFFFC
00030000
00020000
00020000
00020000
00060000
00060000
00040000
00040000
00040000
000C0000
000C0000
000C0000
00080000
00080000
00080000
00180000
00180000
00180000
00100000
00100000
00100000
00300000
00300000
00300000
00200000
00200000
00200000
00600000
00600000
00600000
00400000
00400000
00400000
00C00000
00C00000
00800000
00800000
00800000
ENDCHAR
STARTCHAR 0165
ENCODING 357
SWIDTH 324 0
DWIDTH 18 0
BBX 16 43 3 -1
BITMAP
0001
0001
0001
0003
0002
0106
0104
030C
0300
0300
0200
0200
0200
FFF8
0600
0600
0400
0400
0C00
0C00
0C00
0800
0800
0800
1800
1800
1800
1000
1000
1000
3000
3000
3000
2000
2000
2000
6000
6000
2000
2000
3000
1F80
0300
ENDCHAR
STARTCHAR 0166
ENCODING 358
SWIDTH 576 0
DWIDTH 32 0
BBX 30 40 5 0
BITMAP
FFFFFFFC
FFFFFFFC
00030000
00020000
00020000
00020000
00060000
00060000
00040000
00040000
00040000
000C0000
000C0000
000C0000
00080000
00080000
0FFFF000
00180000
00180000
00180000
00100000
00100000
00100000
00300000
00300000
00300000
00200000
00200000
00200000
00600000
00600000
00600000
00400000
00400000
00400000
00C00000
00C00000
00800000
00800000
00800000
ENDCHAR
STARTCHAR 0167
ENCODING 359
SWIDTH 306 0
DWIDTH 17 0
BBX 16 38 1 -1
BITMAP
0040
0040
00C0
00C0
00C0
0080
0080
0080
3FFE
0180
0180
0100
0100
0300
0300
0300
0200
0200
FFFF
FFFF
0600
0600
0400
0400
0400
0C00
0C00
0C00
0800
0800
0800
1800
1800
0800
0800
0C00
07E0
00C0
ENDCHAR
STARTCHAR 0168
ENCODING 360
SWIDTH 630 0
DWIDTH 35 0
BBX 31 50 4 -1
BITMAP
0003C010
0007E030
000C1830
00180FE0
001807C0
00000000
00000000
00000000
00000000
04000002
04000006
04000006
0C000006
0C000004
08000004
08000004
0800000C
1800000C
1800000C
18000008
10000008
10000008
10000018
30000018
30000018
30000010
20000010
20000010
20000030
60000030
60000020
60000020
40000020
40000060
40000060
C0000060
C0000040
C0000040
800000C0
C00000C0
C0000080
C0000180
40000300
60000600
60000E00
30001C00
18003800
0E01E000
03FF8000
00180000
ENDCHAR
STARTCHAR 0169
ENCODING 361
SWIDTH 522 0
DWIDTH 29 0
BBX 25 41 3 -1
BITMAP
003E0180
00730100
00C1C300
00807E00
01803800
00000000
00000000
00000000
00000000
00000000
00000000
18000100
18000300
18000300
10000300
10000300
10000200
30000200
30000600
30000600
20000600
20000400
20000400
60000400
60000C00
60000C00
40000C00
40000800
40000800
C0000800
C0001800
C0001800
C0001800
C0003000
C0007000
40005000
6001F000
3003B000
380E3000
0FF82000
00800000
ENDCHAR
STARTCHAR 016A
ENCODING 362
SWIDTH 630 0
DWIDTH 35 0
BBX 31 49 4 -1
BITMAP
000FFFE0
000FFFE0
00000000
00000000
00000000
00000000
00000000
00000000
04000002
04000006
04000006
0C000006
0C000004
08000004
08000004
0800000C
1800000C
1800000C
18000008
10000008
10000008
10000018
30000018
30000018
30000010
20000010
20000010
20000030
60000030
60000020
60000020
40000020
40000060
40000060
C0000060
C0000040
C0000040
800000C0
C00000C0
C0000080
C0000180
40000300
60000600
60000E00
30001C00
18003800
0E01E000
03FF8000
00180000
ENDCHAR
STARTCHAR 016B
ENCODING 363
SWIDTH 522 0
DWIDTH 29 0
BBX 24 40 3 -1
BITMAP
007FFF
000000
000000
000000
000000
000000
000000
000000
000000
000000
180001
180003
180003
100003
100003
100002
300002
300006
300006
200006
200004
200004
600004
60000C
60000C
40000C
400008
400008
C00008
C00018
C00018
C00018
C00030
C00070
400050
6001F0
3003B0
380E30
0FF820
008000
ENDCHAR
STARTCHAR 016C
ENCODING 364
SWIDTH 630 0
DWIDTH 35 0
BBX 31 50 4 -1
BITMAP
000C0020
00040060
00040040
000600C0
00030380
0001FE00
00007800
00000000
00000000
04000002
04000006
04000006
0C000006
0C000004
08000004
08000004
0800000C
1800000C
1800000C
18000008
10000008
10000008
10000018
30000018
30000018
30000010
20000010
20000010
20000030
60000030
60000020
60000020
40000020
40000060
40000060
C0000060
C0000040
C0000040
800000C0
C00000C0
C0000080
C0000180
40000300
60000600
60000E00
30001C00
18003800
0E01E000
03FF8000
00180000
ENDCHAR
STARTCHAR 016D
ENCODING 365
SWIDTH 522 0
DWIDTH 29 0
BBX 24 41 3 -1
BITMAP
004002
004006
006006
00300C
001C78
000FE0
000000
000000
000000
000000
000000
180001
180003
180003
100003
100003
100002
300002
300006
300006
200006
200004
200004
600004
60000C
60000C
40000C
400008
400008
C00008
C00018
C00018
C00018
C00030
C00070
400050
6001F0
3003B0
380E30
0FF820
008000
ENDCHAR
STARTCHAR 016E
ENCODING 366
SWIDTH 630 0
DWIDTH 35 0
BBX 31 52 4 -1
BITMAP
00001C00
00007E00
0000C300
00018100
00018100
00010300
00018300
00018600
0000FC00
00000000
00000000
04000002
04000006
04000006
0C000006
0C000004
08000004
08000004
0800000C
1800000C
1800000C
18000008
10000008
10000008
10000018
30000018
30000018
30000010
20000010
20000010
20000030
60000030
60000020
60000020
40000020
40000060
40000060
C0000060
C0000040
C0000040
800000C0
C00000C0
C0000080
C0000180
40000300
60000600
60000E00
30001C00
18003800
0E01E000
03FF8000
00180000
ENDCHAR
STARTCHAR 016F
ENCODING 367
SWIDTH 522 0
DWIDTH 29 0
BBX 24 43 3 -1
BITMAP
0003E0
000630
000C10
000818
001818
001810
000830
000EE0
0007C0
000000
000000
000000
000000
180001
180003
180003
100003
100003
100002
300002
300006
300006
200006
200004
200004
600004
60000C
60000C
40000C
400008
400008
C00008
C00018
C00018
C00018
C00030
C00070
400050
6001F0
3003B0
380E30
0FF820
008000
ENDCHAR
STARTCHAR 0170
ENCODING 368
SWIDTH 630 0
DWIDTH 35 0
BBX 31 51 4 -1
BITMAP
0000060E
00000C18
00001830
00003060
000060C0
0000C180
00018300
00030600
00000000
00000000
04000002
04000006
04000006
0C000006
0C000004
08000004
08000004
0800000C
1800000C
1800000C
18000008
10000008
10000008
10000018
30000018
30000018
30000010
20000010
20000010
20000030
60000030
60000020
60000020
40000020
40000060
40000060
C0000060
C0000040
C0000040
800000C0
C00000C0
C0000080
C0000180
40000300
60000600
60000E00
30001C00
18003800
0E01E000
03FF8000
00180000
ENDCHAR
STARTCHAR 0171
ENCODING 369
SWIDTH 522 0
DWIDTH 29 0
BBX 28 43 3 -1
BITMAP
00003070
000060C0
0000C180
00018300
00030600
00060C00
000C1800
00183000
00306000
00000000
00000000
00000000
00000000
18000100
18000300
18000300
10000300
10000300
10000200
30000200
30000600
30000600
20000600
20000400
20000400
60000400
60000C00
60000C00
40000C00
40000800
40000800
C0000800
C0001800
C0001800
C0001800
C0003000
C0007000
40005000
6001F000
3003B000
380E3000
0FF82000
00800000
ENDCHAR
STARTCHAR 0172
ENCODING 370
SWIDTH 630 0
DWIDTH 35 0
BBX 31 50 4 -10
BITMAP
04000002
04000006
04000006
0C000006
0C000004
08000004
08000004
0800000C
1800000C
1800000C
18000008
10000008
10000008
10000018
30000018
30000018
30000010
20000010
20000010
20000030
60000030
60000020
60000020
40000020
40000060
40000060
C0000060
C0000040
C0000040
800000C0
C00000C0
C0000080
C0000180
40000300
60000600
60000E00
30001C00
18003800
0E01E000
03FFC000
001B0000
00060000
000C0000
00180000
00100000
00100000
00300000
00100000
001F8000
000F0000
ENDCHAR
STARTCHAR 0173
ENCODING 371
SWIDTH 522 0
DWIDTH 29 0
BBX 24 40 3 -11
BITMAP
180001
180003
180003
100003
100003
100002
300002
300006
300006
200006
200004
200004
600004
60000C
60000C
40000C
400008
400008
C00008
C00018
C00018
C00018
C00030
C00070
400050
6001F0
3003B0
380E30
0FF820
008060
000180
000300
000600
000400
000C00
000800
000800
000C00
000FE0
000300
ENDCHAR
STARTCHAR 0174
ENCODING 372
SWIDTH 864 0
DWIDTH 48 0
BBX 45 50 5 0
BITMAP
000000800000
000001C00000
000003600000
00000E300000
00001C180000
000030180000
0000600C0000
000000000000
000000000000
000000000000
C00003000000
C00003000008
C00007000018
400005000018
40000D000010
40000D800030
400009800020
600019800060
600010800060
6000308000C0
6000208000C0
600060800080
600040C00180
2000C0C00100
200080C00300
200180C00300
200180400200
300100400600
300300400400
300200400C00
300600600C00
300400600800
100C00601800
100800201000
101800203000
101800202000
183000206000
183000306000
182000304000
18600030C000
184000308000
08C000118000
088000118000
098000130000
098000130000
0900001A0000
0F00001E0000
0E00001C0000
0E00000C0000
0C00000C0000
ENDCHAR
STARTCHAR 0175
ENCODING 373
SWIDTH 720 0
DWIDTH 40 0
BBX 35 41 5 0
BITMAP
0000300000
0000780000
0000CC0000
0001860000
0003030000
0006030000
000C018000
0000000000
0000000000
0000000000
0000000000
0000000000
8000C00060
8000C00060
8001E00040
80016000C0
C003600080
C003600180
C006200180
C006200300
C00C200300
400C300600
4008300600
4018300400
4010300C00
6030100800
6020101800
6060101000
6040103000
60C0183000
6080186000
2180186000
210008C000
230008C000
2200088000
3600098000
34000D0000
3C000F0000
38000E0000
3800060000
1000060000
ENDCHAR
STARTCHAR 0176
ENCODING 374
SWIDTH 576 0
DWIDTH 32 0
BBX 30 50 5 0
BITMAP
00008000
0001C000
00036000
00063000
000C3000
00181800
00700C00
00000000
00000000
00000000
C0000000
C000000C
60000018
60000030
20000060
30000040
300000C0
18000180
18000300
08000200
0C000600
0C000C00
06001800
06001000
02003000
03006000
0100C000
01808000
01818000
00830000
00C60000
00440000
006C0000
00380000
00300000
00200000
00200000
00200000
00600000
00600000
00600000
00400000
00400000
00400000
00C00000
00C00000
00C00000
00800000
00800000
00800000
ENDCHAR
STARTCHAR 0177
ENCODING 375
SWIDTH 450 0
DWIDTH 25 0
BBX 29 53 -2 -12
BITMAP
00001800
00007C00
0000E400
00018600
00030300
00060180
000C00C0
00000000
00000000
00000000
00000000
00000000
02000018
02000030
03000030
03000060
03000060
010000C0
01000080
01800180
01800100
00800300
00800200
00C00600
00C00C00
00C00C00
00401800
00401800
00603000
00602000
00606000
00204000
0020C000
00308000
00318000
00130000
00130000
001E0000
001E0000
001C0000
000C0000
00180000
00100000
00300000
00200000
00600000
00400000
00C00000
01800000
03000000
06000000
FC000000
F0000000
ENDCHAR
STARTCHAR 0178
ENCODING 376
SWIDTH 576 0
DWIDTH 32 0
BBX 30 48 5 0
BITMAP
00700700
00700700
00000000
00000000
00000000
00000000
00000000
00000000
C0000000
C000000C
60000018
60000030
20000060
30000040
300000C0
18000180
18000300
08000200
0C000600
0C000C00
06001800
06001000
02003000
03006000
0100C000
01808000
01818000
00830000
00C60000
00440000
006C0000
00380000
00300000
00200000
00200000
00200000
00600000
00600000
00600000
00400000
00400000
00400000
00C00000
00C00000
00C00000
00800000
00800000
00800000
ENDCHAR
STARTCHAR 0179
ENCODING 377
SWIDTH 576 0
DWIDTH 32 0
BBX 33 50 0 0
BITMAP
0000006000
000000C000
0000018000
0000030000
0000020000
0000040000
00000C0000
0000000000
0000000000
0000000000
00FFFFFF00
01FFFFFF80
0000000300
0000000600
0000000400
0000000800
0000001800
0000003000
0000006000
000000C000
0000018000
0000010000
0000030000
0000060000
00000C0000
0000180000
0000300000
0000200000
0000600000
0000C00000
0001800000
0003000000
0006000000
0004000000
000C000000
0018000000
0030000000
0060000000
00C0000000
0080000000
0180000000
0300000000
0600000000
0C00000000
1800000000
1000000000
3000000000
6000000000
C000000000
FFFFFFE000
ENDCHAR
STARTCHAR 017A
ENCODING 378
SWIDTH 450 0
DWIDTH 25 0
BBX 25 42 0 0
BITMAP
00000600
00000400
00000C00
00001800
00003000
00006000
0000C000
00008000
00000000
00000000
00000000
00000000
00000000
07FFFF80
00000180
00000300
00000600
00000C00
00001800
00003000
00006000
00004000
0000C000
00018000
00030000
00060000
000C0000
00180000
00300000
00200000
00600000
00C00000
01800000
03000000
06000000
0C000000
18000000
10000000
30000000
60000000
C0000000
FFFFFC00
ENDCHAR
STARTCHAR 017B
ENCODING 379
SWIDTH 576 0
DWIDTH 32 0
BBX 33 48 0 0
BITMAP
00000E0000
00000E0000
00000C0000
0000000000
0000000000
0000000000
0000000000
0000000000
00FFFFFF00
01FFFFFF80
0000000300
0000000600
0000000400
0000000800
0000001800
0000003000
0000006000
000000C000
0000018000
0000010000
0000030000
0000060000
00000C0000
0000180000
0000300000
0000200000
0000600000
0000C00000
0001800000
0003000000
0006000000
0004000000
000C000000
0018000000
0030000000
0060000000
00C0000000
0080000000
0180000000
0300000000
0600000000
0C00000000
1800000000
1000000000
3000000000
6000000000
C000000000
FFFFFFE000
ENDCHAR
STARTCHAR 017C
ENCODING 380
SWIDTH 450 0
DWIDTH 25 0
BBX 25 39 0 0
BITMAP
0000E000
0000E000
00004000
00000000
00000000
00000000
00000000
00000000
00000000
00000000
07FFFF80
00000180
00000300
00000600
00000C00
00001800
00003000
00006000
00004000
0000C000
00018000
00030000
00060000
000C0000
00180000
00300000
00200000
00600000
00C00000
01800000
03000000
06000000
0C000000
18000000
10000000
30000000
60000000
C0000000
FFFFFC00
ENDCHAR
STARTCHAR 017D
ENCODING 381
SWIDTH 576 0
DWIDTH 32 0
BBX 33 50 0 0
BITMAP
0001801000
0000802000
0000C04000
0000608000
0000330000
0000160000
00001C0000
0000000000
0000000000
0000000000
00FFFFFF00
01FFFFFF80
0000000300
0000000600
0000000400
0000000800
0000001800
0000003000
0000006000
000000C000
0000018000
0000010000
0000030000
0000060000
00000C0000
0000180000
0000300000
0000200000
0000600000
0000C00000
0001800000
0003000000
0006000000
0004000000
000C000000
0018000000
0030000000
0060000000
00C0000000
0080000000
0180000000
0300000000
0600000000
0C00000000
1800000000
1000000000
3000000000
6000000000
C000000000
FFFFFFE000
ENDCHAR
STARTCHAR 017E
ENCODING 382
SWIDTH 450 0
DWIDTH 25 0
BBX 25 41 0 0
BITMAP
00180300
000C0600
00040C00
00061800
00033000
00016000
0001C000
00000000
00000000
00000000
00000000
00000000
07FFFF80
00000180
00000300
00000600
00000C00
00001800
00003000
00006000
00004000
0000C000
00018000
00030000
00060000
000C0000
00180000
00300000
00200000
00600000
00C00000
01800000
03000000
06000000
0C000000
18000000
10000000
30000000
60000000
C0000000
FFFFFC00
ENDCHAR
STARTCHAR 017F
ENCODING 383
SWIDTH 198 0
DWIDTH 11 0
BBX 18 42 2 0
BITMAP
001FC0
007000
00C000
018000
018000
030000
030000
020000
020000
060000
060000
060000
040000
040000
0C0000
0C0000
0C0000
080000
080000
080000
180000
180000
180000
100000
100000
100000
300000
300000
300000
200000
200000
200000
600000
600000
600000
400000
400000
400000
C00000
C00000
C00000
800000
ENDCHAR
STARTCHAR 018F
ENCODING 399
SWIDTH 684 0
DWIDTH 38 0
BBX 32 41 4 -1
BITMAP
0003FE00
001FCFC0
00780060
01C00038
03000008
0200000C
00000006
00000002
00000003
00000003
00000001
00000001
00000001
00000001
00000001
00000001
00000001
00000001
00000003
00000003
00000003
FFFFFFFE
C0000002
C0000006
80000006
80000004
8000000C
8000000C
80000008
80000018
C0000010
C0000030
40000060
600000C0
20000080
30000380
18000700
0E000C00
07807800
01FFE000
00100000
ENDCHAR
STARTCHAR 0192
ENCODING 402
SWIDTH 288 0
DWIDTH 16 0
BBX 27 54 -6 -12
BITMAP
000007E0
00001C00
00003000
00006000
00004000
0000C000
00008000
00008000
00018000
00018000
00018000
00010000
00010000
003FFF00
00030000
00030000
00030000
00020000
00020000
00020000
00060000
00060000
00060000
00040000
00040000
00040000
000C0000
000C0000
000C0000
000C0000
00080000
00080000
00080000
00180000
00180000
00180000
00100000
00100000
00100000
00300000
00300000
00300000
00300000
00200000
00200000
00600000
00600000
00400000
00C00000
00800000
01800000
03000000
FE000000
F8000000
ENDCHAR
STARTCHAR 01A0
ENCODING 416
SWIDTH 684 0
DWIDTH 38 0
BBX 39 43 4 -1
BITMAP
0000000006
0000000006
0001FE0004
000FCF800C
003800C008
0060006018
00C0003030
0180001860
0300000FC0
0600000F00
0400000C00
0C00000400
0800000400
1800000600
1000000600
3000000600
3000000600
2000000600
2000000400
6000000400
6000000400
6000000C00
4000000C00
4000000C00
4000000800
C000000800
C000000800
C000001800
C000001800
C000001000
C000003000
C000002000
C000006000
4000004000
400000C000
6000018000
2000030000
3000060000
18000C0000
0C00380000
0700F00000
01FFC00000
0034000000
ENDCHAR
STARTCHAR 01A1
ENCODING 417
SWIDTH 522 0
DWIDTH 29 0
BBX 31 32 2 -1
BITMAP
00000002
00000006
000FC004
007FF00C
01C01C08
03800638
060007E0
0C000300
18000100
18000180
30000180
20000080
60000080
60000080
40000080
C0000080
C0000080
80000180
80000180
80000180
80000100
80000300
80000200
80000600
C0000600
C0000C00
40001800
60003800
30007000
1800C000
0E038000
07FE0000
ENDCHAR
STARTCHAR 01AF
ENCODING 431
SWIDTH 630 0
DWIDTH 35 0
BBX 39 43 4 -1
BITMAP
0000000006
0000000006
0400000204
0400000604
040000060C
0C00000618
0C00000430
0800000460
08000007C0
0800000C00
1800000C00
1800000C00
1800000800
1000000800
1000000800
1000001800
3000001800
3000001800
3000001000
2000001000
2000001000
2000003000
6000003000
6000002000
6000002000
4000002000
4000006000
4000006000
C000006000
C000004000
C000004000
800000C000
C00000C000
C000008000
C000018000
4000030000
6000060000
60000E0000
30001C0000
1800380000
0E01E00000
03FF800000
0018000000
ENDCHAR
STARTCHAR 01B0
ENCODING 432
SWIDTH 522 0
DWIDTH 29 0
BBX 31 33 3 -1
BITMAP
00000006
00000006
00000004
1800010C
18000318
18000330
100003E0
10000380
10000200
30000200
30000600
30000600
20000600
20000400
20000400
60000400
60000C00
60000C00
40000C00
40000800
40000800
C0000800
C0001800
C0001800
C0001800
C0003000
C0007000
40005000
6001F000
3003B000
380E3000
0FF82000
00800000
ENDCHAR
STARTCHAR 01F0
ENCODING 496
SWIDTH 198 0
DWIDTH 11 0
BBX 25 52 -9 -12
BITMAP
000C0180
00040300
00060600
00030C00
00011800
0001B000
0000E000
00000000
00000000
00000000
00000000
00008000
00008000
00008000
00018000
00018000
00018000
00010000
00010000
00010000
00030000
00030000
00030000
00020000
00020000
00020000
00060000
00060000
00060000
00040000
00040000
00040000
000C0000
000C0000
000C0000
00080000
00080000
00180000
00180000
00180000
00100000
00100000
00100000
00300000
00300000
00200000
00600000
00400000
00C00000
03800000
FF000000
7C000000
ENDCHAR
STARTCHAR 01FA
ENCODING 506
SWIDTH 576 0
DWIDTH 32 0
BBX 30 52 -2 0
BITMAP
0000001C
00000038
00000070
000000C0
00000180
00000000
00000000
00000780
00000CC0
00001840
00001040
000010C0
00001B80
00000F00
00000E00
00000B00
00001B00
00001300
00003100
00006100
00006100
0000C180
00008180
00018080
00010080
00030080
000200C0
000600C0
00040040
000C0040
00080040
00180060
00300060
00300060
00600020
00400020
00C00030
00800030
01800030
01FFFFF0
03000010
02000018
06000018
04000018
0C000008
08000008
18000008
3000000C
3000000C
6000000C
40000004
C0000004
ENDCHAR
STARTCHAR 01FB
ENCODING 507
SWIDTH 504 0
DWIDTH 28 0
BBX 24 44 1 -1
BITMAP
000003
000006
00000C
000018
000030
000000
0000E0
0001F0
000318
000218
000618
000610
0003F0
000FC0
007FF0
01C01C
030004
060006
0C0002
080003
180003
180003
000003
000002
000002
000002
000006
00FFFE
03E006
0E0004
180004
300004
60000C
C0000C
C0000C
800008
800018
800038
800078
C000D8
600398
300E18
1FF818
010000
ENDCHAR
STARTCHAR 01FC
ENCODING 508
SWIDTH 846 0
DWIDTH 47 0
BBX 50 50 -1 0
BITMAP
000000001C0000
00000000100000
00000000300000
00000000600000
00000000C00000
00000001800000
00000003000000
00000000000000
00000000000000
00000000000000
00000003FFFFC0
00000007FFFFC0
0000000E000000
0000001A000000
00000032000000
00000026000000
00000066000000
000000C6000000
00000186000000
00000104000000
00000304000000
00000604000000
00000C04000000
0000080C000000
0000180C000000
0000300C000000
00006008000000
00004008000000
0000C008000000
0001800FFFF800
00030018000000
00020018000000
00060018000000
000C0018000000
00180010000000
00300010000000
00300010000000
007FFFF0000000
00C00030000000
01800030000000
01800030000000
03000030000000
06000020000000
0C000020000000
08000020000000
18000060000000
30000060000000
60000060000000
40000060000000
C000007FFFF800
ENDCHAR
STARTCHAR 01FD
ENCODING 509
SWIDTH 810 0
DWIDTH 45 0
BBX 43 43 1 -1
BITMAP
000000030000
000000060000
0000000C0000
000000180000
000000300000
000000600000
000000400000
000000800000
000000000000
000000000000
000000000000
000000000000
000FC001F800
007FF007FE00
01C0181C0380
030008300180
06000C6000C0
0C0004C00040
080005800060
180007800060
180007000020
000006000020
000006000020
000006000060
000004000060
00FFFFFFFFE0
03F00C000000
0E000C000000
180008000000
300008000000
600008000000
400018000000
C00018000000
C00018000000
800018000000
80001C000000
800034000000
C00066000000
C000C2000300
600383000E00
380E01C07800
1FFC007FE000
008000040000
ENDCHAR
STARTCHAR 01FE
ENCODING 510
SWIDTH 630 0
DWIDTH 35 0
BBX 35 54 2 -2
BITMAP
0000003000
0000006000
0000004000
0000008000
0000018000
0000030000
0000060000
0000000000
0000000000
0000000000
0000000000
0000000060
0000FF00C0
0007E7C180
001E006180
0038003300
0060001E00
00C0000C00
0180001C00
0300001E00
0300003200
0600006200
040000C300
0C00008300
0800018300
0800030300
1800060300
10000C0300
1000080300
1000180300
3000300200
3000600200
3000C00600
2000C00600
2001800600
2003000400
6006000400
600C000C00
600C000C00
6018000800
6030001800
6060001800
2040003000
20C0003000
3180006000
330000C000
1E00008000
0C00018000
0C00070000
1E000C0000
3380780000
60FFE00000
6004000000
C000000000
ENDCHAR
STARTCHAR 01FF
ENCODING 511
SWIDTH 522 0
DWIDTH 29 0
BBX 25 46 2 -4
BITMAP
00000800
00001800
00003000
00006000
0000C000
00018000
00030000
00020000
00000000
00000180
00000100
00000300
000FC600
007FF600
01C01C00
03801E00
06001E00
0C003300
18002100
18006180
3000C180
20008080
60018080
60030080
40020080
C0060080
C00C0080
80080180
80180180
80300180
80300100
80600300
80400200
80C00600
C1800600
C1000C00
43001800
66003800
34007000
1C00C000
1E038000
17FE0000
30000000
60000000
60000000
C0000000
ENDCHAR
STARTCHAR 0218
ENCODING 536
SWIDTH 558 0
DWIDTH 31 0
BBX 30 51 1 -12
BITMAP
0001FE00
000FCFC0
003800E0
00600030
00C00018
0180000C
0300000C
02000004
06000004
06000004
06000004
06000004
06000000
06000000
03000000
01800000
01C00000
00700000
001E0000
0007C000
0000F000
00001E00
00000700
00000180
000000C0
00000060
00000020
00000030
00000030
40000030
C0000030
40000020
40000060
40000060
600000C0
30000180
38000300
1C000E00
07807800
01FFE000
000C0000
00000000
00000000
00080000
00180000
00180000
00100000
00300000
00300000
00600000
00400000
ENDCHAR
STARTCHAR 0219
ENCODING 537
SWIDTH 468 0
DWIDTH 26 0
BBX 23 41 1 -11
BITMAP
001F80
00FFF0
01C018
03000C
060006
0C0002
080002
080002
080000
080000
0C0000
0C0000
070000
01C000
007800
000F00
0001C0
000060
000030
000018
000008
000008
000008
C00018
C00018
400030
600070
3000E0
1C0380
07FE00
004000
000000
000000
004000
00C000
00C000
008000
008000
018000
030000
020000
ENDCHAR
STARTCHAR 021A
ENCODING 538
SWIDTH 576 0
DWIDTH 32 0
BBX 30 51 5 -11
BITMAP
FFFFFFFC
FFFFFFFC
00030000
00020000
00020000
00020000
00060000
00060000
00040000
00040000
00040000
000C0000
000C0000
000C0000
00080000
00080000
00080000
00180000
00180000
00180000
00100000
00100000
00100000
00300000
00300000
00300000
00200000
00200000
00200000
00600000
00600000
00600000
00400000
00400000
00400000
00C00000
00C00000
00800000
00800000
00800000
00000000
00000000
00000000
01000000
01000000
01000000
03000000
02000000
06000000
04000000
0C000000
ENDCHAR
STARTCHAR 021B
ENCODING 539
SWIDTH 306 0
DWIDTH 17 0
BBX 13 48 3 -11
BITMAP
0100
0100
0300
0300
0300
0200
0200
0200
FFF8
0600
0600
0400
0400
0C00
0C00
0C00
0800
0800
0800
1800
1800
1800
1000
1000
1000
3000
3000
3000
2000
2000
2000
6000
6000
2000
2000
3000
1F80
0300
0000
0000
0800
0800
1800
1800
1000
3000
6000
4000
ENDCHAR
STARTCHAR 0237
ENCODING 567
SWIDTH 198 0
DWIDTH 11 0
BBX 17 41 -9 -12
BITMAP
000080
000080
000080
000180
000180
000180
000100
000100
000100
000300
000300
000300
000200
000200
000200
000600
000600
000600
000400
000400
000400
000C00
000C00
000C00
000800
000800
001800
001800
001800
001000
001000
001000
003000
003000
002000
006000
004000
00C000
038000
FF0000
7C0000
ENDCHAR
STARTCHAR 0259
ENCODING 601
SWIDTH 486 0
DWIDTH 27 0
BBX 24 31 1 -1
BITMAP
001F80
00FFE0
038038
060008
08000C
000006
000002
000003
000003
000001
000001
000001
000001
000001
000003
000003
7FFFFF
7FFFFE
C00002
C00006
C00004
C0000C
C00008
400018
400030
600060
3000C0
380180
1C0700
07FC00
004000
ENDCHAR
STARTCHAR 02BC
ENCODING 700
SWIDTH 144 0
DWIDTH 8 0
BBX 5 11 5 31
BITMAP
08
08
18
18
10
10
30
20
60
C0
80
ENDCHAR
STARTCHAR 02C6
ENCODING 710
SWIDTH 360 0
DWIDTH 20 0
BBX 13 7 7 34
BITMAP
0180
07C0
0E40
1860
3030
6018
C018
ENDCHAR
STARTCHAR 02C7
ENCODING 711
SWIDTH 360 0
DWIDTH 20 0
BBX 13 7 8 34
BITMAP
C018
6030
6060
30C0
1980
0B00
0E00
ENDCHAR
STARTCHAR 02C9
ENCODING 713
SWIDTH 378 0
DWIDTH 21 0
BBX 15 1 7 38
BITMAP
FFFE
ENDCHAR
STARTCHAR 02D8
ENCODING 728
SWIDTH 396 0
DWIDTH 22 0
BBX 14 6 8 34
BITMAP
8004
800C
8008
C038
7070
3FC0
ENDCHAR
STARTCHAR 02D9
ENCODING 729
SWIDTH 198 0
DWIDTH 11 0
BBX 3 2 8 36
BITMAP
E0
E0
ENDCHAR
STARTCHAR 02DA
ENCODING 730
SWIDTH 270 0
DWIDTH 15 0
BBX 9 9 7 33
BITMAP
3E00
7300
C180
8180
8180
8100
8300
E600
7C00
ENDCHAR
STARTCHAR 02DB
ENCODING 731
SWIDTH 216 0
DWIDTH 12 0
BBX 7 11 -2 -10
BITMAP
06
0C
10
20
60
40
C0
C0
C2
7E
38
ENDCHAR
STARTCHAR 02DC
ENCODING 732
SWIDTH 378 0
DWIDTH 21 0
BBX 18 5 5 35
BITMAP
0E00C0
3F8080
60C180
407700
C03E00
ENDCHAR
STARTCHAR 02DD
ENCODING 733
SWIDTH 360 0
DWIDTH 20 0
BBX 17 9 7 33
BITMAP
018180
030700
070E00
0E1C00
0C3800
186000
30C000
618000
C30000
ENDCHAR
STARTCHAR 02F3
ENCODING 755
SWIDTH 288 0
DWIDTH 16 0
BBX 7 6 1 -9
BITMAP
3C
66
C2
C6
EE
78
ENDCHAR
STARTCHAR 0300
ENCODING 768
SWIDTH 0 0
DWIDTH 0 0
BBX 5 8 -15 34
BITMAP
C0
C0
60
20
30
10
18
08
ENDCHAR
STARTCHAR 0301
ENCODING 769
SWIDTH 0 0
DWIDTH 0 0
BBX 8 8 -12 34
BITMAP
03
06
0C
18
10
30
60
C0
ENDCHAR
STARTCHAR 0303
ENCODING 771
SWIDTH 0 0
DWIDTH 0 0
BBX 18 5 -19 35
BITMAP
0E00C0
3F8080
60C180
407700
C03E00
ENDCHAR
STARTCHAR 0309
ENCODING 777
SWIDTH 0 0
DWIDTH 0 0
BBX 8 10 -13 33
BITMAP
78
0E
03
03
03
06
1C
78
C0
C0
ENDCHAR
STARTCHAR 030F
ENCODING 783
SWIDTH 0 0
DWIDTH 0 0
BBX 14 7 -21 34
BITMAP
E1C0
60C0
3060
1830
0C30
0618
030C
ENDCHAR
STARTCHAR 0323
ENCODING 803
SWIDTH 0 0
DWIDTH 0 0
BBX 2 3 -20 -7
BITMAP
40
C0
C0
ENDCHAR
STARTCHAR 0384
ENCODING 900
SWIDTH 234 0
DWIDTH 13 0
BBX 5 8 9 35
BITMAP
08
18
10
30
20
60
40
C0
ENDCHAR
STARTCHAR 0385
ENCODING 901
SWIDTH 432 0
DWIDTH 24 0
BBX 15 8 9 37
BITMAP
00C0
00C0
00C0
0180
0180
E10C
E30E
C00C
ENDCHAR
STARTCHAR 0386
ENCODING 902
SWIDTH 576 0
DWIDTH 32 0
BBX 30 43 -2 0
BITMAP
00020000
00060000
00040000
000C0200
00080600
00180E00
00100B00
00301B00
00001300
00003100
00006100
00006100
0000C180
00008180
00018080
00010080
00030080
000200C0
000600C0
00040040
000C0040
00080040
00180060
00300060
00300060
00600020
00400020
00C00030
00800030
01800030
01FFFFF0
03000010
02000018
06000018
04000018
0C000008
08000008
18000008
3000000C
3000000C
6000000C
40000004
C0000004
ENDCHAR
STARTCHAR 0387
ENCODING 903
SWIDTH 216 0
DWIDTH 12 0
BBX 3 3 5 18
BITMAP
40
E0
E0
ENDCHAR
STARTCHAR 0388
ENCODING 904
SWIDTH 594 0
DWIDTH 33 0
BBX 34 43 1 0
BITMAP
0C00000000
1800000000
1800000000
301FFFFFC0
301FFFFFC0
6010000000
6030000000
C030000000
0030000000
0020000000
0020000000
0020000000
0060000000
0060000000
0060000000
0040000000
0040000000
0040000000
00C0000000
00C0000000
00C0000000
0080000000
00FFFFF000
0080000000
0180000000
0180000000
0100000000
0100000000
0100000000
0300000000
0300000000
0300000000
0200000000
0200000000
0200000000
0600000000
0600000000
0600000000
0400000000
0400000000
0400000000
0C00000000
0FFFFFF000
ENDCHAR
STARTCHAR 0389
ENCODING 905
SWIDTH 720 0
DWIDTH 40 0
BBX 37 43 2 0
BITMAP
1800000000
1000000000
3000000000
2020000008
6020000008
4020000008
C060000018
8060000018
0060000010
0040000010
0040000010
0040000030
00C0000030
00C0000030
00C0000020
0080000020
0080000020
0080000060
0180000060
0180000060
0180000040
0100000040
01FFFFFFC0
01000000C0
03000000C0
03000000C0
0200000080
0200000080
0200000080
0600000180
0600000180
0600000180
0400000100
0400000100
0400000100
0C00000300
0C00000300
0C00000200
0800000200
0800000200
0800000600
1800000600
1800000600
ENDCHAR
STARTCHAR 038A
ENCODING 906
SWIDTH 288 0
DWIDTH 16 0
BBX 12 43 3 0
BITMAP
1800
1000
3000
2030
6020
4020
C020
8060
0060
0040
0040
0040
00C0
00C0
00C0
0080
0080
0080
0180
0180
0180
0100
0100
0100
0300
0300
0300
0200
0200
0200
0600
0600
0600
0400
0400
0400
0C00
0C00
0800
0800
0800
1800
1800
ENDCHAR
STARTCHAR 038C
ENCODING 908
SWIDTH 648 0
DWIDTH 36 0
BBX 30 44 4 -1
BITMAP
0C000000
08000000
18000000
1003FC00
300FDF80
203801C0
60600060
40C00030
01800010
03000018
06000008
0C00000C
0800000C
18000004
10000004
30000004
30000004
20000004
60000004
60000004
60000004
4000000C
4000000C
4000000C
C0000008
C0000008
C0000008
80000018
80000018
80000010
80000030
80000030
80000020
C0000060
C00000C0
40000080
60000180
60000300
30000600
18000C00
0C003800
0700E000
03FF8000
00100000
ENDCHAR
STARTCHAR 038E
ENCODING 910
SWIDTH 612 0
DWIDTH 34 0
BBX 36 43 1 0
BITMAP
0C00000000
1800000000
1800000000
3100000000
3180000030
6180000020
40C0000060
C0C00000C0
0040000180
0060000100
0020000300
0030000600
0030000C00
0010000800
0018001800
0008003000
000C006000
000C004000
000400C000
0006018000
0002030000
0003020000
0001060000
00010C0000
0001980000
0000900000
0000E00000
0000600000
0000400000
0000400000
0000C00000
0000C00000
0000C00000
0000800000
0000800000
0000800000
0001800000
0001800000
0001000000
0001000000
0001000000
0003000000
0003000000
ENDCHAR
STARTCHAR 038F
ENCODING 911
SWIDTH 630 0
DWIDTH 35 0
BBX 32 43 1 0
BITMAP
00800000
01800000
01000000
03007F80
0203F7E0
06070070
041C0018
0C38000C
0060000C
00600006
00C00006
01800002
01800003
03000003
03000003
02000003
06000003
04000003
04000003
0C000003
0C000003
0C000002
08000002
08000002
08000006
18000006
18000004
1800000C
1800000C
18000008
08000018
08000010
08000030
0C000060
04000060
040000C0
06000180
03000300
01800600
00C01C00
00603800
00306000
FFF07FF0
ENDCHAR
STARTCHAR 0390
ENCODING 912
SWIDTH 252 0
DWIDTH 14 0
BBX 15 44 1 0
BITMAP
00E0
00C0
00C0
00C0
0180
618E
E00E
0004
0000
0000
0000
0000
0000
0000
0000
0200
0600
0600
0600
0400
0400
0400
0C00
0C00
0C00
0800
0800
1800
1800
1800
1000
1000
1000
3000
3000
3000
2000
2000
2000
2000
2000
3000
1800
0F80
ENDCHAR
STARTCHAR 0391
ENCODING 913
SWIDTH 576 0
DWIDTH 32 0
BBX 30 40 -2 0
BITMAP
00000200
00000600
00000E00
00000B00
00001B00
00001300
00003100
00006100
00006100
0000C180
00008180
00018080
00010080
00030080
000200C0
000600C0
00040040
000C0040
00080040
00180060
00300060
00300060
00600020
00400020
00C00030
00800030
01800030
01FFFFF0
03000010
02000018
06000018
04000018
0C000008
08000008
18000008
3000000C
3000000C
6000000C
40000004
C0000004
ENDCHAR
STARTCHAR 0392
ENCODING 914
SWIDTH 576 0
DWIDTH 32 0
BBX 27 40 3 0
BITMAP
03FF8000
03FFFC00
02000F00
02000180
020000C0
06000060
06000020
06000020
04000020
04000020
04000020
0C000060
0C000060
0C000040
080000C0
08000180
08000300
18000600
18003800
1FFFE000
1FFFF800
10000E00
30000300
30000180
30000080
200000C0
200000C0
200000C0
600000C0
600000C0
60000080
40000080
40000180
40000300
C0000300
C0000600
C0001C00
80007800
800FE000
FFFF0000
ENDCHAR
STARTCHAR 0393
ENCODING 915
SWIDTH 522 0
DWIDTH 29 0
BBX 30 40 2 0
BITMAP
01FFFFFC
01FFFFFC
01000000
01000000
03000000
03000000
03000000
02000000
02000000
02000000
06000000
06000000
06000000
04000000
04000000
0C000000
0C000000
0C000000
08000000
08000000
08000000
18000000
18000000
18000000
10000000
10000000
10000000
30000000
30000000
30000000
20000000
20000000
20000000
60000000
60000000
60000000
40000000
40000000
40000000
C0000000
ENDCHAR
STARTCHAR 0394
ENCODING 916
SWIDTH 666 0
DWIDTH 37 0
BBX 34 40 -1 0
BITMAP
0000010000
0000038000
0000038000
0000068000
00000C8000
000008C000
000018C000
0000104000
0000304000
0000606000
0000606000
0000C02000
0000802000
0001803000
0001003000
0003001000
0006001000
0004001800
000C001800
0008001800
0018000800
0030000800
0030000C00
0060000C00
0040000400
00C0000400
0080000600
0180000600
0300000200
0200000200
0600000300
0400000300
0C00000100
1800000100
1800000180
3000000180
2000000180
6000000080
40000000C0
FFFFFFFFC0
ENDCHAR
STARTCHAR 0395
ENCODING 917
SWIDTH 540 0
DWIDTH 30 0
BBX 30 40 3 0
BITMAP
03FFFFFC
03FFFFF8
02000000
02000000
02000000
06000000
06000000
06000000
04000000
04000000
04000000
0C000000
0C000000
08000000
08000000
08000000
18000000
18000000
18000000
1FFFFF00
10000000
10000000
30000000
30000000
30000000
20000000
20000000
20000000
60000000
60000000
60000000
40000000
40000000
40000000
C0000000
C0000000
C0000000
80000000
80000000
FFFFFE00
ENDCHAR
STARTCHAR 0396
ENCODING 918
SWIDTH 576 0
DWIDTH 32 0
BBX 33 40 0 0
BITMAP
00FFFFFF00
01FFFFFF80
0000000300
0000000600
0000000400
0000000800
0000001800
0000003000
0000006000
000000C000
0000018000
0000010000
0000030000
0000060000
00000C0000
0000180000
0000300000
0000200000
0000600000
0000C00000
0001800000
0003000000
0006000000
0004000000
000C000000
0018000000
0030000000
0060000000
00C0000000
0080000000
0180000000
0300000000
0600000000
0C00000000
1800000000
1000000000
3000000000
6000000000
C000000000
FFFFFFE000
ENDCHAR
STARTCHAR 0397
ENCODING 919
SWIDTH 666 0
DWIDTH 37 0
BBX 34 40 3 0
BITMAP
03000000C0
0300000080
0200000080
0200000080
0200000180
0600000180
0600000180
0600000100
0400000100
0400000100
0400000300
0C00000300
0C00000300
0800000200
0800000200
0800000200
1800000600
1800000600
1800000600
1FFFFFFC00
1000000400
1000000400
3000000C00
3000000C00
3000000800
2000000800
2000000800
2000001800
6000001800
6000001800
6000001000
4000001000
4000001000
4000003000
C000003000
C000003000
C000002000
8000002000
8000002000
8000006000
ENDCHAR
STARTCHAR 0398
ENCODING 920
SWIDTH 630 0
DWIDTH 35 0
BBX 31 41 3 -1
BITMAP
0001FE00
000FCF80
003C00C0
00700060
00C00030
01800018
03000008
0600000C
06000004
0C000004
08000006
18000006
10000006
10000006
30000006
20000006
20000006
20000006
60000004
60000004
60FFFE0C
4000000C
4000000C
40000008
C0000008
C0000018
C0000018
C0000010
C0000030
C0000030
40000060
40000060
600000C0
60000180
30000100
10000300
18000E00
0C001800
0700F000
01FFC000
00080000
ENDCHAR
STARTCHAR 0399
ENCODING 921
SWIDTH 252 0
DWIDTH 14 0
BBX 8 40 4 0
BITMAP
03
03
02
02
02
06
06
06
04
04
04
0C
0C
0C
08
08
08
18
18
18
10
10
10
30
30
20
20
20
60
60
60
40
40
40
C0
C0
C0
80
80
80
ENDCHAR
STARTCHAR 039A
ENCODING 922
SWIDTH 612 0
DWIDTH 34 0
BBX 32 40 3 0
BITMAP
03000000
03000007
0200000C
02000038
02000070
060000C0
06000180
06000300
04000600
04000C00
04003800
0C007000
0C00C000
08018000
08030000
08060000
180C0000
18380000
18700000
10D80000
11980000
130C0000
36060000
38060000
30030000
20018000
20008000
2000C000
60006000
60002000
60003000
40001800
40000800
40000C00
C0000600
C0000200
C0000300
80000180
80000080
800000C0
ENDCHAR
STARTCHAR 039B
ENCODING 923
SWIDTH 612 0
DWIDTH 34 0
BBX 29 40 0 0
BITMAP
00000400
00000C00
00001C00
00001600
00003600
00002600
00006200
00004200
0000C300
00008300
00018300
00010100
00030100
00060100
00060180
000C0180
000C0180
00180080
00100080
003000C0
002000C0
006000C0
00400040
00C00040
00800040
01800060
01000060
03000020
02000020
06000020
0C000030
0C000030
18000030
18000010
30000010
20000018
60000018
40000018
C0000008
80000008
ENDCHAR
STARTCHAR 039C
ENCODING 924
SWIDTH 828 0
DWIDTH 46 0
BBX 42 40 3 0
BITMAP
030000000040
0380000001C0
0380000001C0
038000000380
028000000680
06C000000680
06C000000D80
06C000000980
044000001980
046000003100
046000003100
0C6000006100
0C2000004300
08300000C300
083000018300
081000018200
181000030200
181800020200
181800060600
1008000C0600
1008000C0600
100C00180400
300C00100400
300400300400
300400600C00
200400600C00
200600C00C00
200200800800
600201800800
600201000800
600303001800
400106001800
400104001000
40010C001000
C00188001000
C00098003000
C000B0003000
8000A0003000
8000E0002000
800040002000
ENDCHAR
STARTCHAR 039D
ENCODING 925
SWIDTH 684 0
DWIDTH 38 0
BBX 34 40 3 0
BITMAP
03000000C0
03000000C0
03800000C0
0280000080
02C0000080
0640000080
0660000180
0620000180
0430000180
0410000100
0C18000100
0C08000100
0C0C000300
0C04000300
0806000300
0802000200
1803000200
1801000600
1801800600
1800800600
1000C00400
1000400400
3000600400
3000200C00
3000300C00
2000100C00
2000180800
2000080800
60000C0800
60000C1800
6000061800
4000061800
4000031000
4000031000
C000019000
C00001B000
C00000F000
800000F000
8000006000
8000006000
ENDCHAR
STARTCHAR 039E
ENCODING 926
SWIDTH 522 0
DWIDTH 29 0
BBX 30 40 0 0
BITMAP
01FFFFFC
01FFFFFC
00000000
00000000
00000000
00000000
00000000
00000000
00000000
00000000
00000000
00000000
00000000
00000000
00000000
00000000
00000000
00000000
00000000
00000000
03FFFF00
00000000
00000000
00000000
00000000
00000000
00000000
00000000
00000000
00000000
00000000
00000000
00000000
00000000
00000000
00000000
00000000
00000000
00000000
FFFFFF00
ENDCHAR
STARTCHAR 039F
ENCODING 927
SWIDTH 630 0
DWIDTH 35 0
BBX 31 41 3 -1
BITMAP
0001FE00
000FCF80
003C00C0
00700060
00C00030
01800018
03000008
0600000C
06000004
0C000004
08000006
18000006
10000006
10000006
30000006
20000006
20000006
20000006
60000004
60000004
6000000C
4000000C
4000000C
40000008
C0000008
C0000018
C0000018
C0000010
C0000030
C0000030
40000060
40000060
600000C0
60000180
30000100
30000300
18000E00
0C001800
0700F000
01FFC000
00080000
ENDCHAR
STARTCHAR 03A0
ENCODING 928
SWIDTH 666 0
DWIDTH 37 0
BBX 34 40 3 0
BITMAP
03FFFFFFC0
03FFFFFF80
0200000080
0200000080
0200000180
0600000180
0600000180
0600000100
0400000100
0400000100
0400000300
0C00000300
0C00000300
0C00000200
0800000200
0800000200
0800000600
1800000600
1800000600
1000000400
1000000400
1000000400
3000000C00
3000000C00
3000000800
2000000800
2000000800
2000001800
6000001800
6000001800
6000001000
4000001000
4000001000
4000003000
C000003000
C000003000
C000002000
8000002000
8000002000
8000006000
ENDCHAR
STARTCHAR 03A1
ENCODING 929
SWIDTH 576 0
DWIDTH 32 0
BBX 29 40 3 0
BITMAP
03FFC000
03FFFE00
02000380
020000C0
02000060
06000030
06000010
06000018
04000018
04000018
04000018
0C000018
0C000018
0C000010
08000030
08000030
08000060
18000060
180000C0
10000380
10000700
10003C00
3FFFF000
30000000
30000000
20000000
20000000
20000000
60000000
60000000
60000000
40000000
40000000
40000000
C0000000
C0000000
C0000000
80000000
80000000
80000000
ENDCHAR
STARTCHAR 03A3
ENCODING 931
SWIDTH 522 0
DWIDTH 29 0
BBX 31 40 -1 0
BITMAP
02FFFFFE
03FFFFFE
01800000
00C00000
00C00000
00600000
00300000
00300000
00180000
000C0000
000C0000
00060000
00030000
00030000
00018000
0000C000
0000C000
00006000
00002000
00006000
0000C000
00018000
00030000
00060000
00040000
000C0000
00180000
00300000
00600000
00C00000
01800000
03000000
06000000
04000000
0C000000
18000000
30000000
60000000
C0000000
FFFFFFC0
ENDCHAR
STARTCHAR 03A4
ENCODING 932
SWIDTH 576 0
DWIDTH 32 0
BBX 30 40 5 0
BITMAP
FFFFFFFC
FFFFFFFC
00030000
00020000
00020000
00020000
00060000
00060000
00040000
00040000
00040000
000C0000
000C0000
000C0000
00080000
00080000
00080000
00180000
00180000
00180000
00100000
00100000
00100000
00300000
00300000
00300000
00200000
00200000
00200000
00600000
00600000
00600000
00400000
00400000
00400000
00C00000
00C00000
00800000
00800000
00800000
ENDCHAR
STARTCHAR 03A5
ENCODING 933
SWIDTH 576 0
DWIDTH 32 0
BBX 30 40 5 0
BITMAP
C0000000
C000000C
60000018
60000030
20000060
30000040
300000C0
18000180
18000300
08000200
0C000600
0C000C00
06001800
06001000
02003000
03006000
0100C000
01808000
01818000
00830000
00C60000
00440000
006C0000
00380000
00300000
00200000
00200000
00200000
00600000
00600000
00600000
00400000
00400000
00400000
00C00000
00C00000
00C00000
00800000
00800000
00800000
ENDCHAR
STARTCHAR 03A6
ENCODING 934
SWIDTH 684 0
DWIDTH 38 0
BBX 34 40 3 0
BITMAP
0000180000
0000180000
0000180000
0000100000
0000100000
0000100000
0007FF8000
003E31E000
00F0303800
01C0200C00
0300200600
0E00200300
0C00600180
1800600180
3000600080
20004000C0
60004000C0
40004000C0
4000C000C0
C000C000C0
C000C00080
C000800080
8000800180
C001800180
C001800300
C001800300
4001000600
6001000C00
3001001800
1803003000
0C0300E000
0703038000
03E23F0000
007FF80000
0002000000
0006000000
0006000000
0006000000
0004000000
0004000000
ENDCHAR
STARTCHAR 03A7
ENCODING 935
SWIDTH 576 0
DWIDTH 32 0
BBX 34 40 -1 0
BITMAP
0100000000
01800000C0
0080000180
00C0000100
0040000300
0060000600
0020000C00
0030001800
0010003000
0018006000
000C006000
000C00C000
0006018000
0006030000
0003060000
00010C0000
0001880000
0000980000
0000F00000
0000600000
0000E00000
0001A00000
0003300000
0003100000
0006180000
000C0C0000
00180C0000
0030060000
0060060000
0040030000
00C0010000
0180018000
0300008000
060000C000
0C00004000
0800006000
1800002000
3000003000
6000001000
C000001800
ENDCHAR
STARTCHAR 03A8
ENCODING 936
SWIDTH 666 0
DWIDTH 37 0
BBX 33 40 5 0
BITMAP
1800600180
1000400100
1000400100
1000400100
3000C00300
3000C00300
3000C00300
2000800200
2000800200
2000800200
6001800600
6001800600
6001000600
4001000400
4001000400
4003000C00
C003000C00
C003000800
4002001800
4002001000
6002003000
6006006000
2006006000
300601C000
1804038000
0E040E0000
07843C0000
01FFF00000
001F000000
000C000000
0008000000
0008000000
0008000000
0018000000
0018000000
0018000000
0010000000
0010000000
0010000000
0030000000
ENDCHAR
STARTCHAR 03A9
ENCODING 937
SWIDTH 612 0
DWIDTH 34 0
BBX 32 40 0 0
BITMAP
00007F80
0001FBE0
00070030
000C0018
0018000C
00300006
00600006
00C00002
00C00003
01800003
01000001
03000001
03000001
02000001
06000001
06000001
04000001
04000001
04000003
0C000003
0C000002
0C000002
08000002
08000006
08000004
08000004
0800000C
08000008
0C000018
0C000010
04000030
04000060
060000C0
03000080
03000380
01800700
00C00C00
00703800
00306000
FFF07FF8
ENDCHAR
STARTCHAR 03AA
ENCODING 938
SWIDTH 252 0
DWIDTH 14 0
BBX 16 49 4 0
BITMAP
2002
7007
7006
0000
0000
0000
0000
0000
0000
0300
0300
0200
0200
0200
0600
0600
0600
0400
0400
0400
0C00
0C00
0C00
0800
0800
0800
1800
1800
1800
1000
1000
1000
3000
3000
2000
2000
2000
6000
6000
6000
4000
4000
4000
C000
C000
C000
8000
8000
8000
ENDCHAR
STARTCHAR 03AB
ENCODING 939
SWIDTH 576 0
DWIDTH 32 0
BBX 30 48 5 0
BITMAP
00700700
00700700
00000000
00000000
00000000
00000000
00000000
00000000
C0000000
C000000C
60000018
60000030
20000060
30000040
300000C0
18000180
18000300
08000200
0C000600
0C000C00
06001800
06001000
02003000
03006000
0100C000
01808000
01818000
00830000
00C60000
00440000
006C0000
00380000
00300000
00200000
00200000
00200000
00600000
00600000
00600000
00400000
00400000
00400000
00C00000
00C00000
00C00000
00800000
00800000
00800000
ENDCHAR
STARTCHAR 03AC
ENCODING 940
SWIDTH 540 0
DWIDTH 30 0
BBX 24 42 3 -1
BITMAP
000018
000030
000030
000060
000060
0000C0
0000C0
000180
000000
000000
000000
003F00
00FFC1
038061
070033
0C001B
08000A
18000E
30000E
300006
200006
600006
400004
400004
C00004
C0000C
80000C
80000C
800008
800008
800008
800018
800018
800018
800030
C00070
4000D0
600190
200310
380E18
0FF80F
00C006
ENDCHAR
STARTCHAR 03AD
ENCODING 941
SWIDTH 522 0
DWIDTH 29 0
BBX 26 42 1 -1
BITMAP
00001800
00001000
00003000
00002000
00006000
00004000
0000C000
00008000
00000000
00000000
00000000
000FE000
007FFC00
01C00600
03000300
06000180
0C0000C0
0C0000C0
080000C0
18000000
18000000
08000000
08000000
04000000
03000000
01FFC000
01FFC000
0F000000
18000000
30000000
60000000
60000000
40000000
40000300
C0000200
40000600
40000C00
60001800
30003000
1E01E000
07FF8000
00200000
ENDCHAR
STARTCHAR 03AE
ENCODING 942
SWIDTH 522 0
DWIDTH 29 0
BBX 24 52 2 -11
BITMAP
000018
000030
000020
000060
000040
0000C0
000080
000180
000000
000000
000000
0007E0
043FF8
0C700C
0CC006
0D8002
0B0002
0E0003
0C0003
1C0003
180003
180003
180003
100002
100002
300002
300006
300006
200004
200004
200004
60000C
60000C
40000C
400008
400008
C00008
C00018
C00018
800018
800010
000010
000010
000030
000030
000030
000020
000020
000020
000060
000060
000060
ENDCHAR
STARTCHAR 03AF
ENCODING 943
SWIDTH 252 0
DWIDTH 14 0
BBX 9 40 3 0
BITMAP
0180
0180
0300
0300
0600
0400
0C00
0000
0000
0000
0000
0800
1800
1800
1800
1000
1000
1000
3000
3000
3000
2000
2000
6000
6000
6000
4000
4000
4000
C000
C000
C000
8000
8000
8000
8000
8000
C000
6000
3E00
ENDCHAR
STARTCHAR 03B0
ENCODING 944
SWIDTH 504 0
DWIDTH 28 0
BBX 22 45 3 -1
BITMAP
000180
000180
000300
000300
000300
01C21C
01C018
000000
000000
000000
000000
000000
000000
000000
000000
180008
180008
180008
10000C
10000C
10000C
30000C
30000C
30000C
20000C
20000C
20000C
600008
600008
600008
400008
400018
400010
C00010
C00030
C00020
C00060
C00040
C000C0
400180
600300
600600
381C00
1FF000
010000
ENDCHAR
STARTCHAR 03B1
ENCODING 945
SWIDTH 540 0
DWIDTH 30 0
BBX 24 31 3 -1
BITMAP
003F00
00FFC1
038061
070033
0C001B
08000A
18000E
30000E
300006
200006
600006
400004
400004
C00004
C0000C
80000C
80000C
800008
800008
800008
800018
800018
800018
800030
C00070
4000D0
600190
200310
380E18
0FF80F
00C006
ENDCHAR
STARTCHAR 03B2
ENCODING 946
SWIDTH 558 0
DWIDTH 31 0
BBX 28 51 0 -11
BITMAP
0000FE00
0003EF80
000E00C0
00180060
00300020
00200030
00600010
00400010
00C00010
00800010
01800030
01800030
01800020
01000060
01000040
010000C0
03000180
03000700
0200FC00
0207FC00
02000F00
06000180
060000C0
06000060
04000060
04000020
04000030
0C000030
0C000030
0C000020
08000020
08000060
08000060
180000C0
180000C0
1C000180
16000300
13000E00
11C03C00
307FE000
30060000
30000000
20000000
20000000
20000000
60000000
60000000
40000000
40000000
40000000
C0000000
ENDCHAR
STARTCHAR 03B3
ENCODING 947
SWIDTH 450 0
DWIDTH 25 0
BBX 22 40 4 -11
BITMAP
800004
80000C
800008
C00018
C00010
400030
400060
600060
6000C0
6000C0
200180
200100
300300
300200
300600
100400
100C00
181800
181800
183000
082000
086000
0C4000
0CC000
0C8000
058000
050000
070000
060000
060000
060000
040000
040000
040000
0C0000
0C0000
0C0000
080000
080000
080000
ENDCHAR
STARTCHAR 03B4
ENCODING 948
SWIDTH 522 0
DWIDTH 29 0
BBX 25 42 2 -1
BITMAP
0007FE00
001C0780
00700080
00C00000
00800000
01800000
01000000
01000000
01000000
01800000
00C00000
00600000
00380000
000F0000
003FE000
00E03000
03801C00
06000400
0C000600
18000300
18000100
30000180
20000180
60000180
40000080
C0000080
C0000080
80000180
80000180
80000180
80000100
80000300
80000300
80000600
C0000600
C0000C00
40001800
60003800
30007000
1800E000
0E038000
07FE0000
ENDCHAR
STARTCHAR 03B5
ENCODING 949
SWIDTH 522 0
DWIDTH 29 0
BBX 26 31 1 -1
BITMAP
000FE000
007FFC00
01C00600
03000300
06000180
0C0000C0
0C0000C0
080000C0
18000000
18000000
08000000
08000000
04000000
03000000
01FFC000
01FFC000
0F000000
18000000
30000000
60000000
60000000
40000000
40000300
C0000200
40000600
40000C00
60001800
30003000
1E01E000
07FF8000
00200000
ENDCHAR
STARTCHAR 03B6
ENCODING 950
SWIDTH 450 0
DWIDTH 25 0
BBX 24 51 3 -11
BITMAP
3FFFFF
3FFFFF
000006
000004
00000C
000018
000030
000060
0000C0
000180
000300
000600
000C00
001800
003000
002000
006000
00C000
018000
030000
060000
0C0000
0C0000
180000
100000
300000
200000
600000
400000
400000
C00000
C00000
C00000
C00000
600000
700000
380000
0F0000
03E000
007C00
000E00
000300
000180
000180
000100
000300
000300
000600
000C00
001800
001000
ENDCHAR
STARTCHAR 03B7
ENCODING 951
SWIDTH 522 0
DWIDTH 29 0
BBX 24 41 2 -11
BITMAP
0007E0
043FF8
0C700C
0CC006
0D8002
0B0002
0E0003
0C0003
1C0003
180003
180003
180003
100002
100002
300002
300006
300006
200004
200004
200004
60000C
60000C
40000C
400008
400008
C00008
C00018
C00018
800018
800010
000010
000010
000030
000030
000030
000020
000020
000020
000060
000060
000060
ENDCHAR
STARTCHAR 03B8
ENCODING 952
SWIDTH 558 0
DWIDTH 31 0
BBX 25 41 4 -1
BITMAP
000FE000
003EF800
00E00C00
01800600
03000200
02000300
06000100
0C000100
08000100
18000180
18000180
10000180
30000180
30000180
20000180
60000100
60000100
60000100
40000300
40000300
7FFFFF00
C0000200
C0000200
C0000200
80000600
80000600
80000400
80000400
80000C00
80000C00
80000800
80001800
80001000
C0003000
C0006000
4000C000
6001C000
30038000
1C0E0000
0FFC0000
00800000
ENDCHAR
STARTCHAR 03B9
ENCODING 953
SWIDTH 252 0
DWIDTH 14 0
BBX 7 29 3 0
BITMAP
08
18
18
18
10
10
10
30
30
30
20
20
60
60
60
40
40
40
C0
C0
C0
80
80
80
80
80
C0
60
3E
ENDCHAR
STARTCHAR 03BA
ENCODING 954
SWIDTH 504 0
DWIDTH 28 0
BBX 25 29 2 0
BITMAP
04000180
0C000300
0C000E00
0C001800
08003000
08006000
0800C000
18018000
18030000
18060000
101C0000
10380000
10700000
3FC00000
3FC00000
30600000
20300000
20380000
60180000
600C0000
60060000
40030000
40018000
4000C000
C000C000
C0006000
C0003000
80001800
80000C00
ENDCHAR
STARTCHAR 03BB
ENCODING 955
SWIDTH 522 0
DWIDTH 29 0
BBX 27 41 -1 0
BITMAP
003C0000
00060000
00030000
00010000
00018000
00018000
00008000
00008000
00008000
0000C000
0000C000
0000C000
0000C000
0001C000
0001C000
00036000
00026000
00062000
00042000
000C2000
00183000
00183000
00303000
00201000
00601000
00401000
00C01800
01801800
01801800
03000800
02000800
06000C00
04000C00
0C000C00
18000400
18000400
30000400
20000600
60000200
40000380
C00001E0
ENDCHAR
STARTCHAR 03BC
ENCODING 956
SWIDTH 522 0
DWIDTH 29 0
BBX 27 40 0 -11
BITMAP
01000020
03000020
03000060
02000060
02000060
02000040
02000040
06000040
060000C0
040000C0
04000080
04000080
04000080
0C000180
0C000180
08000180
08000100
08000100
18000300
18000300
18000300
18000700
18000600
18000E00
3C001A00
3C003600
36006600
2301C600
21FF0400
20100000
60000000
60000000
60000000
40000000
40000000
40000000
C0000000
C0000000
80000000
80000000
ENDCHAR
STARTCHAR 03BD
ENCODING 957
SWIDTH 450 0
DWIDTH 25 0
BBX 23 29 3 0
BITMAP
C00002
400006
400004
60000C
600008
600018
200030
200030
300060
300060
1000C0
100080
180180
180100
180300
080200
080600
0C0400
0C0C00
041800
041800
063000
063000
066000
026000
02C000
038000
038000
010000
ENDCHAR
STARTCHAR 03BE
ENCODING 958
SWIDTH 468 0
DWIDTH 26 0
BBX 25 50 3 -10
BITMAP
0003FE00
001F8F80
00700000
00C00000
01800000
03000000
03000000
02000000
06000000
06000000
06000000
06000000
02000000
03000000
01800000
00780000
001FE000
00FC0000
03C00000
06000000
0C000000
18000000
30000000
60000000
40000000
C0000000
C0000000
80000000
80000000
80000000
80000000
80000000
C0000000
C0000000
60000000
30000000
18000000
0E000000
03C00000
00F80000
001F0000
00038000
00008000
0000C000
00008000
00008000
00018000
00030000
00060000
00080000
ENDCHAR
STARTCHAR 03BF
ENCODING 959
SWIDTH 522 0
DWIDTH 29 0
BBX 25 31 2 -1
BITMAP
000FC000
007FF000
01C01C00
03800E00
06000600
0C000300
18000100
18000180
30000180
20000080
60000080
60000080
40000080
C0000080
C0000080
C0000080
80000180
80000180
80000100
80000300
80000300
C0000200
C0000600
40000C00
60000800
20001800
30003000
1800E000
0E038000
03FF0000
00200000
ENDCHAR
STARTCHAR 03C0
ENCODING 960
SWIDTH 576 0
DWIDTH 32 0
BBX 28 29 4 0
BITMAP
FFFFFFF0
04000400
0C000C00
0C000C00
0C000C00
08000800
08000800
08000800
18001800
18001800
18001000
10001000
10001000
10003000
30003000
30003000
30002000
20002000
20002000
20006000
60006000
60006000
60004000
40004000
40004000
40006000
C0006000
C0003000
C0001F80
ENDCHAR
STARTCHAR 03C1
ENCODING 961
SWIDTH 522 0
DWIDTH 29 0
BBX 26 41 0 -11
BITMAP
0001F800
000FFE00
00180700
00700100
00E00180
00C00080
018000C0
03000040
03000040
02000040
06000040
06000040
04000040
04000040
0C000040
0C0000C0
0C0000C0
080000C0
08000080
18000180
18000180
18000100
18000300
18000200
18000600
38000C00
34001800
36003000
2380E000
20FFC000
20180000
60000000
60000000
60000000
40000000
40000000
40000000
C0000000
C0000000
C0000000
80000000
ENDCHAR
STARTCHAR 03C2
ENCODING 962
SWIDTH 504 0
DWIDTH 28 0
BBX 23 40 3 -10
BITMAP
001F80
007FF0
01C038
03000C
06000C
0C0006
180006
100002
300002
200002
600000
400000
400000
C00000
C00000
800000
800000
800000
800000
800000
800000
C00000
C00000
400000
600000
300000
180000
0E0000
078000
01F000
003C00
000600
000200
000200
000200
000200
000600
000C00
001800
003000
ENDCHAR
STARTCHAR 03C3
ENCODING 963
SWIDTH 522 0
DWIDTH 29 0
BBX 30 29 2 -1
BITMAP
003FFFFC
00F03800
01800C00
07000600
0E000300
0C000300
18000180
30000180
20000180
60000080
60000080
40000080
C0000080
C0000080
80000180
80000180
80000180
80000100
80000300
80000300
80000600
C0000600
C0000C00
40001800
60003000
30007000
1800C000
0E038000
07FE0000
ENDCHAR
STARTCHAR 03C4
ENCODING 964
SWIDTH 486 0
DWIDTH 27 0
BBX 23 30 4 -1
BITMAP
FFFFFE
003000
002000
002000
002000
006000
006000
006000
004000
004000
004000
00C000
00C000
00C000
008000
008000
018000
018000
018000
018000
010000
010000
010000
030000
010000
010000
018000
018000
00FE00
001800
ENDCHAR
STARTCHAR 03C5
ENCODING 965
SWIDTH 504 0
DWIDTH 28 0
BBX 22 30 3 -1
BITMAP
180008
180008
180008
10000C
10000C
10000C
30000C
30000C
30000C
20000C
20000C
20000C
600008
600008
600008
400008
400018
400010
C00010
C00030
C00020
C00060
C00040
C000C0
400180
600300
600600
381C00
1FF000
010000
ENDCHAR
STARTCHAR 03C6
ENCODING 966
SWIDTH 630 0
DWIDTH 35 0
BBX 29 42 3 -13
BITMAP
00C03F80
018061C0
0300C060
06008030
0C008010
08018018
18018018
10018008
30010008
20010008
60010008
60030008
40030008
40030008
C0020008
C0020018
C0020018
C0060010
C0060030
C0040030
C0040060
40040040
400C00C0
600C0180
300C0300
18080600
1C081C00
07087000
03FFC000
00380000
00180000
00100000
00100000
00100000
00300000
00300000
00300000
00200000
00200000
00200000
00600000
00600000
ENDCHAR
STARTCHAR 03C7
ENCODING 967
SWIDTH 486 0
DWIDTH 27 0
BBX 30 41 -2 -11
BITMAP
03000000
07C0000C
00600018
00200030
00300020
00100060
001000C0
00180180
00080180
00080300
000C0600
000C0400
00040C00
00041800
00061000
00063000
00026000
0002C000
00038000
00038000
00030000
00030000
00078000
000C8000
00088000
0018C000
0030C000
00604000
00404000
00C06000
01806000
01002000
03002000
06003000
0C003000
08001000
18001000
30001800
20000800
60000C00
C0000780
ENDCHAR
STARTCHAR 03C8
ENCODING 968
SWIDTH 630 0
DWIDTH 35 0
BBX 30 40 3 -11
BITMAP
1000C010
1000C018
10008018
30008008
30008008
3001800C
2001800C
2001800C
2001000C
6001000C
6001000C
6003000C
4003000C
40030008
40020008
40020018
C0060018
40060010
40060030
40040020
40040060
60040040
600C00C0
200C0180
300C0300
18080600
0C081C00
07087000
01FFC000
00180000
00180000
00100000
00100000
00100000
00300000
00300000
00300000
00200000
00200000
00200000
ENDCHAR
STARTCHAR 03C9
ENCODING 969
SWIDTH 792 0
DWIDTH 44 0
BBX 38 30 3 -1
BITMAP
0300000010
0300000018
0600000018
0400000018
0C00000008
0800000008
1800000008
100000000C
300018000C
300018000C
200010000C
600010000C
6000100008
4000300008
4000300008
C000300008
C000200018
C000200018
C000600010
C000600010
C000600030
C000E00020
C000E00060
4001A00040
60013000C0
6003100180
3006180300
181C0C0E00
0FF007F800
0100004000
ENDCHAR
STARTCHAR 03CA
ENCODING 970
SWIDTH 252 0
DWIDTH 14 0
BBX 14 39 2 0
BITMAP
C01C
C01C
0008
0000
0000
0000
0000
0000
0000
0000
0400
0C00
0C00
0C00
0800
0800
0800
1800
1800
1800
1000
1000
3000
3000
3000
2000
2000
2000
6000
6000
6000
4000
4000
4000
4000
4000
6000
3000
1F00
ENDCHAR
STARTCHAR 03CB
ENCODING 971
SWIDTH 504 0
DWIDTH 28 0
BBX 22 40 3 -1
BITMAP
01C01C
01C01C
008008
000000
000000
000000
000000
000000
000000
000000
180008
180008
180008
10000C
10000C
10000C
30000C
30000C
30000C
20000C
20000C
20000C
600008
600008
600008
400008
400018
400010
C00010
C00030
C00020
C00060
C00040
C000C0
400180
600300
600600
381C00
1FF000
010000
ENDCHAR
STARTCHAR 03CC
ENCODING 972
SWIDTH 522 0
DWIDTH 29 0
BBX 25 42 2 -1
BITMAP
00003000
00002000
00006000
00004000
0000C000
00008000
00018000
00010000
00000000
00000000
00000000
000FC000
007FF000
01C01C00
03800E00
06000600
0C000300
18000100
18000180
30000180
20000080
60000080
60000080
40000080
C0000080
C0000080
C0000080
80000180
80000180
80000100
80000300
80000300
C0000200
C0000600
40000C00
60000800
20001800
30003000
1800E000
0E038000
03FF0000
00200000
ENDCHAR
STARTCHAR 03CD
ENCODING 973
SWIDTH 504 0
DWIDTH 28 0
BBX 22 41 3 -1
BITMAP
0000C0
000180
000100
000300
000200
000600
000400
000000
000000
000000
000000
180008
180008
180008
10000C
10000C
10000C
30000C
30000C
30000C
20000C
20000C
20000C
600008
600008
600008
400008
400018
400010
C00010
C00030
C00020
C00060
C00040
C000C0
400180
600300
600600
381C00
1FF000
010000
ENDCHAR
STARTCHAR 03CE
ENCODING 974
SWIDTH 792 0
DWIDTH 44 0
BBX 38 41 3 -1
BITMAP
0000006000
0000004000
000000C000
0000008000
0000018000
0000010000
0000030000
0000000000
0000000000
0000000000
0000000000
0300000010
0300000018
0600000018
0400000018
0C00000008
0800000008
1800000008
100000000C
300018000C
300018000C
200010000C
600010000C
6000100008
4000300008
4000300008
C000300008
C000200018
C000200018
C000600010
C000600010
C000600030
C000E00020
C000E00060
4001A00040
60013000C0
6003100180
3006180300
181C0C0E00
0FF007F800
0100004000
ENDCHAR
STARTCHAR 03D1
ENCODING 977
SWIDTH 540 0
DWIDTH 30 0
BBX 28 42 3 -1
BITMAP
00006000
0003FC00
00060600
000C0200
00180300
00100100
00300100
00200100
00200100
00600100
00600100
00600100
00600100
00600300
00200300
00200300
00300200
00180200
000C0200
00060600
0003C620
6000FFF0
60000400
60000400
40000400
40000C00
40000C00
C0000C00
C0000800
80000800
80001800
80001800
80001000
80001000
80003000
C0006000
40006000
6000C000
30018000
180F0000
0FFC0000
00800000
ENDCHAR
STARTCHAR 03D2
ENCODING 978
SWIDTH 522 0
DWIDTH 29 0
BBX 32 40 3 0
BITMAP
F000001E
FC00007F
040000C0
02000180
02000100
03000300
01000600
01000400
01800C00
00801800
00801000
00803000
00C02000
00406000
0040C000
00408000
00618000
00210000
00230000
00360000
00140000
001C0000
00180000
00180000
00100000
00100000
00100000
00300000
00300000
00300000
00200000
00200000
00200000
00600000
00600000
00600000
00400000
00400000
00C00000
00C00000
ENDCHAR
STARTCHAR 03D6
ENCODING 982
SWIDTH 756 0
DWIDTH 42 0
BBX 42 30 2 -1
BITMAP
7FFFFFFFFFC0
020000001800
060000001800
040000001800
0C0000000800
080000000800
180000000800
100000000800
300018000C00
300018000C00
200010000C00
600010000C00
600030000800
400030000800
400030000800
C00030000800
C00020001800
C00020001800
C00060001000
C00060003000
C00060003000
C000E0002000
C000A0006000
4001A000C000
40013000C000
600310018000
300618030000
181C0C0E0000
0FF007F80000
010000400000
ENDCHAR
STARTCHAR 0400
ENCODING 1024
SWIDTH 540 0
DWIDTH 30 0
BBX 30 50 3 0
BITMAP
00030000
00010000
00018000
00008000
0000C000
00004000
00006000
00000000
00000000
00000000
03FFFFFC
03FFFFF8
02000000
02000000
02000000
06000000
06000000
06000000
04000000
04000000
04000000
0C000000
0C000000
08000000
08000000
08000000
18000000
18000000
18000000
1FFFFF00
10000000
10000000
30000000
30000000
30000000
20000000
20000000
20000000
60000000
60000000
60000000
40000000
40000000
40000000
C0000000
C0000000
C0000000
80000000
80000000
FFFFFE00
ENDCHAR
STARTCHAR 0401
ENCODING 1025
SWIDTH 540 0
DWIDTH 30 0
BBX 30 49 3 0
BITMAP
000C0080
001C01C0
001C01C0
00000000
00000000
00000000
00000000
00000000
00000000
03FFFFFC
03FFFFF8
02000000
02000000
02000000
06000000
06000000
06000000
04000000
04000000
04000000
0C000000
0C000000
08000000
08000000
08000000
18000000
18000000
18000000
1FFFFF00
10000000
10000000
30000000
30000000
30000000
20000000
20000000
20000000
60000000
60000000
60000000
40000000
40000000
40000000
C0000000
C0000000
C0000000
80000000
80000000
FFFFFE00
ENDCHAR
STARTCHAR 0402
ENCODING 1026
SWIDTH 702 0
DWIDTH 39 0
BBX 31 40 6 0
BITMAP
FFFFFFF8
FFFFFFF8
00180000
00180000
00100000
00100000
00100000
00300000
00300000
00200000
00200000
00200000
00200000
00600000
00600000
00400000
0040FF00
004FFFC0
00FC0070
00E00038
00C00018
0080000C
00800004
00800006
01800006
01800006
01800006
01000006
01000006
01000004
03000004
0300000C
03000008
02000018
02000030
02000060
060000C0
06000380
06000E00
04007800
ENDCHAR
STARTCHAR 0403
ENCODING 1027
SWIDTH 522 0
DWIDTH 29 0
BBX 30 50 2 0
BITMAP
00000180
00000300
00000600
00000C00
00000800
00001800
00003000
00000000
00000000
00000000
01FFFFFC
01FFFFFC
01000000
01000000
03000000
03000000
03000000
02000000
02000000
02000000
06000000
06000000
06000000
04000000
04000000
0C000000
0C000000
0C000000
08000000
08000000
08000000
18000000
18000000
18000000
10000000
10000000
10000000
30000000
30000000
30000000
20000000
20000000
20000000
60000000
60000000
60000000
40000000
40000000
40000000
C0000000
ENDCHAR
STARTCHAR 0404
ENCODING 1028
SWIDTH 612 0
DWIDTH 34 0
BBX 29 41 4 -1
BITMAP
0003FC00
001FBF00
007001C0
00E000E0
01800020
03000030
06000010
04000018
0C000018
08000008
18000008
10000008
30000008
20000000
20000000
60000000
60000000
40000000
40000000
7FFFE000
FFFFE000
C0000000
80000000
80000000
80000000
80000000
80000000
80000000
80000040
80000040
800000C0
C0000080
C0000180
40000300
60000200
20000600
30001C00
18003000
0E01E000
03FF8000
00600000
ENDCHAR
STARTCHAR 0405
ENCODING 1029
SWIDTH 558 0
DWIDTH 31 0
BBX 30 41 1 -1
BITMAP
0001FE00
000FCFC0
003800E0
00600030
00C00018
0180000C
0300000C
02000004
06000004
06000004
06000004
06000004
06000000
06000000
03000000
01800000
01C00000
00700000
001E0000
0007C000
0000F000
00001E00
00000700
00000180
000000C0
00000060
00000020
00000030
00000030
40000030
C0000030
40000020
40000060
40000060
600000C0
30000180
38000300
1C000E00
07807800
01FFE000
000C0000
ENDCHAR
STARTCHAR 0406
ENCODING 1030
SWIDTH 252 0
DWIDTH 14 0
BBX 8 40 4 0
BITMAP
03
03
02
02
02
06
06
06
04
04
04
0C
0C
0C
08
08
08
18
18
18
10
10
10
30
30
20
20
20
60
60
60
40
40
40
C0
C0
C0
80
80
80
ENDCHAR
STARTCHAR 0407
ENCODING 1031
SWIDTH 252 0
DWIDTH 14 0
BBX 16 49 4 0
BITMAP
2002
7007
7006
0000
0000
0000
0000
0000
0000
0300
0300
0200
0200
0200
0600
0600
0600
0400
0400
0400
0C00
0C00
0C00
0800
0800
0800
1800
1800
1800
1000
1000
1000
3000
3000
2000
2000
2000
6000
6000
6000
4000
4000
4000
C000
C000
C000
8000
8000
8000
ENDCHAR
STARTCHAR 0408
ENCODING 1032
SWIDTH 522 0
DWIDTH 29 0
BBX 28 41 1 -1
BITMAP
00000030
00000020
00000020
00000020
00000060
00000060
00000040
00000040
00000040
000000C0
000000C0
000000C0
00000080
00000080
00000080
00000180
00000180
00000180
00000100
00000100
00000100
00000300
00000300
00000300
00000200
00000200
00000200
00000600
00000600
C0000400
C0000400
C0000C00
C0000800
C0001800
40003000
60003000
60006000
3001C000
1C070000
07FE0000
00400000
ENDCHAR
STARTCHAR 0409
ENCODING 1033
SWIDTH 1008 0
DWIDTH 56 0
BBX 53 40 -1 0
BITMAP
00007FFFE00000
0000FFFFE00000
0000C000200000
00008000600000
00008000600000
00018000600000
00018000400000
00010000400000
00010000400000
00030000C00000
00030000C00000
00020000800000
00020000800000
00060000800000
00060001800000
00060001800000
00040001800000
00040001000000
000C0001FFF800
000C0001FFFF00
000800030001C0
000800030000E0
00180003000020
00180002000030
00180002000010
00100002000018
00100006000018
00300006000018
00200006000018
00200004000018
00600004000010
00400004000030
00C0000C000030
0080000C000060
0180000C0000C0
010000080001C0
03000008000380
0E000008000E00
7800001801F800
E000001FFFC000
ENDCHAR
STARTCHAR 040A
ENCODING 1034
SWIDTH 1044 0
DWIDTH 58 0
BBX 52 40 2 0
BITMAP
01800000400000
01000000400000
01000000400000
01000000400000
03000000C00000
03000000C00000
03000000800000
02000000800000
02000000800000
02000001800000
06000001800000
06000001800000
06000001000000
04000001000000
04000001000000
04000003000000
0C000003000000
0C000003000000
08000003FFF800
08000002007E00
0FFFFFFE000380
180000060000C0
18000006000060
18000006000060
10000004000030
10000004000030
10000004000030
3000000C000030
3000000C000030
30000008000030
20000008000020
20000008000060
20000018000060
600000180000C0
60000018000080
60000010000380
40000010000700
40000010001C00
4000003003F000
C000003FFF8000
ENDCHAR
STARTCHAR 040B
ENCODING 1035
SWIDTH 756 0
DWIDTH 42 0
BBX 33 40 5 0
BITMAP
FFFFFFFC00
FFFFFFF800
000C000000
000C000000
0008000000
0008000000
0008000000
0018000000
0018000000
0010000000
0010000000
0010000000
0010000000
0030000000
0030000000
0020000000
0020000000
0020000000
0061FFE000
007FC0F800
0070001C00
0040000600
0040000300
0040000300
00C0000100
00C0000100
00C0000180
0080000180
0080000100
0080000100
0180000100
0180000100
0180000300
0100000300
0100000300
0100000200
0300000200
0300000200
0300000600
0200000600
ENDCHAR
STARTCHAR 040C
ENCODING 1036
SWIDTH 612 0
DWIDTH 34 0
BBX 32 48 3 0
BITMAP
00000300
00000600
00000C00
00001800
00003000
00006000
00004000
00000000
03000000
03000007
0200000C
02000038
02000070
060000C0
06000180
06000300
04000600
04000C00
04003800
0C007000
0C00C000
08018000
08030000
08060000
180C0000
18380000
18700000
10D80000
11980000
130C0000
36060000
38060000
30030000
20018000
20008000
2000C000
60006000
60002000
60003000
40001800
40000800
40000C00
C0000600
C0000200
C0000300
80000180
80000080
800000C0
ENDCHAR
STARTCHAR 040D
ENCODING 1037
SWIDTH 684 0
DWIDTH 38 0
BBX 34 50 3 0
BITMAP
0000600000
0000200000
0000300000
0000100000
0000180000
0000080000
00000C0000
0000000000
0000000000
0000000000
0300000000
03000000C0
02000001C0
0200000380
0200000680
0600000C80
0600001980
0600001180
0400003180
0400006100
040000C100
0C00018100
0C00030300
0800060300
0800040200
08000C0200
1800180200
1800300200
1800600600
1000C00600
1000800400
1001800400
3003000400
3006000C00
300C000C00
2018000C00
2030000800
2030000800
6060000800
60C0001800
4180001800
4300001800
4600001000
4400001000
CC00001000
D800003000
B000003000
E000003000
C000002000
8000002000
ENDCHAR
STARTCHAR 040E
ENCODING 1038
SWIDTH 594 0
DWIDTH 33 0
BBX 34 50 2 -1
BITMAP
0006003000
0006002000
0006006000
000200C000
0003818000
0000FF0000
0000180000
0000000000
0000000000
1800000000
18000000C0
0800000180
0C00000100
0C00000300
0600000600
0600000600
0200000C00
0300001800
0300001800
0100003000
0180006000
0180006000
00C000C000
00C0018000
0040018000
0060030000
0060020000
0020060000
00300C0000
0010080000
0018180000
0018300000
0008200000
000C600000
000CC00000
0004800000
0007800000
0003000000
0002000000
0006000000
000C000000
0008000000
0018000000
0030000000
0060000000
00C0000000
01C0000000
0300000000
FE00000000
6000000000
ENDCHAR
STARTCHAR 040F
ENCODING 1039
SWIDTH 666 0
DWIDTH 37 0
BBX 34 49 2 -9
BITMAP
0180000040
0100000040
0100000040
01000000C0
03000000C0
03000000C0
0300000080
0200000080
0200000080
0200000180
0600000180
0600000180
0600000100
0400000100
0400000100
0400000300
0C00000300
0C00000300
0800000200
0800000200
0800000200
1800000600
1800000600
1800000600
1000000400
1000000400
1000000400
3000000C00
3000000C00
3000000800
2000000800
2000000800
2000001800
6000001800
6000001800
6000001000
4000001000
4000001000
4000003000
FFFFFFF000
0006000000
0006000000
0004000000
0004000000
0004000000
000C000000
000C000000
000C000000
0008000000
ENDCHAR
STARTCHAR 0410
ENCODING 1040
SWIDTH 576 0
DWIDTH 32 0
BBX 30 40 -2 0
BITMAP
00000200
00000600
00000E00
00000B00
00001B00
00001300
00003100
00006100
00006100
0000C180
00008180
00018080
00010080
00030080
000200C0
000600C0
00040040
000C0040
00080040
00180060
00300060
00300060
00600020
00400020
00C00030
00800030
01800030
01FFFFF0
03000010
02000018
06000018
04000018
0C000008
08000008
18000008
3000000C
3000000C
6000000C
40000004
C0000004
ENDCHAR
STARTCHAR 0411
ENCODING 1041
SWIDTH 594 0
DWIDTH 33 0
BBX 30 40 2 0
BITMAP
01FFFFFC
01FFFFFC
01000000
01000000
03000000
03000000
03000000
02000000
02000000
06000000
06000000
06000000
06000000
04000000
04000000
0C000000
0C000000
0C000000
08000000
0FFFF000
08003C00
18000600
18000300
18000180
10000080
100000C0
100000C0
300000C0
300000C0
300000C0
20000080
20000080
20000180
60000300
60000300
60000600
40001C00
40007000
C00FE000
FFFF0000
ENDCHAR
STARTCHAR 0412
ENCODING 1042
SWIDTH 576 0
DWIDTH 32 0
BBX 27 40 3 0
BITMAP
03FF8000
03FFFC00
02000F00
02000180
020000C0
06000060
06000020
06000020
04000020
04000020
04000020
0C000060
0C000060
0C000040
080000C0
08000180
08000300
18000600
18003800
1FFFE000
1FFFF800
10000E00
30000300
30000180
30000080
200000C0
200000C0
200000C0
600000C0
600000C0
60000080
40000080
40000180
40000300
C0000300
C0000600
C0001C00
80007800
800FE000
FFFF0000
ENDCHAR
STARTCHAR 0413
ENCODING 1043
SWIDTH 522 0
DWIDTH 29 0
BBX 30 40 2 0
BITMAP
01FFFFFC
01FFFFFC
01000000
01000000
03000000
03000000
03000000
02000000
02000000
02000000
06000000
06000000
06000000
04000000
04000000
0C000000
0C000000
0C000000
08000000
08000000
08000000
18000000
18000000
18000000
10000000
10000000
10000000
30000000
30000000
30000000
20000000
20000000
20000000
60000000
60000000
60000000
40000000
40000000
40000000
C0000000
ENDCHAR
STARTCHAR 0414
ENCODING 1044
SWIDTH 666 0
DWIDTH 37 0
BBX 38 49 -2 -9
BITMAP
00001FFFFC
00001FFFFC
0000300004
000030000C
000030000C
000020000C
0000200008
0000600008
0000600008
0000400018
0000400018
0000400018
0000C00010
0000C00010
0000800010
0000800030
0001800030
0001800030
0001000020
0003000020
0003000020
0003000060
0002000060
0006000060
0006000040
000C000040
000C000040
00080000C0
00180000C0
0018000080
0030000080
0070000080
0060000180
00C0000180
01C0000180
0180000100
0300000100
0600000100
0C00000300
3FFFFFFFE0
6000000060
6000000060
6000000040
4000000040
4000000040
40000000C0
C0000000C0
C0000000C0
C000000080
ENDCHAR
STARTCHAR 0415
ENCODING 1045
SWIDTH 540 0
DWIDTH 30 0
BBX 30 40 3 0
BITMAP
03FFFFFC
03FFFFF8
02000000
02000000
02000000
06000000
06000000
06000000
04000000
04000000
04000000
0C000000
0C000000
08000000
08000000
08000000
18000000
18000000
18000000
1FFFFF00
10000000
10000000
30000000
30000000
30000000
20000000
20000000
20000000
60000000
60000000
60000000
40000000
40000000
40000000
C0000000
C0000000
C0000000
80000000
80000000
FFFFFE00
ENDCHAR
STARTCHAR 0416
ENCODING 1046
SWIDTH 810 0
DWIDTH 45 0
BBX 50 40 -2 0
BITMAP
0180000C000000
00C000080001C0
00400008000300
00600008000300
00300018000600
00300018000C00
00180018001800
00080010003000
000C0010006000
0004001000C000
00060030018000
00030030030000
00030030060000
000180200C0000
00008020180000
0000C020300000
00006060700000
00006060600000
00003060C00000
00001FFF800000
00003041000000
000060C1800000
0000C0C0C00000
000180C0400000
00030080600000
00060080300000
000E0080300000
000C0180180000
00180180080000
003001800C0000
00600100060000
00C00100060000
01800100030000
03000300010000
06000300018000
0C00030000C000
1800020000C000
30000200006000
60000200002000
C0000600003000
ENDCHAR
STARTCHAR 0417
ENCODING 1047
SWIDTH 576 0
DWIDTH 32 0
BBX 29 41 2 -1
BITMAP
0003FC00
001F9F80
007000C0
00C00060
01800030
03000018
06000008
04000008
0C000008
08000008
18000008
00000018
00000018
00000010
00000030
00000060
000000C0
00000380
00001E00
003FF800
007FFC00
00000E00
00000380
00000080
000000C0
00000040
00000060
00000060
00000060
80000060
80000040
800000C0
800000C0
C0000180
C0000180
60000300
70000E00
38001800
0E00F000
03FF8000
00700000
ENDCHAR
STARTCHAR 0418
ENCODING 1048
SWIDTH 684 0
DWIDTH 38 0
BBX 34 40 3 0
BITMAP
0300000000
03000000C0
02000001C0
0200000380
0200000680
0600000C80
0600001980
0600001180
0400003180
0400006100
040000C100
0C00018100
0C00030300
0800060300
0800040200
08000C0200
1800180200
1800300200
1800600600
1000C00600
1000800400
1001800400
3003000400
3006000C00
300C000C00
2018000C00
2030000800
2030000800
6060000800
60C0001800
4180001800
4300001800
4600001000
4400001000
CC00001000
D800003000
B000003000
E000003000
C000002000
8000002000
ENDCHAR
STARTCHAR 0419
ENCODING 1049
SWIDTH 684 0
DWIDTH 38 0
BBX 34 49 3 0
BITMAP
0003000800
0001001800
0001001000
0001803000
0000C0E000
00007F8000
00001E0000
0000000000
0000000000
0300000000
03000000C0
02000001C0
0200000380
0200000680
0600000C80
0600001980
0600001180
0400003180
0400006100
040000C100
0C00018100
0C00030300
0800060300
0800040200
08000C0200
1800180200
1800300200
1800600600
1000C00600
1000800400
1001800400
3003000400
3006000C00
300C000C00
2018000C00
2030000800
2030000800
6060000800
60C0001800
4180001800
4300001800
4600001000
4400001000
CC00001000
D800003000
B000003000
E000003000
C000002000
8000002000
ENDCHAR
STARTCHAR 041A
ENCODING 1050
SWIDTH 612 0
DWIDTH 34 0
BBX 32 40 3 0
BITMAP
03000000
03000007
0200000C
02000018
02000030
06000060
060000C0
06000180
04000300
04000600
04000C00
0C001800
0C003000
08006000
0800C000
08018000
18070000
180E0000
181C0000
1FF80000
1FF00000
10180000
30180000
300C0000
30060000
20030000
20030000
20018000
6000C000
60006000
60006000
40003000
40001800
40000C00
C0000400
C0000600
C0000300
80000180
80000080
800000C0
ENDCHAR
STARTCHAR 041B
ENCODING 1051
SWIDTH 666 0
DWIDTH 37 0
BBX 38 40 -2 0
BITMAP
00007FFFFC
00007FFFFC
0000400004
0000C00004
0000C0000C
000080000C
0000800008
0001800008
0001800008
0001000018
0001000018
0003000018
0003000010
0002000010
0002000010
0006000030
0006000030
0006000030
0004000020
0004000020
000C000020
000C000060
0008000060
0008000060
0018000040
0018000040
0010000040
00100000C0
00300000C0
00300000C0
0020000080
0060000080
0040000080
00C0000180
0080000180
0180000100
0300000100
0600000100
7C00000300
F000000300
ENDCHAR
STARTCHAR 041C
ENCODING 1052
SWIDTH 828 0
DWIDTH 46 0
BBX 42 40 3 0
BITMAP
030000000040
0380000001C0
0380000001C0
038000000380
028000000680
06C000000680
06C000000D80
06C000000980
044000001980
046000003100
046000003100
0C6000006100
0C2000004300
08300000C300
083000018300
081000018200
181000030200
181800020200
181800060600
1008000C0600
1008000C0600
100C00180400
300C00100400
300400300400
300400600C00
200400600C00
200600C00C00
200200800800
600201800800
600201000800
600303001800
400106001800
400104001000
40010C001000
C00188001000
C00098003000
C000B0003000
8000A0003000
8000E0002000
800040002000
ENDCHAR
STARTCHAR 041D
ENCODING 1053
SWIDTH 666 0
DWIDTH 37 0
BBX 34 40 3 0
BITMAP
03000000C0
0300000080
0200000080
0200000080
0200000180
0600000180
0600000180
0600000100
0400000100
0400000100
0400000300
0C00000300
0C00000300
0800000200
0800000200
0800000200
1800000600
1800000600
1800000600
1FFFFFFC00
1000000400
1000000400
3000000C00
3000000C00
3000000800
2000000800
2000000800
2000001800
6000001800
6000001800
6000001000
4000001000
4000001000
4000003000
C000003000
C000003000
C000002000
8000002000
8000002000
8000006000
ENDCHAR
STARTCHAR 041E
ENCODING 1054
SWIDTH 630 0
DWIDTH 35 0
BBX 31 41 3 -1
BITMAP
0001FE00
000FCF80
003C00C0
00700060
00C00030
01800018
03000008
0600000C
06000004
0C000004
08000006
18000006
10000006
10000006
30000006
20000006
20000006
20000006
60000004
60000004
6000000C
4000000C
4000000C
40000008
C0000008
C0000018
C0000018
C0000010
C0000030
C0000030
40000060
40000060
600000C0
60000180
30000100
30000300
18000E00
0C001800
0700F000
01FFC000
00080000
ENDCHAR
STARTCHAR 041F
ENCODING 1055
SWIDTH 666 0
DWIDTH 37 0
BBX 34 40 3 0
BITMAP
03FFFFFFC0
03FFFFFF80
0200000080
0200000080
0200000180
0600000180
0600000180
0600000100
0400000100
0400000100
0400000300
0C00000300
0C00000300
0C00000200
0800000200
0800000200
0800000600
1800000600
1800000600
1000000400
1000000400
1000000400
3000000C00
3000000C00
3000000800
2000000800
2000000800
2000001800
6000001800
6000001800
6000001000
4000001000
4000001000
4000003000
C000003000
C000003000
C000002000
8000002000
8000002000
8000006000
ENDCHAR
STARTCHAR 0420
ENCODING 1056
SWIDTH 576 0
DWIDTH 32 0
BBX 29 40 3 0
BITMAP
03FFC000
03FFFE00
02000380
020000C0
02000060
06000030
06000010
06000018
04000018
04000018
04000018
0C000018
0C000018
0C000010
08000030
08000030
08000060
18000060
180000C0
10000380
10000700
10003C00
3FFFF000
30000000
30000000
20000000
20000000
20000000
60000000
60000000
60000000
40000000
40000000
40000000
C0000000
C0000000
C0000000
80000000
80000000
80000000
ENDCHAR
STARTCHAR 0421
ENCODING 1057
SWIDTH 612 0
DWIDTH 34 0
BBX 29 41 4 -1
BITMAP
0003FC00
001FBF00
007001C0
00E000E0
01800020
03000030
06000010
04000018
0C000018
08000008
18000008
10000008
30000008
20000000
20000000
60000000
60000000
40000000
40000000
40000000
C0000000
C0000000
80000000
80000000
80000000
80000000
80000000
80000000
80000040
80000040
800000C0
C0000080
C0000180
40000300
60000200
20000600
30001C00
18003000
0E01E000
03FF8000
00600000
ENDCHAR
STARTCHAR 0422
ENCODING 1058
SWIDTH 576 0
DWIDTH 32 0
BBX 30 40 5 0
BITMAP
FFFFFFFC
FFFFFFFC
00030000
00020000
00020000
00020000
00060000
00060000
00040000
00040000
00040000
000C0000
000C0000
000C0000
00080000
00080000
00080000
00180000
00180000
00180000
00100000
00100000
00100000
00300000
00300000
00300000
00200000
00200000
00200000
00600000
00600000
00600000
00400000
00400000
00400000
00C00000
00C00000
00800000
00800000
00800000
ENDCHAR
STARTCHAR 0423
ENCODING 1059
SWIDTH 594 0
DWIDTH 33 0
BBX 34 41 2 -1
BITMAP
1800000000
18000000C0
0800000180
0C00000100
0C00000300
0600000600
0600000600
0200000C00
0300001800
0300001800
0100003000
0180006000
0180006000
00C000C000
00C0018000
0040018000
0060030000
0060020000
0020060000
00300C0000
0010080000
0018180000
0018300000
0008200000
000C600000
000CC00000
0004800000
0007800000
0003000000
0002000000
0006000000
000C000000
0008000000
0018000000
0030000000
0060000000
00C0000000
01C0000000
0300000000
FE00000000
6000000000
ENDCHAR
STARTCHAR 0424
ENCODING 1060
SWIDTH 684 0
DWIDTH 38 0
BBX 36 43 2 -2
BITMAP
0000040000
00000C0000
00000C0000
00000C0000
0000080000
0000080000
0007FFE000
001E183800
0070180E00
01C0180300
0380100180
06001000C0
0C00100040
1800300060
1800300060
3000300020
2000200020
6000200030
6000200030
4000600020
4000600020
C000600020
C000400060
C000400060
C000C00040
C000C000C0
4000C00080
4000800180
6000800300
2000800600
3001800E00
1801801C00
0C01803000
070100E000
03C1078000
007FFC0000
0003000000
0003000000
0003000000
0002000000
0002000000
0002000000
0006000000
ENDCHAR
STARTCHAR 0425
ENCODING 1061
SWIDTH 576 0
DWIDTH 32 0
BBX 34 40 -1 0
BITMAP
0100000000
01800000C0
0080000180
00C0000100
0040000300
0060000600
0020000C00
0030001800
0010003000
0018006000
000C006000
000C00C000
0006018000
0006030000
0003060000
00010C0000
0001880000
0000980000
0000F00000
0000600000
0000E00000
0001A00000
0003300000
0003100000
0006180000
000C0C0000
00180C0000
0030060000
0060060000
0040030000
00C0010000
0180018000
0300008000
060000C000
0C00004000
0800006000
1800002000
3000003000
6000001000
C000001800
ENDCHAR
STARTCHAR 0426
ENCODING 1062
SWIDTH 666 0
DWIDTH 37 0
BBX 34 50 2 -10
BITMAP
0100000040
0100000040
03000000C0
03000000C0
03000000C0
0200000080
0200000080
0200000180
0600000180
0600000180
0600000100
0400000100
0400000100
0400000300
0C00000300
0C00000300
0C00000200
0800000200
0800000200
0800000600
1800000600
1800000600
1800000400
1000000400
1000000400
1000000C00
3000000C00
3000000C00
2000000800
2000000800
2000000800
6000001800
6000001800
6000001000
4000001000
4000001000
4000003000
C000003000
C000003000
FFFFFFFE00
0000000600
0000000600
0000000400
0000000400
0000000400
0000000C00
0000000C00
0000000C00
0000000800
0000000800
ENDCHAR
STARTCHAR 0427
ENCODING 1063
SWIDTH 612 0
DWIDTH 34 0
BBX 27 40 7 0
BITMAP
30000060
20000060
20000040
20000040
60000040
600000C0
600000C0
400000C0
40000080
40000080
C0000080
C0000180
C0000180
C0000180
C0000100
40000100
60000100
60000300
30000300
1C000F00
0F83FE00
03FFC200
00000200
00000600
00000600
00000400
00000400
00000400
00000C00
00000C00
00000C00
00000800
00000800
00000800
00001800
00001800
00001800
00001000
00001000
00001000
ENDCHAR
STARTCHAR 0428
ENCODING 1064
SWIDTH 882 0
DWIDTH 49 0
BBX 46 40 2 0
BITMAP
010000200004
010000200004
01000060000C
03000060000C
03000060000C
030000400008
020000400008
020000400018
020000C00018
060000C00018
060000C00010
060000800010
040000800010
040000800030
0C0001800030
0C0001800030
0C0001800020
0C0001000020
080001000020
080001000060
180003000060
180003000060
180003000040
100002000040
100002000040
1000060000C0
3000060000C0
3000060000C0
300006000080
200004000080
200004000080
20000C000180
60000C000180
60000C000180
600008000100
400008000100
400008000300
400018000300
C00018000300
FFFFFFFFFE00
ENDCHAR
STARTCHAR 0429
ENCODING 1065
SWIDTH 882 0
DWIDTH 49 0
BBX 46 50 2 -10
BITMAP
010000200004
010000200004
01000060000C
03000060000C
03000060000C
030000400008
020000400008
020000400018
020000C00018
060000C00018
060000C00010
060000800010
040000800010
040000800030
0C0001800030
0C0001800030
0C0001800020
0C0001000020
080001000020
080001000060
180003000060
180003000060
180003000040
100002000040
100002000040
1000060000C0
3000060000C0
3000060000C0
300006000080
200004000080
200004000080
20000C000180
60000C000180
60000C000180
600008000100
400008000100
400008000300
400018000300
C00018000300
FFFFFFFFFFE0
000000000060
000000000060
000000000040
000000000040
0000000000C0
0000000000C0
0000000000C0
0000000000C0
000000000080
000000000080
ENDCHAR
STARTCHAR 042A
ENCODING 1066
SWIDTH 756 0
DWIDTH 42 0
BBX 34 40 3 0
BITMAP
FFFF000000
FFFF000000
0001000000
0003000000
0003000000
0003000000
0002000000
0002000000
0002000000
0006000000
0006000000
0006000000
0004000000
0004000000
0004000000
000C000000
000C000000
0008000000
0008000000
000FFFF000
0018003C00
0018000600
0018000300
0010000180
0010000080
00100000C0
00300000C0
00300000C0
00300000C0
00200000C0
0020000080
0020000180
0060000180
0060000300
0060000200
0040000E00
0040001C00
0040007000
00C00FC000
00FFFE0000
ENDCHAR
STARTCHAR 042B
ENCODING 1067
SWIDTH 774 0
DWIDTH 43 0
BBX 40 40 2 0
BITMAP
0180000001
0100000003
0100000003
0100000003
0300000002
0300000002
0300000002
0200000006
0200000006
0600000006
0600000004
0600000004
0400000004
040000000C
040000000C
0C0000000C
0C00000008
0C00000008
0800000008
0FFFF00018
08003C0018
1800060018
1800030010
1800018010
1000008030
100000C030
100000C030
300000C020
300000C020
300000C020
2000008060
2000008060
2000018060
6000030040
6000030040
6000060040
40001C00C0
40007000C0
C00FE000C0
FFFF000080
ENDCHAR
STARTCHAR 042C
ENCODING 1068
SWIDTH 576 0
DWIDTH 32 0
BBX 26 40 2 0
BITMAP
01800000
01000000
01000000
01000000
03000000
03000000
03000000
02000000
02000000
06000000
06000000
06000000
04000000
04000000
04000000
0C000000
0C000000
0C000000
08000000
0FFFF000
08003C00
18000600
18000300
18000180
10000080
100000C0
100000C0
300000C0
300000C0
300000C0
20000080
20000080
20000180
60000300
60000300
60000600
40001C00
40007000
C00FE000
FFFF0000
ENDCHAR
STARTCHAR 042D
ENCODING 1069
SWIDTH 612 0
DWIDTH 34 0
BBX 30 41 3 -1
BITMAP
0003FC00
001F9F00
00780180
00E000C0
01800060
03000030
06000010
04000018
0C000018
08000008
18000008
10000008
30000008
0000000C
0000000C
00000008
00000008
00000008
00000008
003FFFF8
003FFFF8
00000018
00000010
00000010
00000030
00000030
00000020
00000020
80000060
80000040
800000C0
80000080
C0000180
C0000300
40000600
60000C00
30001800
18003000
0E01E000
03FF8000
00100000
ENDCHAR
STARTCHAR 042E
ENCODING 1070
SWIDTH 900 0
DWIDTH 50 0
BBX 44 41 3 -1
BITMAP
0180000FF000
0180007EFC00
010001C00600
010003000300
010006000180
03000C0000C0
030018000040
020030000060
020020000060
020060000020
0600C0000020
0600C0000020
060080000030
040180000030
040180000030
040100000020
0C0300000020
0C0300000020
0C0300000020
0FFE00000060
080200000060
080200000060
180600000040
180600000040
1806000000C0
1006000000C0
100600000080
100600000080
300600000180
300600000100
300600000300
200200000200
200200000600
200300000C00
600100001800
600180003000
4000C0006000
40006001C000
400038078000
C0000FFE0000
000001000000
ENDCHAR
ENDFONT
